<svg width="8203" height="11085" viewBox="0 0 8203 11085" fill="none" xmlns="http://www.w3.org/2000/svg">
<path opacity="0.1" d="M7126.75 2686.03C6878.17 2145.16 6383.9 1723.15 5810.75 1562.43C5545.48 1488.05 5258.82 1464.21 5025.25 1318.11C4814.59 1186.35 4673.44 971.301 4511.09 783.195C4171.37 389.58 3698 92.2369 3180.09 46.1874C2662.19 0.137793 2107.93 239.135 1854.33 693.044C1377.97 1545.7 2067.06 2730.88 1536.99 3551.23C1364.9 3817.56 1089.57 3995.89 854.861 4209.1C294.127 4718.48 -47.8229 5478.55 5.43866 6234.23C58.7002 6989.9 530.267 7716.69 1224.62 8019.62C1612.37 8188.79 2047.56 8225.62 2469.12 8190.1C2810.4 8161.35 3190.38 8096.63 3465.68 8300.36C3667.16 8449.47 3754.76 8705.81 3811.07 8950.05C3925.58 9446.61 3965.94 9981.96 4256.2 10400.8C4576.96 10863.7 5163.75 11096 5726.78 11084.4C6289.8 11072.9 6829.75 10845.2 7304.14 10541.8C7518.79 10404.5 7729.71 10243.7 7850.72 10019.5C7990.11 9761.24 7992.67 9452.55 7973.38 9159.71C7937.97 8622.17 7838.99 8084.67 7629.99 7588.17C7499.13 7277.31 7326 6984.15 7217.9 6664.67C7032.34 6116.2 7050.01 5526.44 7107.97 4958.01C7128.99 4751.88 7129.94 4533.08 7174.32 4330.32C7231.05 4071.09 7309.69 3833.51 7311.95 3564.16C7314.48 3262.71 7252.75 2960.21 7126.75 2686.03Z" fill="#273D90"/>
<path d="M5794.53 11071.3C5519.83 11071.3 5247.13 11014.4 5003.3 10905.8C4871.06 10847 4749.46 10773.7 4641.87 10688.1C4529.19 10598.4 4432.08 10495.2 4353.26 10381.5C4252.27 10235.7 4172.35 10062.3 4108.93 9851.36C4052.58 9663.92 4014.32 9465.35 3977.31 9273.32C3955.24 9158.76 3932.41 9040.3 3906.07 8926.04C3855.58 8707.08 3771.27 8436.24 3565.8 8284.19C3325.23 8106.16 3004.07 8136.59 2693.49 8166.03C2655.58 8169.62 2616.39 8173.33 2578.41 8176.53C2480.34 8184.79 2384.62 8188.91 2291.4 8188.91C1931.13 8188.92 1607.85 8127.33 1327.37 8004.97C1156.14 7930.27 994.873 7828.45 848.035 7702.33C705.96 7580.32 579.299 7437.29 471.567 7277.21C365.122 7119.05 279.192 6947.33 216.162 6766.81C152.423 6584.26 113.381 6396.3 100.118 6208.14C86.9764 6021.69 97.6009 5830.95 131.697 5641.2C164.799 5456.99 219.958 5273.88 295.638 5096.95C445.247 4747.2 672.882 4427.38 953.934 4172.06C1020.62 4111.48 1091.62 4052.85 1160.28 3996.15C1332.98 3853.52 1511.56 3706.03 1633.8 3516.86C1902.09 3101.64 1853.98 2579.88 1807.45 2075.3C1784.97 1831.47 1761.71 1579.33 1773.74 1340.29C1780.23 1211.24 1796.19 1096.38 1822.55 989.173C1852.2 868.555 1894.12 760.689 1950.7 659.417C2073.76 439.149 2270.79 260.531 2520.5 142.87C2638.7 87.1748 2765 47.0663 2895.9 23.6605C3027.17 0.187453 3159.58 -5.8571 3289.45 5.69129C3540.25 27.9914 3788.5 108.706 4027.29 245.595C4138.65 309.43 4247.05 385.286 4349.47 471.06C4448.97 554.381 4543.18 647.333 4629.48 747.33C4668.43 792.452 4706.73 839.831 4743.78 885.652C4860.99 1030.63 4982.19 1180.55 5140.58 1279.62C5303.96 1381.81 5498.07 1424.44 5685.79 1465.66C5763.92 1482.82 5844.72 1500.56 5922.56 1522.39C6205.65 1601.77 6477.04 1747.68 6707.4 1944.36C6937.75 2141.04 7124.41 2386.2 7247.18 2653.35C7371.73 2924.35 7436.2 3229.99 7433.62 3537.23C7431.91 3742.34 7387.11 3925.58 7339.68 4119.58C7324.84 4180.25 7309.51 4242.99 7295.68 4306.16C7265.71 4443.12 7255.54 4589.56 7245.7 4731.19C7241.09 4797.56 7236.31 4866.2 7229.57 4932.34C7176.19 5455.93 7147.42 6067.47 7338.86 6633.3C7403.96 6825.69 7494.44 7012 7581.94 7192.18C7639.36 7310.42 7698.74 7432.68 7750.61 7555.89C7850.4 7792.97 7930.33 8052.99 7988.17 8328.74C8040.36 8577.59 8076.31 8847.77 8095.02 9131.78C8103.14 9255.11 8110.27 9417.17 8093.15 9576.98C8075.59 9740.84 8035.56 9878.85 7970.77 9998.89C7843.92 10233.9 7620.96 10397.3 7419.58 10526.1C6870.5 10877.3 6337.44 11060.6 5835.21 11070.9C5821.66 11071.2 5808.08 11071.3 5794.53 11071.3ZM3045.79 8116.63C3083.64 8116.63 3121.2 8117.81 3158.3 8120.56C3331.68 8133.43 3470.23 8179.85 3581.87 8262.47C3676.29 8332.34 3751.94 8428.57 3813.16 8556.66C3859.91 8654.49 3897.8 8769.94 3932.4 8919.97C3958.85 9034.7 3981.73 9153.41 4003.85 9268.21C4077.55 9650.66 4153.75 10046.1 4375.47 10366.1C4666.94 10786.7 5207.59 11044.3 5793.62 11044.3C5807.31 11044.3 5820.92 11044.2 5834.66 11043.9C6331.85 11033.7 6860.19 10851.8 7405.02 10503.3C7603.48 10376.4 7823.06 10215.7 7946.99 9986.06C8085.8 9728.86 8087.21 9424.33 8068.05 9133.55C8028.44 8532.16 7916.45 8019.53 7725.7 7566.37C7674.11 7443.83 7614.9 7321.9 7557.63 7203.98C7469.76 7023.05 7378.9 6835.96 7313.26 6641.96C7120.16 6071.23 7149.01 5456.07 7202.69 4929.6C7209.38 4863.89 7214.14 4795.47 7218.74 4729.31C7228.64 4586.72 7238.88 4439.27 7269.28 4300.39C7283.17 4236.89 7298.55 4173.99 7313.42 4113.16C7360.47 3920.73 7404.9 3738.98 7406.6 3537C7409.14 3233.7 7345.52 2932.05 7222.63 2664.64C6974.99 2125.8 6486.25 1708.52 5915.25 1548.41C5838.16 1526.79 5757.75 1509.13 5679.99 1492.06C5490.02 1450.34 5293.59 1407.2 5126.24 1302.53C4964.01 1201.06 4841.37 1049.35 4722.75 902.643C4685.84 856.989 4647.68 809.782 4609.02 764.986C4243.75 341.773 3761.91 74.8318 3287.05 32.6099C2742.74 -15.7854 2215.18 241.404 1974.28 672.599C1743.35 1085.95 1789.61 1587.65 1834.35 2072.82C1857.8 2327.05 1882.04 2589.93 1865.93 2836.56C1857.23 2969.69 1837.81 3087.63 1806.55 3197.14C1771.4 3320.27 1722.32 3429.65 1656.49 3531.52C1531.99 3724.21 1351.76 3873.05 1177.48 4016.98C1109.06 4073.49 1038.31 4131.91 972.095 4192.07C391.261 4719.7 75.3629 5472.66 127.068 6206.24C181.243 6974.89 667.946 7687.8 1338.17 7980.2C1687.06 8132.41 2103.58 8189.41 2576.13 8149.6C2613.96 8146.41 2653.09 8142.71 2690.93 8139.12C2808.1 8128.02 2928.29 8116.63 3045.79 8116.63Z" fill="white"/>
<path d="M6166.66 5217.98H1434.37V5245H6166.66V5217.98Z" fill="#203075"/>
<path d="M4069.39 3598.16L5211.06 3577.32L5140.22 4893.99L3911.05 4614.83L4069.39 3598.16Z" fill="white"/>
<mask id="mask0_11_455" style="mask-type:luminance" maskUnits="userSpaceOnUse" x="3911" y="3577" width="1301" height="1317">
<path d="M4069.39 3598.16L5211.06 3577.32L5140.22 4893.99L3911.05 4614.83L4069.39 3598.16Z" fill="white"/>
</mask>
<g mask="url(#mask0_11_455)">
<path d="M4398.41 3562.53C4321.8 3616.53 4337 3733.01 4300.84 3819.48C4262.75 3910.55 4169.22 3963.23 4100.51 4034.11C4012.25 4125.14 3964.81 4247.19 3895.21 4353.18C3825.6 4459.16 3716 4556.46 3589.48 4548.13" stroke="#273D90" stroke-width="3.5194" stroke-miterlimit="10"/>
</g>
<mask id="mask1_11_455" style="mask-type:luminance" maskUnits="userSpaceOnUse" x="3911" y="3577" width="1301" height="1317">
<path d="M4069.39 3598.16L5211.06 3577.32L5140.22 4893.99L3911.05 4614.83L4069.39 3598.16Z" fill="white"/>
</mask>
<g mask="url(#mask1_11_455)">
<path d="M4898.6 3454.43C4693.13 3596.48 4660.81 3893.25 4485.68 4071.38C4421.34 4136.83 4340.19 4183.43 4273.3 4246.29C4062.18 4444.69 4017.24 4778.66 3795.94 4965.63C3735.43 5016.76 3654.87 5055.63 3578.37 5035.05" stroke="#273D90" stroke-width="3.5194" stroke-miterlimit="10"/>
</g>
<mask id="mask2_11_455" style="mask-type:luminance" maskUnits="userSpaceOnUse" x="3911" y="3577" width="1301" height="1317">
<path d="M4069.39 3598.16L5211.06 3577.32L5140.22 4893.99L3911.05 4614.83L4069.39 3598.16Z" fill="white"/>
</mask>
<g mask="url(#mask2_11_455)">
<path d="M5058.97 3490.71C4953.94 3602.67 4935.42 3767.72 4877.65 3909.95C4828.32 4031.42 4749.05 4137.89 4681.43 4250.22C4487.89 4571.66 4386.98 4946.03 4164.3 5248.02C4125.37 5300.82 4075.11 5355.2 4009.6 5358.64" stroke="#273D90" stroke-width="3.5194" stroke-miterlimit="10"/>
</g>
<mask id="mask3_11_455" style="mask-type:luminance" maskUnits="userSpaceOnUse" x="3911" y="3577" width="1301" height="1317">
<path d="M4069.39 3598.16L5211.06 3577.32L5140.22 4893.99L3911.05 4614.83L4069.39 3598.16Z" fill="white"/>
</mask>
<g mask="url(#mask3_11_455)">
<path d="M4956.2 4126.01C4952.09 4290.55 4916.04 4454.22 4850.64 4605.26C4785.07 4756.7 4690.14 4896.28 4646.44 5055.42C4594.94 5242.99 4611.13 5462.53 4480.64 5606.78" stroke="#273D90" stroke-width="3.5194" stroke-miterlimit="10"/>
</g>
<path d="M4069.39 3577.32L3544.39 3018.99L3994.39 1998.15L3361.05 1927.32L2781.88 3210.66L3381.89 4118.99L4006.89 4527.33L4490.22 4164.83L4173.55 3631.49L4069.39 3577.32Z" fill="white"/>
<mask id="mask4_11_455" style="mask-type:luminance" maskUnits="userSpaceOnUse" x="2781" y="1927" width="1710" height="2601">
<path d="M4069.39 3577.32L3544.39 3018.99L3994.39 1998.15L3361.05 1927.32L2781.88 3210.66L3381.89 4118.99L4006.89 4527.33L4490.22 4164.83L4173.55 3631.49L4069.39 3577.32Z" fill="white"/>
</mask>
<g mask="url(#mask4_11_455)">
<path d="M2807.09 2928.92C2809.81 2770.91 2940.29 2644.34 3077.12 2565.29C3213.96 2486.24 3368.7 2433.17 3484.18 2325.29C3545.59 2267.92 3594.6 2196.06 3665.74 2151.32C3809.05 2061.17 3995.43 2104.93 4162.58 2078.04C4291.26 2057.34 4412.25 1991.6 4499.65 1894.91" stroke="#273D90" stroke-width="3.5194" stroke-miterlimit="10"/>
</g>
<mask id="mask5_11_455" style="mask-type:luminance" maskUnits="userSpaceOnUse" x="2781" y="1927" width="1710" height="2601">
<path d="M4069.39 3577.32L3544.39 3018.99L3994.39 1998.15L3361.05 1927.32L2781.88 3210.66L3381.89 4118.99L4006.89 4527.33L4490.22 4164.83L4173.55 3631.49L4069.39 3577.32Z" fill="white"/>
</mask>
<g mask="url(#mask5_11_455)">
<path d="M2887.43 3812.53C3015.86 3613.92 2948.42 3324.54 3102.21 3144.86C3178.56 3055.65 3298.85 3009.15 3363.95 2911.43C3388.03 2875.28 3403.14 2834 3423.91 2795.86C3531.73 2597.85 3773.21 2513.58 3997.62 2491.74C4108.92 2480.91 4232.37 2476.61 4312.71 2398.83" stroke="#273D90" stroke-width="3.5194" stroke-miterlimit="10"/>
</g>
<mask id="mask6_11_455" style="mask-type:luminance" maskUnits="userSpaceOnUse" x="2781" y="1927" width="1710" height="2601">
<path d="M4069.39 3577.32L3544.39 3018.99L3994.39 1998.15L3361.05 1927.32L2781.88 3210.66L3381.89 4118.99L4006.89 4527.33L4490.22 4164.83L4173.55 3631.49L4069.39 3577.32Z" fill="white"/>
</mask>
<g mask="url(#mask6_11_455)">
<path d="M3372.94 4174.94C3325.29 3999.87 3361.53 3803.91 3468.65 3657.46C3512 3598.19 3569.23 3537.97 3564.3 3464.7C3561.53 3423.64 3538.78 3385.83 3536.74 3344.73C3533.54 3280.16 3582.51 3223.51 3638.36 3190.96C3694.23 3158.41 3758.28 3142.71 3816.2 3114C3921.39 3061.86 4003.7 2965.4 4038.63 2853.32" stroke="#273D90" stroke-width="3.5194" stroke-miterlimit="10"/>
</g>
<mask id="mask7_11_455" style="mask-type:luminance" maskUnits="userSpaceOnUse" x="2781" y="1927" width="1710" height="2601">
<path d="M4069.39 3577.32L3544.39 3018.99L3994.39 1998.15L3361.05 1927.32L2781.88 3210.66L3381.89 4118.99L4006.89 4527.33L4490.22 4164.83L4173.55 3631.49L4069.39 3577.32Z" fill="white"/>
</mask>
<g mask="url(#mask7_11_455)">
<path d="M3696.7 4294.63C3703.37 4174.15 3717.69 4054.1 3739.57 3935.44C3751.51 3870.66 3766.29 3804.79 3801.38 3749.04C3834.93 3695.74 3884.84 3655.16 3926.72 3608.13C4047.18 3472.91 4096.87 3290.67 4142.86 3115.5" stroke="#273D90" stroke-width="3.5194" stroke-miterlimit="10"/>
</g>
<mask id="mask8_11_455" style="mask-type:luminance" maskUnits="userSpaceOnUse" x="2781" y="1927" width="1710" height="2601">
<path d="M4069.39 3577.32L3544.39 3018.99L3994.39 1998.15L3361.05 1927.32L2781.88 3210.66L3381.89 4118.99L4006.89 4527.33L4490.22 4164.83L4173.55 3631.49L4069.39 3577.32Z" fill="white"/>
</mask>
<g mask="url(#mask8_11_455)">
<path d="M4307.81 3763.15C4291.98 3900.25 4206.21 4060.41 4129.43 4201.77C4075.84 4300.44 4041.11 4408.7 3984.48 4505.65C3927.85 4602.6 3842.11 4691.2 3731.95 4712.94" stroke="#273D90" stroke-width="3.5194" stroke-miterlimit="10"/>
</g>
<path d="M4240.22 5231.49H3702.72L3823.55 4704.41L4298.55 4939.83L4240.22 5231.49Z" fill="#203075"/>
<path d="M2627.72 5727.33V5951.81L3411.05 6059.1L3669.39 5893.22L3686.05 5727.33H2627.72Z" fill="#4182C4"/>
<path d="M4984.8 9341.42L4880.79 9997.4L4090.32 9980.69L3861.15 9776.39L3911.49 9449.68L4984.8 9341.42Z" fill="#4182C4"/>
<path d="M3861.66 9684.6L3777.08 10352L3761.58 10474.6L4117.01 10552.8C4135.79 10514.1 4178.79 10491.7 4222.18 10501.2C4265.56 10510.8 4295.04 10549.2 4295.95 10592.2L5685.65 10898.2L5705.36 10808.6C5707.6 10798.4 5709.62 10788.1 5711.32 10777.9C5726.12 10691.6 5722.96 10606.1 5704.56 10525.4C5687.51 10450.1 5657.02 10379 5615.26 10315.4C5586.61 10271.5 5552.41 10231.2 5513.53 10195.7C5434.84 10123.4 5336.89 10070.4 5225.41 10045.9L5144.78 10017.9C5138.65 10015.7 5132.54 10013.4 5126.68 10010.6C5069.58 9984.9 5026.3 9935 5008.8 9873.52L4982.68 9782.49C4979.31 9770.79 4973.04 9760.65 4964.68 9752.65C4956.16 9744.76 4945.68 9739.02 4933.96 9736.44C4927.91 9735.11 4921.74 9738 4918.65 9743.48L4872.51 9827.36C4842.41 9881.92 4781.43 9911.2 4720.83 9900.18L4082.74 9783.38C4041.22 9775.74 4005.31 9750.04 3984.42 9713.14L3979.26 9704.06C3963.99 9677.16 3938.13 9657.91 3908.13 9651.31C3886.13 9646.46 3864.49 9661.96 3861.66 9684.6Z" fill="#203075"/>
<path d="M3777.08 10352L3761.58 10474.6L4117.01 10552.8C4135.79 10514.1 4178.79 10491.7 4222.18 10501.2C4265.56 10510.8 4295.04 10549.2 4295.95 10592.2L5685.65 10898.2L5705.36 10808.6C5707.6 10798.4 5709.62 10788.1 5711.32 10777.9L3777.08 10352Z" fill="#4182C4"/>
<path d="M5126.92 10444.8C5077.2 10444.8 5021.2 10433 4973.28 10412.3C4922.28 10390.3 4884.06 10360.1 4865.67 10327.1C4846.29 10292.3 4848.67 10254.9 4872.77 10215.9C4938.61 10109.6 5045.81 10053.7 5126.05 10025.2C5131.06 10027.3 5135.95 10029.1 5140.28 10030.6L5220.97 10058.7C5221.47 10058.8 5221.98 10059 5222.5 10059.1C5320.53 10080.7 5411.74 10126.1 5487.62 10190.8C5399.93 10226.6 5338.68 10296.9 5284.14 10359.5C5268.42 10377.6 5253.57 10394.6 5238.38 10410.7C5217.5 10432.7 5177.92 10444.8 5126.93 10444.8C5126.93 10444.8 5126.93 10444.8 5126.92 10444.8Z" fill="white"/>
<path d="M5125.73 10039.6C5129.27 10041 5132.66 10042.3 5135.77 10043.4C5135.82 10043.4 5135.87 10043.4 5135.92 10043.4L5216.54 10071.4C5217.54 10071.8 5218.56 10072.1 5219.59 10072.3C5271.92 10083.8 5322.26 10102.2 5369.2 10126.8C5401.98 10144 5433.13 10164.3 5462.19 10187.4C5382.42 10226.1 5325.26 10291.7 5273.96 10350.6C5258.33 10368.6 5243.57 10385.5 5228.58 10401.4C5210.54 10420.4 5173.48 10431.3 5126.92 10431.3C5078.97 10431.3 5024.92 10419.9 4978.63 10399.9C4930.35 10379.1 4894.43 10350.9 4877.48 10320.5C4860.42 10289.9 4862.64 10258 4884.25 10223.1C4946.74 10122.2 5048.13 10067.9 5125.73 10039.6ZM5126.68 10010.6C5043.26 10039.5 4930.59 10096.9 4861.27 10208.8C4771.16 10354.6 4976.12 10458.3 5126.91 10458.3C5178.18 10458.3 5223.17 10446.4 5248.2 10420C5322.23 10341.8 5392.44 10235 5513.53 10195.7C5434.84 10123.4 5336.89 10070.4 5225.4 10045.9L5144.78 10017.9C5138.65 10015.7 5132.54 10013.4 5126.68 10010.6Z" fill="#4182C4"/>
<path d="M5578.65 10624.4C5573.85 10624.4 5569.06 10623.6 5564.43 10622.2C5538.92 10614.6 5502.88 10600.9 5475.92 10579C5447.03 10555.6 5434.83 10528.7 5438.61 10496.8C5443.07 10458.4 5468.2 10421.6 5513.31 10387.3C5547.29 10361.5 5585.41 10342.9 5610.04 10332.3C5646.7 10390.3 5673.37 10453.3 5689.44 10520.1C5657.39 10546.2 5633.89 10578.5 5619.5 10601.7C5610.7 10615.9 5595.42 10624.4 5578.65 10624.4Z" fill="white"/>
<path d="M5604.77 10349.4C5636.04 10401 5659.37 10456.6 5674.3 10515.1C5644.18 10541.3 5621.97 10572.1 5608.01 10594.6C5601.69 10604.8 5590.72 10610.8 5578.65 10610.8C5575.17 10610.8 5571.7 10610.3 5568.29 10609.3C5543.97 10602 5509.68 10589 5484.42 10568.5C5459.43 10548.3 5448.83 10525.3 5452.03 10498.3C5460.55 10425.1 5554.36 10372.6 5604.77 10349.4ZM5615.26 10315.4C5563.68 10336.4 5436.54 10397.6 5425.19 10495.2C5415.43 10577.5 5502.41 10617.7 5560.52 10635.2C5566.51 10637 5572.62 10637.9 5578.65 10637.9C5599.49 10637.9 5619.45 10627.4 5630.98 10608.8C5646.67 10583.5 5671.35 10550.5 5704.56 10525.4C5687.51 10450.2 5657.02 10379 5615.26 10315.4Z" fill="#4182C4"/>
<path d="M4598.54 10002.5C4590.45 10002.5 4582.15 10002.4 4573.64 10002.1C4489.21 9999.86 4401.95 9986.02 4314.29 9960.98C4204.93 9929.75 4094.62 9880.93 3986.43 9815.85C3980.15 9812.08 3978.12 9803.92 3981.9 9797.64C3985.67 9791.35 3993.83 9789.32 4000.11 9793.1C4239.7 9937.21 4443.79 9971.86 4572.81 9975.55C4712.54 9979.53 4796.82 9949.12 4797.65 9948.81C4804.54 9946.27 4812.16 9949.78 4814.7 9956.65C4817.25 9963.52 4813.75 9971.15 4806.88 9973.7C4803.53 9974.94 4727.81 10002.5 4598.54 10002.5Z" fill="white"/>
<path d="M4828.91 4235.66L4949.55 4893.99L5145.49 4796.05" fill="#203075"/>
<path d="M5094.39 4810.66C5094.39 4810.66 3392.21 3898.37 3169.38 4052.32C2711.05 4368.99 2627.72 5727.33 2627.72 5727.33C2627.72 5727.33 3436.05 5885.66 3798.55 5727.33L3898.55 4885.66L4181.89 5227.33L4433.66 6098.16L3893.67 9564.1L4982.12 9361.71L5656.89 6427.33L5377.72 5048.16L5094.39 4810.66Z" fill="white"/>
<path d="M5211.06 3577.32L5723.56 4618.99L5286.06 5831.5L4756.89 5802.33L5058.06 4673.16L4808.75 4197.17L5211.06 3577.32Z" fill="white"/>
<mask id="mask9_11_455" style="mask-type:luminance" maskUnits="userSpaceOnUse" x="4756" y="3577" width="968" height="2255">
<path d="M5211.06 3577.32L5723.56 4618.99L5286.06 5831.5L4756.89 5802.33L5058.06 4673.16L4808.75 4197.17L5211.06 3577.32Z" fill="white"/>
</mask>
<g mask="url(#mask9_11_455)">
<path d="M5393.14 3608.92C5260.89 3699.79 5178.47 3858.99 5180.6 4019.43C5183.69 4250.96 5348.75 4462.34 5329.68 4693.1C5311.87 4908.72 5135.31 5080.2 4943.14 5179.62C4827.02 5239.7 4694.13 5281.96 4566.15 5255.21" stroke="#273D90" stroke-width="3.5194" stroke-miterlimit="10"/>
</g>
<mask id="mask10_11_455" style="mask-type:luminance" maskUnits="userSpaceOnUse" x="4756" y="3577" width="968" height="2255">
<path d="M5211.06 3577.32L5723.56 4618.99L5286.06 5831.5L4756.89 5802.33L5058.06 4673.16L4808.75 4197.17L5211.06 3577.32Z" fill="white"/>
</mask>
<g mask="url(#mask10_11_455)">
<path d="M5887.32 4282.9C5719.87 4295.08 5587.44 4438.52 5525.82 4594.7C5464.2 4750.87 5456.18 4922.06 5427.99 5087.57C5399.79 5253.08 5344.47 5424.94 5215.39 5532.31C5098.63 5629.43 4941.58 5657.9 4793.92 5693.41C4646.25 5728.93 4489.79 5782.69 4404.17 5908.13" stroke="#273D90" stroke-width="3.5194" stroke-miterlimit="10"/>
</g>
<path d="M5286.06 5838.25C5285.94 5838.25 5285.81 5838.25 5285.69 5838.24L4748.22 5808.61L4750.36 5800.58L5050.86 4673.96L4802.77 4200.3C4801.04 4197 4802.31 4192.91 4805.62 4191.19C4808.93 4189.46 4813.01 4190.73 4814.73 4194.04L5065.27 4672.36L4765.56 5796.04L5286.43 5824.75C5290.15 5824.95 5293.01 5828.14 5292.8 5831.87C5292.6 5835.47 5289.62 5838.25 5286.06 5838.25Z" fill="#273D90"/>
<path d="M4744.39 5851.29L4665.22 5945.04V6052.33L4744.39 5851.29Z" fill="#4182C4"/>
<path d="M4601.69 8717.75H5341.25C5696.89 8717.75 5965.25 8394.95 5900.29 8045.29L5754.8 7262.08C5754.8 7083.73 5338.47 6342.91 5160.12 6342.91H4782.83C4604.47 6342.91 4188.14 7083.73 4188.14 7262.08L4042.65 8045.29C3977.7 8394.95 4246.05 8717.75 4601.69 8717.75Z" fill="white" stroke="#273D90" stroke-width="3.5194" stroke-miterlimit="10"/>
<path d="M4652.8 8553.63H5290.14C5596.62 8553.63 5827.89 8275.44 5771.91 7974.12L5646.53 7299.16C5646.53 7145.46 5287.75 6507.04 5134.04 6507.04H4808.9C4655.2 6507.04 4296.41 7145.46 4296.41 7299.16L4171.03 7974.12C4115.06 8275.44 4346.32 8553.63 4652.8 8553.63Z" fill="#203075"/>
<path d="M5299.97 6803.17H4659.82V6830.19H5299.97V6803.17Z" fill="white"/>
<path d="M5490.36 8236.66H5463.34V8215.78C5463.34 8044.42 5323.92 7905.01 5152.56 7905.01H4815.65C4644.29 7905.01 4504.88 8044.42 4504.88 8215.78V8236.66H4477.85V8215.78C4477.85 8125.92 4513.09 8041.19 4577.07 7977.21C4641.05 7913.23 4725.78 7877.99 4815.65 7877.99H5152.56C5242.43 7877.99 5327.16 7913.22 5391.14 7977.21C5455.12 8041.19 5490.36 8125.92 5490.36 8215.78V8236.66Z" fill="white"/>
<path d="M5084.52 6219.29L5121.47 6183.58L5128.32 6189.57C5147.78 6206.6 5177.2 6205.24 5195.01 6186.5L5214.13 6166.39C5254.92 6123.47 5262.58 6058.8 5232.93 6007.54V6009.46" fill="#4182C4"/>
<path d="M5327.25 6659.57C5313.32 6659.57 5299.4 6654.22 5288.83 6643.54C5267.83 6622.32 5268.02 6588.1 5289.24 6567.11C5353.08 6503.94 5388.24 6424.32 5388.24 6342.91C5388.24 6147.24 5191.44 5988.06 4949.55 5988.06C4707.65 5988.06 4510.86 6147.25 4510.86 6342.91C4510.86 6423.3 4543.47 6499.2 4605.18 6562.39C4626.03 6583.75 4625.62 6617.97 4604.27 6638.82C4582.91 6659.68 4548.69 6659.27 4527.84 6637.91C4447.18 6555.3 4402.76 6450.54 4402.76 6342.91C4402.76 6279.1 4417.77 6217.29 4447.38 6159.21C4475.55 6103.93 4515.67 6054.46 4566.61 6012.18C4669.36 5926.92 4805.35 5879.96 4949.55 5879.96C5093.74 5879.96 5229.74 5926.92 5332.48 6012.18C5383.43 6054.46 5423.54 6103.93 5451.72 6159.21C5481.32 6217.29 5496.33 6279.1 5496.33 6342.91C5496.33 6453.41 5449.78 6560.32 5365.26 6643.94C5354.73 6654.37 5340.98 6659.57 5327.25 6659.57Z" fill="#4182C4"/>
<path d="M5442.29 6714.19C5438.48 6714.19 5434.68 6712.58 5432.01 6709.45L5229.94 6472.56C5225.1 6466.88 5225.78 6458.35 5231.45 6453.51C5237.13 6448.67 5245.66 6449.34 5250.5 6455.02L5452.57 6691.91C5457.41 6697.59 5456.73 6706.12 5451.06 6710.96C5448.51 6713.13 5445.4 6714.19 5442.29 6714.19Z" fill="#273D90"/>
<path d="M4491.36 6714.19C4488.26 6714.19 4485.14 6713.13 4482.6 6710.96C4476.92 6706.12 4476.24 6697.59 4481.09 6691.91L4683.15 6455.02C4688 6449.34 4696.52 6448.66 4702.2 6453.51C4707.88 6458.35 4708.56 6466.88 4703.72 6472.56L4501.65 6709.45C4498.97 6712.58 4495.18 6714.19 4491.36 6714.19Z" fill="#273D90"/>
<path d="M5232.93 6007.54L5286.06 5831.5L4756.89 5802.33L4656.89 6060.66L4752.64 6245.39C4772.46 6283.62 4820.38 6297.27 4857.37 6275.22L4897.51 6251.29C4912.25 6267.2 4936.7 6269.21 4953.83 6255.91L5012.1 6210.66L5015.54 6214.4C5033.79 6234.22 5064.63 6235.55 5084.52 6217.37L5121.47 6183.58L5128.32 6189.57" fill="#4182C4"/>
<mask id="mask11_11_455" style="mask-type:luminance" maskUnits="userSpaceOnUse" x="4656" y="5802" width="631" height="484">
<path d="M5232.93 6007.54L5286.06 5831.5L4756.89 5802.33L4656.89 6060.66L4752.64 6245.39C4772.46 6283.62 4820.38 6297.27 4857.37 6275.22L4897.51 6251.29C4912.25 6267.2 4936.7 6269.21 4953.83 6255.91L5012.1 6210.66L5015.54 6214.4C5033.79 6234.22 5064.63 6235.55 5084.52 6217.37L5121.47 6183.58L5128.32 6189.57" fill="white"/>
</mask>
<g mask="url(#mask11_11_455)">
<path d="M4813.14 6021.08L4787.1 6064.83L4923.55 6279.41" fill="#4182C4"/>
<path d="M4813.14 6021.08L4787.1 6064.83L4923.55 6279.41" stroke="#273D90" stroke-width="6.964" stroke-miterlimit="10" stroke-linecap="round"/>
</g>
<mask id="mask12_11_455" style="mask-type:luminance" maskUnits="userSpaceOnUse" x="4656" y="5802" width="631" height="484">
<path d="M5232.93 6007.54L5286.06 5831.5L4756.89 5802.33L4656.89 6060.66L4752.64 6245.39C4772.46 6283.62 4820.38 6297.27 4857.37 6275.22L4897.51 6251.29C4912.25 6267.2 4936.7 6269.21 4953.83 6255.91L5012.1 6210.66L5015.54 6214.4C5033.79 6234.22 5064.63 6235.55 5084.52 6217.37L5121.47 6183.58L5128.32 6189.57" fill="white"/>
</mask>
<g mask="url(#mask12_11_455)">
<path d="M4913.14 6036.7L5051.68 6260.66" stroke="#273D90" stroke-width="6.964" stroke-miterlimit="10" stroke-linecap="round"/>
</g>
<mask id="mask13_11_455" style="mask-type:luminance" maskUnits="userSpaceOnUse" x="4656" y="5802" width="631" height="484">
<path d="M5232.93 6007.54L5286.06 5831.5L4756.89 5802.33L4656.89 6060.66L4752.64 6245.39C4772.46 6283.62 4820.38 6297.27 4857.37 6275.22L4897.51 6251.29C4912.25 6267.2 4936.7 6269.21 4953.83 6255.91L5012.1 6210.66L5015.54 6214.4C5033.79 6234.22 5064.63 6235.55 5084.52 6217.37L5121.47 6183.58L5128.32 6189.57" fill="white"/>
</mask>
<g mask="url(#mask13_11_455)">
<path d="M5007.93 6028.37L5174.6 6241.91" stroke="#273D90" stroke-width="6.964" stroke-miterlimit="10" stroke-linecap="round"/>
</g>
<mask id="mask14_11_455" style="mask-type:luminance" maskUnits="userSpaceOnUse" x="4656" y="5802" width="631" height="484">
<path d="M5232.93 6007.54L5286.06 5831.5L4756.89 5802.33L4656.89 6060.66L4752.64 6245.39C4772.46 6283.62 4820.38 6297.27 4857.37 6275.22L4897.51 6251.29C4912.25 6267.2 4936.7 6269.21 4953.83 6255.91L5012.1 6210.66L5015.54 6214.4C5033.79 6234.22 5064.63 6235.55 5084.52 6217.37L5121.47 6183.58L5128.32 6189.57" fill="white"/>
</mask>
<g mask="url(#mask14_11_455)">
<path d="M5124.91 5974.6L5226.03 6088.88L5259.53 6007.54" fill="#4182C4"/>
<path d="M5124.91 5974.6L5226.03 6088.88L5259.53 6007.54" stroke="#273D90" stroke-width="6.964" stroke-miterlimit="10" stroke-linecap="round"/>
</g>
<mask id="mask15_11_455" style="mask-type:luminance" maskUnits="userSpaceOnUse" x="4656" y="5802" width="631" height="484">
<path d="M5232.93 6007.54L5286.06 5831.5L4756.89 5802.33L4656.89 6060.66L4752.64 6245.39C4772.46 6283.62 4820.38 6297.27 4857.37 6275.22L4897.51 6251.29C4912.25 6267.2 4936.7 6269.21 4953.83 6255.91L5012.1 6210.66L5015.54 6214.4C5033.79 6234.22 5064.63 6235.55 5084.52 6217.37L5121.47 6183.58L5128.32 6189.57" fill="white"/>
</mask>
<g mask="url(#mask15_11_455)">
<path d="M4725.18 5900.06L4656.89 6083.58" stroke="#273D90" stroke-width="6.964" stroke-miterlimit="10" stroke-linecap="round"/>
</g>
<path d="M3361.05 1927.32L3386.05 1625.24L3348.62 1331.4C3346.23 1312.64 3358.68 1295.2 3377.2 1291.36C3393.43 1288.01 3409.87 1296.09 3417.11 1311L3506.78 1495.62C3507.95 1498.03 3511.56 1497.34 3511.75 1494.66L3535.37 1165.85C3536.92 1144.14 3554.99 1127.32 3576.76 1127.32C3596.66 1127.32 3613.76 1141.45 3617.52 1160.99L3679.73 1484.88C3680.98 1491.38 3686.66 1496.07 3693.28 1496.07C3699.95 1496.07 3705.66 1491.3 3706.85 1484.73L3764.72 1164.65C3768.63 1143.04 3787.44 1127.32 3809.4 1127.32C3834.47 1127.32 3854.8 1147.65 3854.8 1172.73V1512.59C3854.8 1517.85 3857.66 1522.7 3862.25 1525.26C3868.69 1528.83 3876.79 1527.02 3881.08 1521.03L4068.08 1287C4077.2 1274.28 4094.28 1270.2 4108.15 1277.44C4121.83 1284.58 4128.3 1300.59 4123.42 1315.22L3971.47 1771.07L3981.88 1775.24C3981.88 1775.24 4134.09 1647.21 4210.47 1675.62C4236.47 1685.29 4243.35 1719.26 4223.58 1738.71C4197.84 1764.04 4166.28 1807.18 4156.88 1827.32C4127.72 1889.82 3994.39 1998.16 3994.39 1998.16L3361.05 1927.32Z" fill="#4182C4"/>
<path d="M4596.41 3636.08L4595.33 3636.63C4523.72 3682.83 4436.43 3682.57 4364.82 3636.08L4411.57 3456.65H4549.66L4565.88 3518.53L4596.41 3636.08Z" fill="#4182C4"/>
<path d="M4565.88 3518.53C4553.71 3545.29 4526.69 3563.93 4495.34 3563.93C4452.92 3563.93 4418.32 3529.34 4418.32 3486.91C4418.32 3476.1 4420.49 3465.84 4424.54 3456.65H4549.66L4565.88 3518.53Z" fill="#1D1D1B"/>
<path d="M4561.01 3430.43V3463.94C4561.01 3465.02 4561.01 3465.83 4560.74 3466.91C4559.39 3509.88 4523.72 3544.47 4480.48 3544.47C4453.19 3544.47 4428.87 3530.69 4414.54 3509.34C4405.63 3496.37 4400.22 3480.7 4400.22 3463.94V3430.43C4400.22 3408.27 4409.41 3388.28 4423.73 3373.68C4438.33 3359.09 4458.59 3350.17 4480.48 3350.17C4524.8 3350.17 4561.01 3386.38 4561.01 3430.43Z" fill="#4182C4"/>
<path d="M3675.87 5873.98L3614.11 6543.98L3602.75 6666.97H3233.65C3223.5 6625.13 3185.8 6593.98 3140.75 6593.98C3095.7 6593.98 3058.13 6625.13 3047.84 6666.97H1604.75V6575.26C1604.75 6564.84 1605.02 6554.28 1605.56 6543.98C1609.7 6456.56 1631.49 6373.67 1667.32 6298.81C1700.6 6229.03 1746.32 6166.07 1801.53 6112.99C1839.5 6076.23 1882.14 6044.28 1928.39 6017.95C2022.1 5964.21 2130.65 5933.6 2246.42 5933.6L2332.38 5923.57C2338.93 5922.77 2345.48 5921.83 2351.89 5920.36C2414.05 5907.53 2467.79 5868.09 2498.54 5811.81L2544.26 5728.53C2550.14 5717.84 2558.56 5709.28 2568.59 5703.27C2578.75 5697.38 2590.38 5694.04 2602.54 5694.04C2608.83 5694.04 2614.31 5698.19 2616.18 5704.2L2643.58 5796.04C2661.5 5855.79 2715.5 5897.5 2777.93 5899.77L3435.38 5922.9C3478.15 5924.37 3519.33 5906.99 3548.07 5875.44L3555.15 5867.69C3576.14 5844.7 3605.95 5831.46 3637.1 5831.46C3659.96 5831.46 3678.01 5851.25 3675.87 5873.98Z" fill="#203075"/>
<path d="M3614.11 6543.98L3602.75 6666.97H3233.65C3223.49 6625.13 3185.8 6593.98 3140.75 6593.98C3095.69 6593.98 3058.13 6625.13 3047.84 6666.97H1604.75V6575.26C1604.75 6564.84 1605.02 6554.28 1605.55 6543.98H3614.11Z" fill="#4182C4"/>
<path d="M2339.08 6352.77C2250.94 6352.77 2178.22 6326.94 2153.82 6286.96C2142.27 6268.04 2131.28 6248.2 2119.65 6227.19C2079.31 6154.33 2034 6072.49 1955.02 6018.74C2044.33 5971.81 2144.58 5947.11 2246.42 5947.11C2246.94 5947.11 2247.47 5947.08 2247.98 5947.02L2333.94 5936.99C2338.64 5936.42 2343.94 5935.71 2349.41 5934.68C2422.7 5979.76 2516.74 6057.51 2558.8 6175.55C2572.43 6213.9 2569.38 6247.47 2549.72 6275.31C2516.51 6322.37 2433.83 6352.77 2339.08 6352.77Z" fill="white"/>
<path d="M2346.66 5948.87C2417.4 5993.17 2506.15 6068.03 2546.07 6180.06C2558.32 6214.53 2555.9 6243.14 2538.69 6267.52C2507.93 6311.1 2429.58 6339.26 2339.08 6339.26C2256.83 6339.26 2187.02 6315.41 2165.35 6279.93C2153.96 6261.25 2143.04 6241.52 2131.47 6220.64C2093.54 6152.13 2051.28 6075.82 1980.86 6020.86C2014.68 6004.59 2049.95 5991.48 2086.17 5981.72C2138.1 5967.72 2192.02 5960.62 2246.42 5960.62C2247.47 5960.62 2248.51 5960.56 2249.55 5960.44L2335.51 5950.41C2335.56 5950.41 2335.61 5950.4 2335.67 5950.4C2339.05 5949.98 2342.76 5949.49 2346.66 5948.87ZM2351.89 5920.36C2345.48 5921.83 2338.93 5922.77 2332.38 5923.57L2246.42 5933.6C2130.65 5933.6 2022.11 5964.21 1928.4 6017.95C2039.75 6082.38 2086.01 6201.76 2142.28 6294C2171.28 6341.5 2253.53 6366.28 2339.08 6366.28C2474.78 6366.28 2618.76 6303.92 2571.54 6171.01C2527.28 6046.82 2428.23 5966.48 2351.89 5920.36Z" fill="#4182C4"/>
<path d="M1781.11 6423.71C1760.22 6423.71 1741.57 6410.8 1734.72 6391.59C1725.52 6365.84 1709.3 6329.27 1683.28 6296.87C1713.77 6235.13 1753.99 6179.23 1803 6130.46C1825.08 6146.12 1858.91 6172.59 1887.03 6205.22C1924.22 6248.37 1941.08 6289.7 1937.14 6328.04C1933.93 6360.03 1915.96 6383.67 1882.22 6400.34C1850.7 6415.92 1811.97 6421.57 1785.03 6423.56C1783.71 6423.66 1782.4 6423.71 1781.11 6423.71Z" fill="white"/>
<path d="M1804.45 6148.23C1849.24 6181.54 1931.24 6253.23 1923.7 6326.72C1920.99 6353.67 1905.46 6373.79 1876.24 6388.23C1846.66 6402.84 1809.77 6408.18 1783.98 6410.09C1783.03 6410.16 1782.06 6410.2 1781.11 6410.2C1765.91 6410.2 1752.38 6400.9 1747.44 6387.04C1738.53 6362.11 1723.25 6327.35 1699.18 6295.32C1726.79 6241.29 1762.11 6191.96 1804.45 6148.23ZM1801.53 6113C1746.32 6166.07 1700.6 6229.03 1667.32 6298.81C1694.72 6330.5 1711.97 6368.06 1721.99 6396.13C1730.93 6421.18 1754.8 6437.22 1781.11 6437.22C1782.74 6437.22 1784.38 6437.16 1786.02 6437.04C1847.38 6432.49 1942.3 6411.91 1950.59 6329.42C1960.61 6231.7 1848.05 6144.54 1801.53 6113Z" fill="#4182C4"/>
<path d="M3096.31 6048.83C3029.13 6048.83 2963.87 6042.9 2901.53 6031.09C2757.7 6003.84 2680.04 5955.25 2676.8 5953.2C2670.57 5949.24 2668.73 5940.98 2672.68 5934.75C2676.64 5928.51 2684.9 5926.67 2691.13 5930.63C2692.47 5931.47 2769.26 5979.06 2908.04 6005.11C3036.66 6029.25 3246.4 6039.3 3515.17 5950.06C3522.18 5947.74 3529.75 5951.53 3532.07 5958.53C3534.4 5965.54 3530.6 5973.11 3523.6 5975.43C3402.27 6015.71 3282.39 6039.68 3167.3 6046.66C3143.43 6048.11 3119.76 6048.83 3096.31 6048.83Z" fill="white"/>
<path d="M4465.49 3387.03C4476.11 3379.9 4489.93 3379.86 4502.62 3381.51C4515.32 3383.15 4528.1 3386.21 4540.76 3384.36C4553.42 3382.5 4566.31 3374.05 4568.31 3361.41C4569.67 3352.81 4565.76 3344.18 4560.6 3337.16C4550.77 3323.8 4535.59 3314.1 4519.09 3312.38C4502.59 3310.67 4485.09 3317.54 4475.37 3330.98C4472.89 3334.41 4470.85 3338.27 4467.52 3340.89C4461.52 3345.61 4453.12 3345.07 4445.53 3345.82C4420.32 3348.33 4397.7 3368.48 4396.45 3394.55C4396.01 3403.67 4399.28 3412.72 4407.32 3417.66C4417.79 3424.09 4430.92 3422.99 4440.09 3414.93C4449.57 3406.58 4454.84 3394.18 4465.49 3387.03Z" fill="#203075"/>
<path d="M5131.23 2795.4L5725.07 2620.21L5875.4 2609.82L5250.12 2790.74L5131.23 2795.4ZM5725.9 2626.92L5185.15 2786.53L5249.04 2784.03L5812.72 2620.92L5725.9 2626.92Z" fill="#203075"/>
<path d="M5722.23 2627.17L5721.93 2623.88L5595.61 1205.82L5721.21 1197.12L5721.51 1200.42L5847.73 2618.5L5722.23 2627.17ZM5602.95 1212.08L5728.37 2619.98L5840.39 2612.24L5715.07 1204.32L5602.95 1212.08Z" fill="#203075"/>
<path d="M5725.3 2623.57L5130.82 2795.59L5004.81 1380.97L5599.28 1208.95L5725.3 2623.57Z" fill="#4182C4"/>
<mask id="mask16_11_455" style="mask-type:luminance" maskUnits="userSpaceOnUse" x="5004" y="1208" width="722" height="1588">
<path d="M5725.3 2623.57L5130.82 2795.59L5004.81 1380.97L5599.28 1208.95L5725.3 2623.57Z" fill="white"/>
</mask>
<g mask="url(#mask16_11_455)">
<path d="M5388.77 2823.68C5333.2 2811.05 5297.61 2759.75 5282.84 2715.96C5267.27 2669.77 5266.45 2620.02 5265.65 2571.92L5265.49 2562.1C5263.14 2430.88 5249.66 2281.74 5167.41 2170.5C5147.78 2143.95 5124.23 2119.63 5101.46 2096.12C5071.01 2064.68 5039.52 2032.17 5016.85 1993.79C4966.45 1908.43 4964.23 1804.28 4966.28 1704.92C4968.56 1594.37 4974.66 1477.71 5020.92 1373.3C5037.8 1335.19 5059.99 1299.11 5081.45 1264.22C5104.92 1226.06 5129.19 1186.61 5146.36 1144.66C5178.03 1067.29 5181.62 963.189 5118.25 905.052L5122.82 900.073C5153.14 927.888 5171.11 967.923 5174.8 1015.85C5178.02 1057.74 5170.14 1104.39 5152.61 1147.22C5135.23 1189.68 5110.82 1229.37 5087.21 1267.76C5065.86 1302.46 5043.79 1338.34 5027.09 1376.03C4981.35 1479.3 4975.3 1595.2 4973.04 1705.05C4971.01 1803.45 4973.17 1906.52 5022.67 1990.36C5044.93 2028.05 5076.13 2060.26 5106.31 2091.42C5129.24 2115.09 5152.95 2139.57 5172.84 2166.48C5256.22 2279.26 5269.88 2429.69 5272.24 2561.98L5272.41 2571.81C5273.19 2619.4 5274 2668.61 5289.24 2713.8C5303.43 2755.86 5337.42 2805.08 5390.27 2817.09L5388.77 2823.68Z" fill="#273D90"/>
</g>
<mask id="mask17_11_455" style="mask-type:luminance" maskUnits="userSpaceOnUse" x="5004" y="1208" width="722" height="1588">
<path d="M5725.3 2623.57L5130.82 2795.59L5004.81 1380.97L5599.28 1208.95L5725.3 2623.57Z" fill="white"/>
</mask>
<g mask="url(#mask17_11_455)">
<path d="M6006.22 2941.7C5907.57 2936.67 5811.55 2892.37 5735.84 2816.98C5660.14 2741.59 5615.44 2645.76 5609.99 2547.13C5607.34 2499.13 5613.06 2450.66 5618.59 2403.79C5622.35 2371.91 5626.24 2338.94 5627.45 2306.47C5634.39 2120.24 5548.8 1931.62 5404.08 1814.21C5387.2 1800.52 5369.12 1787.34 5351.63 1774.6C5303.84 1739.8 5254.44 1703.8 5223.2 1652.82C5197.9 1611.53 5184.18 1559.51 5182.42 1498.2C5180.19 1420.71 5197.87 1341.61 5233.53 1269.47C5269.2 1197.33 5321.32 1135.27 5384.25 1089.99L5388.2 1095.47C5260.93 1187.04 5184.67 1341.29 5189.17 1498.01C5190.9 1558.12 5204.29 1609.02 5228.96 1649.29C5259.5 1699.13 5308.36 1734.72 5355.61 1769.14C5373.17 1781.94 5391.33 1795.17 5408.34 1808.97C5554.67 1927.68 5641.22 2118.41 5634.21 2306.72C5632.99 2339.46 5629.08 2372.56 5625.3 2404.58C5619.8 2451.17 5614.12 2499.35 5616.74 2546.76C5627.81 2746.95 5806.33 2924.73 6006.56 2934.96L6006.22 2941.7Z" fill="#273D90"/>
</g>
<path d="M1859.45 3943.11L2132.81 3387.58L2227 3269.95L1936.57 3852.49L1936.3 3852.8L1859.45 3943.11ZM2138.32 3391.52L1889.45 3897.43L1930.89 3848.74L2192.71 3323.58L2138.32 3391.52Z" fill="#203075"/>
<path d="M2136.02 3394.39L1004.63 2524.76L1083.31 2426.47L1085.94 2428.49L2214.65 3296.19L2136.02 3394.39ZM1014.22 2523.61L2134.88 3385L2205.07 3297.34L1084.45 2435.86L1014.22 2523.61Z" fill="#203075"/>
<path d="M2135.45 3389.69L1859.32 3943.54L733.294 3078.03L1009.43 2524.19L2135.45 3389.69Z" fill="#4182C4"/>
<mask id="mask18_11_455" style="mask-type:luminance" maskUnits="userSpaceOnUse" x="733" y="2524" width="1403" height="1420">
<path d="M2135.45 3389.69L1859.32 3943.54L733.294 3078.03L1009.43 2524.19L2135.45 3389.69Z" fill="white"/>
</mask>
<g mask="url(#mask18_11_455)">
<path d="M1980.23 3794.48C1952.66 3794.48 1925.56 3787.49 1903.71 3777.77C1859.18 3757.94 1822.03 3724.85 1786.1 3692.84L1778.77 3686.31C1680.65 3599.16 1561.8 3508.06 1424.25 3493.21C1391.43 3489.66 1357.59 3490.52 1324.86 3491.35C1281.11 3492.45 1235.86 3493.6 1192.27 3484.27C1095.34 3463.53 1017.22 3394.61 945.513 3325.8C865.736 3249.24 784.043 3165.73 738.561 3060.98C721.964 3022.76 710.454 2981.99 699.324 2942.56C687.154 2899.45 674.569 2854.88 655.34 2813.83C619.87 2738.12 545.713 2664.97 460.031 2672.2L459.463 2665.47C500.458 2662.01 542.085 2675.91 579.842 2705.66C612.838 2731.66 641.824 2769.06 661.458 2810.97C680.923 2852.51 693.582 2897.35 705.828 2940.73C716.898 2979.94 728.343 3020.48 744.76 3058.29C789.742 3161.89 870.909 3244.84 950.191 3320.92C1021.2 3389.06 1098.49 3457.3 1193.69 3477.66C1236.49 3486.82 1281.33 3485.69 1324.69 3484.59C1357.64 3483.76 1391.7 3482.89 1424.98 3486.49C1564.42 3501.54 1684.34 3593.39 1783.26 3681.26L1790.6 3687.79C1826.14 3719.45 1862.89 3752.19 1906.46 3771.59C1947.01 3789.65 2006.24 3797.98 2050.88 3767.24L2054.71 3772.8C2032.06 3788.4 2005.94 3794.48 1980.23 3794.48Z" fill="#273D90"/>
</g>
<mask id="mask19_11_455" style="mask-type:luminance" maskUnits="userSpaceOnUse" x="733" y="2524" width="1403" height="1420">
<path d="M2135.45 3389.69L1859.32 3943.54L733.294 3078.03L1009.43 2524.19L2135.45 3389.69Z" fill="white"/>
</mask>
<g mask="url(#mask19_11_455)">
<path d="M2264.64 3513.38C2165.45 3513.38 2072.52 3481.55 2001.11 3422.73C1964 3392.17 1932.22 3355.13 1901.48 3319.31C1880.58 3294.95 1858.97 3269.76 1835.9 3246.87C1703.6 3115.62 1506.86 3050.83 1322.46 3077.76C1300.96 3080.9 1279.02 3085.28 1257.8 3089.52C1199.82 3101.09 1139.88 3113.06 1081.21 3101.51C1033.71 3092.15 986.145 3067.01 939.845 3026.77C881.328 2975.92 835.115 2909.34 806.204 2834.24C777.293 2759.13 766.934 2678.75 776.25 2601.79L782.958 2602.6C764.122 2758.25 825.936 2918.83 944.278 3021.67C989.673 3061.12 1036.18 3085.75 1082.52 3094.88C1139.87 3106.17 1199.15 3094.34 1256.48 3082.89C1277.78 3078.64 1299.81 3074.24 1321.49 3071.07C1507.94 3043.83 1706.88 3109.36 1840.66 3242.07C1863.92 3265.15 1885.62 3290.44 1906.61 3314.91C1937.16 3350.51 1968.75 3387.33 2005.41 3417.52C2160.18 3544.98 2411.88 3534.07 2555.04 3393.69L2559.77 3398.52C2489.24 3467.67 2391.62 3508.31 2284.88 3512.94C2278.11 3513.23 2271.36 3513.38 2264.64 3513.38Z" fill="#273D90"/>
</g>
<path d="M3889.1 4190.85L3883.01 4202.91L5044.11 4789.64L5050.21 4777.58L3889.1 4190.85Z" fill="#273D90"/>
<path d="M3798.56 5734.09C3798.3 5734.09 3798.04 5734.07 3797.78 5734.04C3794.07 5733.62 3791.41 5730.27 3791.84 5726.56L3904.34 4747.01C3904.77 4743.3 3908.13 4740.65 3911.82 4741.07C3915.53 4741.49 3918.19 4744.84 3917.76 4748.55L3805.26 5728.1C3804.87 5731.54 3801.95 5734.09 3798.56 5734.09Z" fill="#273D90"/>
<path d="M3427.31 3059.88C3424.38 3059.88 3421.69 3057.96 3420.83 3055.01C3419.78 3051.43 3421.84 3047.68 3425.42 3046.63L3542.49 3012.5C3546.07 3011.46 3549.83 3013.52 3550.87 3017.1C3551.92 3020.68 3549.86 3024.43 3546.28 3025.47L3429.2 3059.61C3428.57 3059.79 3427.94 3059.88 3427.31 3059.88Z" fill="#273D90"/>
<path d="M1615.36 5221.13H2515.75C2501.25 5156.97 2501.25 5090.38 2515.75 5026.22H1615.36C1600.86 5090.38 1600.86 5156.97 1615.36 5221.13Z" stroke="#203075" stroke-width="7.0388" stroke-miterlimit="10"/>
<path d="M1579.35 5016.97H2479.74C2465.24 4952.81 2465.24 4886.23 2479.74 4822.06H1579.35C1564.84 4886.23 1564.84 4952.81 1579.35 5016.97Z" stroke="#203075" stroke-width="7.0388" stroke-miterlimit="10"/>
<path d="M1579.35 4608.66H2479.74C2465.24 4544.5 2465.24 4477.91 2479.74 4413.75H1579.35C1564.84 4477.91 1564.84 4544.5 1579.35 4608.66Z" stroke="#203075" stroke-width="7.0388" stroke-miterlimit="10"/>
<path d="M1661.67 4812.82H2562.06C2547.56 4748.66 2547.56 4682.07 2562.06 4617.91H1661.67C1647.17 4682.07 1647.17 4748.66 1661.67 4812.82Z" stroke="#203075" stroke-width="7.0388" stroke-miterlimit="10"/>
<path d="M7941.75 3138.6C7878.18 3171.87 7816.8 3209.35 7758.15 3250.69C7697.29 3293.59 7634.26 3350.14 7631.05 3424.55C7628.28 3488.63 7671.23 3544.83 7714.08 3592.56C7756.92 3640.29 7804.19 3690.4 7813.34 3753.88C7821.63 3811.47 7795.63 3869.93 7756.41 3912.9C7717.19 3955.88 7665.88 3985.72 7614.44 4012.9C7553.01 4045.37 7482.8 4084.26 7469.87 4152.53C7467.74 4163.75 7467.35 4175.29 7464.47 4186.34C7458.71 4208.44 7443.49 4226.8 7427.32 4242.93C7346.59 4323.48 7229.96 4366.62 7116.24 4357.99C7002.53 4349.37 6893.74 4289.14 6826.07 4197.34C6782.38 4138.07 6755.33 4063.85 6764.2 3990.75C6774.34 3907.22 6829.87 3834.81 6897.09 3784.19C6939.11 3752.56 6986.12 3727.78 7026.68 3694.29C7036.72 3686 7046.49 3677.1 7058.24 3671.48C7068.13 3666.75 7079.01 3664.56 7089.65 3661.89C7140.15 3649.2 7187.62 3624.66 7227.16 3590.79C7244.36 3576.07 7260.34 3559.21 7269.92 3538.71C7285.81 3504.71 7282.34 3465.37 7283.77 3427.87C7285.58 3380.67 7296.02 3333.2 7319.24 3292.07C7361.73 3216.78 7440.27 3171.68 7515.02 3133.82C7545.52 3118.38 7571.98 3116.22 7605.9 3117.28C7659.1 3118.95 7712.28 3121.48 7765.41 3124.77C7795.12 3126.61 7824.82 3128.69 7854.5 3131.02C7869.05 3132.17 7883.6 3133.37 7898.14 3134.63C7905.55 3135.27 7912.97 3135.93 7920.38 3136.61C7924.88 3137.02 7937.91 3140.61 7941.75 3138.6Z" fill="white" stroke="#203075" stroke-width="2.8892" stroke-miterlimit="10"/>
<path d="M7601.13 2994.11C7606.13 2998.91 7603.32 3007.24 7600.1 3013.37C7567.53 3075.44 7523.78 3131.03 7489.84 3192.36C7455.9 3253.7 7431.62 3324.18 7443.16 3393.32C7455.66 3468.18 7508.14 3531.24 7523.6 3605.54C7543.23 3699.81 7500.33 3795.96 7446.68 3875.92C7409.5 3931.35 7366.62 3982.95 7318.93 4029.65C7241.29 4105.67 7149.15 4171.02 7097.14 4266.43C7021.31 4055.19 6842.75 3900.14 6669.31 3757.7C6627.91 3723.71 6582.83 3682.95 6581.44 3629.4C6580.75 3602.52 6591.62 3576.7 6604.36 3553.02C6644.43 3478.5 6703.88 3416.63 6759.7 3353.05C6807.73 3298.36 6853.55 3241.71 6897 3183.32C6922.84 3148.59 6948.28 3107.34 6988.43 3087.47C7028.45 3067.66 7078.27 3065.49 7121.65 3058.8C7196.83 3047.2 7272.11 3036.28 7347.48 3026.02C7422.57 3015.81 7497.75 3006.27 7573.01 2997.4C7582.39 2996.29 7591.76 2995.19 7601.13 2994.11Z" fill="white" stroke="#203075" stroke-width="2.8892" stroke-miterlimit="10"/>
<path d="M7047.76 2861.6C7047.76 2861.6 7068.5 3248.82 7213.71 3518.49C7358.91 3788.15 7269.02 4126.97 7269.02 4126.97L6148.86 4355.15C6148.86 4355.15 6023.72 3909.07 5893.01 3725.92C5773.79 3558.87 5761.64 3331.79 5761.64 3331.79L7047.76 2861.6Z" fill="#4182C4"/>
<mask id="mask20_11_455" style="mask-type:luminance" maskUnits="userSpaceOnUse" x="5761" y="2861" width="1536" height="1495">
<path d="M7047.76 2861.6C7047.76 2861.6 7068.5 3248.82 7213.71 3518.49C7358.91 3788.15 7269.02 4126.97 7269.02 4126.97L6148.86 4355.15C6148.86 4355.15 6023.72 3909.07 5893.01 3725.92C5773.79 3558.87 5761.64 3331.79 5761.64 3331.79L7047.76 2861.6Z" fill="white"/>
</mask>
<g mask="url(#mask20_11_455)">
<path d="M5677.05 3406.08C5710.96 3282.19 5835.96 3199.04 5963.21 3181.56C6090.46 3164.07 6219.02 3200.94 6337.93 3249.51C6456.84 3298.07 6571.35 3358.88 6695.17 3393.05C6929.17 3457.62 7177.83 3422.65 7419.86 3441.35C7469.65 3445.2 7520.26 3451.61 7565.45 3472.86C7610.64 3494.11 7650.18 3532.53 7661.45 3581.18C7674.48 3637.38 7648.2 3695.58 7613.62 3741.76C7567.08 3803.9 7502.25 3854.58 7426.87 3873.14C7348.69 3892.39 7266.71 3876.24 7187.59 3861.34C6848.54 3797.48 6502.89 3757.08 6158.56 3778.97C5991.76 3789.57 5818.17 3817.86 5684.23 3917.84C5591.68 3986.93 5525.39 4084.93 5442.22 4165.07C5372.59 4232.15 5287.43 4288 5191.7 4301.54C5095.97 4315.08 4989.26 4278.52 4938.98 4195.94C4933.39 4186.75 4928.42 4176.73 4927.96 4165.98C4927.32 4150.97 4935.47 4137.11 4943.94 4124.7C4993.67 4051.96 5065.24 3994.36 5146.92 3961.32C5258.44 3916.22 5383.56 3917.53 5502.54 3935.23C5698.86 3964.43 5887.88 4036.02 6085.56 4053.86C6295.17 4072.78 6507.57 4030.55 6716.2 4058.24C6960.1 4090.62 7180.48 4215.59 7393.84 4338.11" stroke="#273D90" stroke-width="2.8892" stroke-miterlimit="10"/>
</g>
<path d="M8202.5 4355.15C8202.5 4355.15 8105.69 4327.5 7870.6 4133.89C7635.5 3940.28 7296.53 4123.08 7296.53 4123.08L6148.86 4355.15C6148.86 4355.15 6688.2 4286.01 6805.75 4431.21C6923.29 4576.42 6909.46 4617.91 6909.46 4617.91L8202.5 4355.15Z" fill="#4182C4"/>
<mask id="mask21_11_455" style="mask-type:luminance" maskUnits="userSpaceOnUse" x="6148" y="4044" width="2055" height="574">
<path d="M8202.5 4355.15C8202.5 4355.15 8105.69 4327.5 7870.6 4133.89C7635.5 3940.28 7296.53 4123.08 7296.53 4123.08L6148.86 4355.15C6148.86 4355.15 6688.2 4286.01 6805.75 4431.21C6923.29 4576.42 6909.46 4617.91 6909.46 4617.91L8202.5 4355.15Z" fill="white"/>
</mask>
<g mask="url(#mask21_11_455)">
<path d="M6392.49 4598.38C6361.8 4545.71 6390.61 4474.23 6440.18 4438.75C6489.75 4403.26 6553.45 4395.32 6614.3 4391.57C7143 4358.94 7657.43 4557.62 8184.85 4606.79C8337.19 4620.99 8493.62 4622.27 8639.97 4577.65C8671.76 4567.96 8706.59 4552.55 8717.41 4521.13C8724.97 4499.2 8718.51 4474.97 8709.52 4453.58C8672.38 4365.28 8593.44 4299.55 8506.14 4260.1C8418.84 4220.65 8322.96 4204.67 8227.95 4192.38C8047.37 4169.02 7861.02 4158 7685.66 4207.03C7612.14 4227.59 7541.13 4258.56 7465.53 4269.18C7393.68 4279.27 7320.64 4270.56 7248.76 4260.75C7076.74 4237.27 6903.83 4207.47 6730.6 4218.92C6557.37 4230.37 6380.08 4288.13 6261.17 4414.62" stroke="#273D90" stroke-width="2.8892" stroke-miterlimit="10"/>
</g>
<path d="M7276.39 4093.81L7296.53 4123.08L6148.86 4382.37V4355.15L7276.39 4093.81Z" fill="#203075"/>
<path d="M5250.87 5956.28C5250.87 5956.28 5181.52 5977.37 5208.08 6057.77L5271.5 6063.75" fill="#4182C4"/>
</svg>
