<?xml version="1.0" encoding="utf-8"?>
<!-- Generator: Adobe Illustrator 25.2.0, SVG Export Plug-In . SVG Version: 6.00 Build 0)  -->
<svg version="1.1" id="Layer_1" xmlns="http://www.w3.org/2000/svg" xmlns:xlink="http://www.w3.org/1999/xlink" x="0px" y="0px"
	 viewBox="0 0 8192 8192" style="enable-background:new 0 0 8192 8192;" xml:space="preserve">
<style type="text/css">
	.st0{display:none;}
	.st1{display:inline;opacity:0.1;}
	.st2{fill:#273D90;}
	.st3{display:inline;}
	.st4{fill:#FFFFFF;}
	.st5{fill:#203075;}
	.st6{clip-path:url(#SVGID_4_);}
	.st7{clip-path:url(#SVGID_8_);}
	.st8{clip-path:url(#SVGID_12_);}
	.st9{clip-path:url(#SVGID_16_);}
	.st10{clip-path:url(#SVGID_20_);}
	.st11{clip-path:url(#SVGID_22_);}
	.st12{clip-path:url(#SVGID_24_);}
	.st13{clip-path:url(#SVGID_26_);}
	.st14{clip-path:url(#SVGID_28_);}
	.st15{fill:#3F81C3;}
	.st16{fill:#E5134E;}
	.st17{clip-path:url(#SVGID_30_);}
	.st18{clip-path:url(#SVGID_32_);}
	.st19{clip-path:url(#SVGID_34_);}
	.st20{clip-path:url(#SVGID_36_);}
	.st21{fill:none;}
	.st22{clip-path:url(#SVGID_38_);}
	.st23{clip-path:url(#SVGID_40_);}
	.st24{clip-path:url(#SVGID_42_);}
	.st25{fill:#1D1D1B;}
	.st26{display:inline;enable-background:new    ;}
	.st27{clip-path:url(#SVGID_44_);}
	.st28{clip-path:url(#SVGID_46_);}
	.st29{clip-path:url(#SVGID_48_);}
	.st30{clip-path:url(#SVGID_50_);}
	.st31{clip-path:url(#SVGID_52_);}
	.st32{clip-path:url(#SVGID_54_);}
	.st33{opacity:0.1;fill:#273D90;enable-background:new    ;}
	.st34{clip-path:url(#SVGID_56_);fill:none;stroke:#273D90;stroke-width:4.5477;stroke-miterlimit:5.6889;}
	.st35{clip-path:url(#SVGID_58_);fill:none;stroke:#273D90;stroke-width:4.5477;stroke-miterlimit:5.6889;}
	.st36{clip-path:url(#SVGID_60_);fill:none;stroke:#273D90;stroke-width:4.5477;stroke-miterlimit:5.6889;}
	.st37{clip-path:url(#SVGID_62_);fill:none;stroke:#273D90;stroke-width:4.5477;stroke-miterlimit:5.6889;}
	.st38{clip-path:url(#SVGID_64_);fill:none;stroke:#273D90;stroke-width:4.5477;stroke-miterlimit:5.6889;}
	.st39{clip-path:url(#SVGID_66_);fill:none;stroke:#273D90;stroke-width:4.5477;stroke-miterlimit:5.6889;}
	.st40{clip-path:url(#SVGID_68_);fill:none;stroke:#273D90;stroke-width:4.5477;stroke-miterlimit:5.6889;}
	.st41{clip-path:url(#SVGID_70_);fill:none;stroke:#273D90;stroke-width:4.5477;stroke-miterlimit:5.6889;}
	.st42{clip-path:url(#SVGID_72_);fill:none;stroke:#273D90;stroke-width:4.5477;stroke-miterlimit:5.6889;}
	.st43{fill:#4182C4;}
	.st44{clip-path:url(#SVGID_74_);fill:none;stroke:#273D90;stroke-width:4.5477;stroke-miterlimit:5.6889;}
	.st45{clip-path:url(#SVGID_76_);fill:none;stroke:#273D90;stroke-width:4.5477;stroke-miterlimit:5.6889;}
	.st46{fill:#FFFFFF;stroke:#273D90;stroke-width:4.5477;stroke-miterlimit:5.6889;}
	.st47{clip-path:url(#SVGID_78_);fill:#4182C4;stroke:#273D90;stroke-width:8.9988;stroke-linecap:round;stroke-miterlimit:5.6889;}
	.st48{clip-path:url(#SVGID_80_);fill:none;stroke:#273D90;stroke-width:8.9988;stroke-linecap:round;stroke-miterlimit:5.6889;}
	.st49{clip-path:url(#SVGID_82_);fill:none;stroke:#273D90;stroke-width:8.9988;stroke-linecap:round;stroke-miterlimit:5.6889;}
	.st50{clip-path:url(#SVGID_84_);fill:#4182C4;stroke:#273D90;stroke-width:8.9988;stroke-linecap:round;stroke-miterlimit:5.6889;}
	.st51{clip-path:url(#SVGID_86_);fill:none;stroke:#273D90;stroke-width:8.9988;stroke-linecap:round;stroke-miterlimit:5.6889;}
	.st52{enable-background:new    ;}
	.st53{clip-path:url(#SVGID_88_);}
	.st54{clip-path:url(#SVGID_90_);}
	.st55{clip-path:url(#SVGID_92_);}
	.st56{clip-path:url(#SVGID_94_);}
	.st57{fill:none;stroke:#203075;stroke-width:9.0955;stroke-miterlimit:5.6889;}
	.st58{fill:#FFFFFF;stroke:#203075;stroke-width:3.7334;stroke-miterlimit:5.6889;}
	.st59{clip-path:url(#SVGID_96_);fill:none;stroke:#273D90;stroke-width:3.7334;stroke-miterlimit:5.6889;}
	.st60{clip-path:url(#SVGID_98_);fill:none;stroke:#273D90;stroke-width:3.7334;stroke-miterlimit:5.6889;}
	.st61{fill:none;stroke:#273D90;stroke-width:11.3572;stroke-linecap:round;stroke-linejoin:round;stroke-miterlimit:10;}
</style>
<g class="st0">
	<g class="st1">
		<path class="st2" d="M4963.192,3272.595c-71.072-154.645-212.394-275.306-376.269-321.257
			c-75.844-21.267-157.805-28.084-224.587-69.855c-60.232-37.674-100.589-99.16-147.008-152.943
			c-97.132-112.542-232.479-197.557-380.557-210.724c-148.077-13.167-306.552,55.167-379.059,184.948
			c-136.202,243.789,60.823,582.654-90.734,817.206c-49.205,76.15-127.925,127.136-195.033,188.099
			c-160.323,145.639-258.094,362.957-242.865,579.02c15.228,216.062,150.057,423.864,348.584,510.476
			c110.867,48.369,235.295,58.897,355.826,48.744c97.576-8.22,206.221-26.725,284.934,31.525
			c57.607,42.632,82.653,115.923,98.755,185.756c32.738,141.977,44.28,295.042,127.27,414.801
			c91.71,132.342,259.485,198.762,420.465,195.461c160.979-3.3,315.358-68.403,450.998-155.162
			c61.371-39.254,121.676-85.21,156.276-149.321c39.854-73.844,40.585-162.104,35.07-245.834
			c-10.124-153.691-38.422-307.371-98.18-449.331c-37.414-88.879-86.917-172.699-117.823-264.046
			c-53.057-156.816-48.003-325.44-31.432-487.966c6.009-58.937,6.284-121.494,18.971-179.468
			c16.22-74.118,38.707-142.047,39.351-219.059C5016.868,3437.476,4999.22,3350.989,4963.192,3272.595z"/>
	</g>
	<g class="st3">
		<path class="st4" d="M4582.287,5670.103c-78.542,0.001-156.51-16.28-226.226-47.317c-37.811-16.833-72.579-37.782-103.341-62.267
			c-32.218-25.643-59.982-55.136-82.52-87.659c-28.874-41.667-51.725-91.246-69.858-151.57
			c-16.11-53.593-27.049-110.368-37.63-165.272c-6.312-32.756-12.838-66.625-20.371-99.292
			c-14.436-62.605-38.541-140.042-97.289-183.518c-68.781-50.9-160.604-42.199-249.406-33.786
			c-10.84,1.027-22.048,2.089-32.906,3.004c-136.405,11.491-256.75-5.012-357.695-49.052
			c-48.956-21.359-95.066-50.471-137.051-86.528c-40.621-34.887-76.836-75.783-107.639-121.55
			c-30.434-45.221-55.003-94.32-73.024-145.932c-18.224-52.194-29.388-105.938-33.179-159.735
			c-3.757-53.309-0.72-107.846,9.029-162.098c9.465-52.67,25.235-105.026,46.874-155.612
			c42.775-100.001,107.861-191.443,188.219-264.442c19.068-17.322,39.367-34.086,58.998-50.298
			c49.379-40.78,100.439-82.949,135.388-137.038c76.71-118.718,62.954-267.898,49.65-412.166
			c-6.429-69.717-13.076-141.808-9.639-210.152c1.856-36.9,6.421-69.738,13.956-100.391c8.478-34.488,20.463-65.328,36.64-94.284
			c35.186-62.978,91.521-114.049,162.916-147.689c33.797-15.925,69.909-27.392,107.333-34.084
			c37.532-6.711,75.391-8.44,112.523-5.138c71.708,6.376,142.687,29.454,210.963,68.593c31.839,18.252,62.831,39.941,92.116,64.464
			c28.448,23.823,55.384,50.399,80.06,78.991c11.136,12.902,22.087,26.449,32.679,39.55
			c33.512,41.452,68.166,84.315,113.453,112.642c46.712,29.218,102.213,41.406,155.886,53.192
			c22.34,4.906,45.441,9.979,67.697,16.219c80.941,22.696,158.538,64.417,224.4,120.651
			c65.863,56.234,119.23,126.33,154.335,202.713c35.609,77.483,54.042,164.871,53.306,252.717
			c-0.49,58.645-13.3,111.036-26.861,166.503c-4.24,17.348-8.626,35.286-12.579,53.349c-8.568,39.156-11.478,81.026-14.292,121.518
			c-1.319,18.979-2.682,38.604-4.61,57.516c-15.264,149.704-23.488,324.556,31.249,486.336
			c18.611,55.007,44.48,108.276,69.498,159.792c16.419,33.807,33.396,68.765,48.226,103.994
			c28.534,67.784,51.387,142.129,67.923,220.971c14.923,71.15,25.202,148.399,30.551,229.604
			c2.323,35.263,4.361,81.599-0.535,127.291c-5.02,46.85-16.465,86.311-34.989,120.633
			c-36.27,67.203-100.019,113.912-157.595,150.74c-156.992,100.417-309.402,152.826-453,155.77
			C4590.044,5670.063,4586.16,5670.103,4582.287,5670.103z M3796.373,4825.301c10.822,0,21.561,0.338,32.169,1.125
			c49.573,3.679,89.187,16.95,121.107,40.572c26.995,19.977,48.626,47.492,66.129,84.116
			c13.368,27.971,24.201,60.979,34.093,103.877c7.564,32.803,14.104,66.743,20.429,99.566
			c21.072,109.352,42.861,222.426,106.252,313.903c83.336,120.258,237.918,193.911,405.476,193.92c3.914,0,7.807-0.04,11.734-0.121
			c142.156-2.915,293.221-54.914,448.996-154.554c56.742-36.294,119.525-82.25,154.958-147.9
			c39.687-73.537,40.09-160.608,34.614-243.747c-11.326-171.951-43.345-318.52-97.886-448.085
			c-14.75-35.037-31.681-69.901-48.054-103.617c-25.123-51.73-51.101-105.221-69.867-160.69
			c-55.211-163.181-46.965-339.065-31.616-489.596c1.916-18.788,3.275-38.351,4.589-57.268
			c2.832-40.769,5.761-82.927,14.451-122.634c3.973-18.155,8.37-36.139,12.623-53.533c13.451-55.018,26.156-106.986,26.64-164.732
			c0.727-86.718-17.463-172.968-52.601-249.425c-70.805-154.063-210.543-273.372-373.8-319.15
			c-22.043-6.181-45.034-11.23-67.268-16.112c-54.315-11.927-110.479-24.261-158.326-54.188
			c-46.384-29.013-81.451-72.388-115.364-114.335c-10.553-13.053-21.465-26.551-32.52-39.359
			c-104.435-121.005-242.201-197.328-377.974-209.4c-155.626-13.839-306.465,59.698-375.344,182.984
			c-66.028,118.185-52.8,261.629-40.008,400.349c6.703,72.688,13.634,147.851,9.028,218.366
			c-2.487,38.064-8.039,71.787-16.977,103.097c-10.05,35.204-24.083,66.477-42.906,95.606
			c-35.598,55.092-87.126,97.647-136.958,138.802c-19.561,16.156-39.789,32.861-58.723,50.061
			c-166.071,150.86-256.392,366.145-241.609,575.888c15.49,219.773,154.647,423.604,346.275,507.207
			c99.756,43.521,218.845,59.817,353.957,48.436c10.818-0.912,22.006-1.972,32.826-2.997
			C3728.417,4828.556,3762.78,4825.301,3796.373,4825.301z"/>
	</g>
	<g class="st3">
		<rect x="3335.639" y="3996.525" class="st5" width="1353.046" height="7.727"/>
	</g>
	<g class="st3">
		<g>
			<polygon id="SVGID_1_" class="st4" points="4089.038,3533.388 4415.461,3527.431 4395.209,3903.891 4043.767,3824.072 			"/>
		</g>
		<g>
			<defs>
				<polygon id="SVGID_2_" points="4089.038,3533.388 4415.461,3527.431 4395.209,3903.891 4043.767,3824.072 				"/>
			</defs>
			<clipPath id="SVGID_4_">
				<use xlink:href="#SVGID_2_"  style="overflow:visible;"/>
			</clipPath>
			<g class="st6">
				<path class="st2" d="M3956.254,3806.113c-1.485,0-2.981-0.048-4.495-0.148l0.127-1.927
					c43.456,2.853,74.996-37.725,86.543-55.306c6.922-10.539,13.183-21.832,19.239-32.753c11.333-20.44,23.052-41.576,39.574-58.618
					c6.217-6.412,13.231-12.384,20.015-18.158c14.598-12.428,29.693-25.279,37.066-42.907c3.632-8.684,5.463-18.607,7.234-28.204
					c3.22-17.451,6.55-35.497,20.999-45.68l1.112,1.579c-13.805,9.729-16.917,26.595-20.211,44.452
					c-1.789,9.697-3.639,19.723-7.351,28.599c-7.551,18.054-22.825,31.057-37.596,43.632c-6.749,5.746-13.728,11.686-19.879,18.032
					c-16.343,16.858-28,37.88-39.272,58.21c-6.072,10.952-12.352,22.277-19.313,32.877
					C4028.71,3767.048,3998.379,3806.113,3956.254,3806.113z"/>
			</g>
		</g>
		<g>
			<defs>
				<polygon id="SVGID_6_" points="4089.038,3533.388 4415.461,3527.431 4395.209,3903.891 4043.767,3824.072 				"/>
			</defs>
			<clipPath id="SVGID_8_">
				<use xlink:href="#SVGID_6_"  style="overflow:visible;"/>
			</clipPath>
			<g class="st7">
				<path class="st2" d="M3961.155,3946.825c-4.185,0-8.454-0.511-12.76-1.67l0.502-1.865c25.126,6.76,49.212-9.412,61.334-19.653
					c32.522-27.478,52.047-66.893,70.93-105.011c17.797-35.927,36.199-73.078,65.517-100.629
					c8.864-8.329,18.738-15.77,28.289-22.965c11.086-8.354,22.551-16.992,32.408-27.018c22.255-22.636,36.63-52.476,50.531-81.332
					c17.185-35.675,34.955-72.564,67.67-95.182l1.099,1.589c-32.295,22.328-49.953,58.983-67.029,94.432
					c-13.969,28.999-28.414,58.984-50.893,81.848c-9.958,10.128-21.48,18.81-32.624,27.206c-9.508,7.165-19.34,14.573-28.127,22.83
					c-29.064,27.313-47.389,64.305-65.11,100.079c-18.97,38.294-38.585,77.892-71.414,105.63
					C4001.125,3933.859,3982.219,3946.825,3961.155,3946.825z"/>
			</g>
		</g>
		<g>
			<defs>
				<polygon id="SVGID_10_" points="4089.038,3533.388 4415.461,3527.431 4395.209,3903.891 4043.767,3824.072 				"/>
			</defs>
			<clipPath id="SVGID_12_">
				<use xlink:href="#SVGID_10_"  style="overflow:visible;"/>
			</clipPath>
			<g class="st8">
				<path class="st2" d="M4071.994,4037.707l-0.102-1.929c18.877-0.994,33.166-17.216,43.505-31.238
					c36.224-49.127,61.618-105.994,86.176-160.989c18.584-41.617,37.8-84.651,61.629-124.226
					c5.423-9.007,11.199-18.026,16.784-26.747c14.322-22.363,29.132-45.486,39.253-70.406c5.109-12.579,9.212-26.018,13.18-39.014
					c8.843-28.963,17.987-58.912,38.853-81.152l1.409,1.322c-20.559,21.912-29.636,51.643-38.414,80.394
					c-3.98,13.037-8.096,26.516-13.238,39.176c-10.189,25.085-25.047,48.285-39.417,70.721c-5.579,8.71-11.347,17.718-16.756,26.701
					c-23.768,39.474-42.96,82.454-61.521,124.018c-24.599,55.088-50.037,112.053-86.386,161.348
					C4106.361,4020.051,4091.679,4036.671,4071.994,4037.707z"/>
			</g>
		</g>
		<g>
			<defs>
				<polygon id="SVGID_14_" points="4089.038,3533.388 4415.461,3527.431 4395.209,3903.891 4043.767,3824.072 				"/>
			</defs>
			<clipPath id="SVGID_16_">
				<use xlink:href="#SVGID_14_"  style="overflow:visible;"/>
			</clipPath>
			<g class="st9">
				<path class="st2" d="M4207.338,4108.336l-1.433-1.295c25.379-28.057,31.343-67.06,37.109-104.78
					c2.672-17.477,5.435-35.549,10.082-52.471c7.941-28.921,21.999-56.01,35.593-82.206c7.856-15.137,15.979-30.79,22.837-46.632
					c18.527-42.792,28.936-90.05,30.103-136.665l1.931,0.048c-1.172,46.861-11.636,94.367-30.261,137.384
					c-6.886,15.905-15.024,31.587-22.895,46.754c-13.548,26.107-27.558,53.104-35.446,81.828
					c-4.617,16.814-7.371,34.829-10.035,52.251C4239.114,4040.554,4233.107,4079.849,4207.338,4108.336z"/>
			</g>
		</g>
	</g>
	<g class="st3">
		<g>
			<polygon id="SVGID_3_" class="st4" points="4089.038,3527.431 3938.93,3367.793 4067.594,3075.918 3886.512,3055.666 
				3720.917,3422.594 3892.468,3682.303 4071.167,3799.054 4209.361,3695.408 4118.82,3542.918 			"/>
		</g>
		<g>
			<defs>
				<polygon id="SVGID_18_" points="4089.038,3527.431 3938.93,3367.793 4067.594,3075.918 3886.512,3055.666 3720.917,3422.594 
					3892.468,3682.303 4071.167,3799.054 4209.361,3695.408 4118.82,3542.918 				"/>
			</defs>
			<clipPath id="SVGID_20_">
				<use xlink:href="#SVGID_18_"  style="overflow:visible;"/>
			</clipPath>
			<g class="st10">
				<path class="st2" d="M3729.09,3342.057l-1.931-0.033c0.363-21.1,8.585-41.638,24.441-61.044
					c13.142-16.085,31.555-31.211,53.249-43.744c12.521-7.233,25.765-13.806,38.573-20.163
					c27.171-13.486,55.266-27.43,77.636-48.327c6.178-5.771,12.021-12.174,17.672-18.365c10.385-11.38,21.124-23.147,34.386-31.489
					c27.058-17.02,59.982-17.493,91.823-17.952c16.795-0.242,34.162-0.491,50.592-3.135c36.795-5.921,70.822-24.407,95.811-52.054
					l1.434,1.295c-25.283,27.972-59.71,46.676-96.938,52.666c-16.569,2.666-34.007,2.917-50.871,3.16
					c-33.028,0.475-64.224,0.924-90.823,17.656c-13.04,8.203-23.69,19.871-33.988,31.156c-5.677,6.22-11.545,12.651-17.78,18.475
					c-22.576,21.09-50.8,35.099-78.095,48.646c-12.781,6.343-25.996,12.903-38.465,20.106
					C3783.052,3252.058,3730.011,3288.431,3729.09,3342.057z"/>
			</g>
		</g>
		<g>
			<defs>
				<polygon id="SVGID_21_" points="4089.038,3527.431 3938.93,3367.793 4067.594,3075.918 3886.512,3055.666 3720.917,3422.594 
					3892.468,3682.303 4071.167,3799.054 4209.361,3695.408 4118.82,3542.918 				"/>
			</defs>
			<clipPath id="SVGID_22_">
				<use xlink:href="#SVGID_21_"  style="overflow:visible;"/>
			</clipPath>
			<g class="st11">
				<path class="st2" d="M3751.906,3595.205l-1.623-1.049c17.09-26.428,22.052-59.06,26.852-90.619
					c5.448-35.823,11.082-72.866,34.635-100.385c9.891-11.555,22.482-20.727,34.659-29.596
					c14.729-10.728,29.959-21.821,40.106-37.053c4.192-6.293,7.495-13.286,10.69-20.048c2.018-4.274,4.106-8.693,6.407-12.919
					c14.368-26.387,37.903-47.508,69.95-62.777c26.656-12.701,59.451-21.234,94.84-24.677c2.861-0.279,5.75-0.542,8.656-0.807
					c29.593-2.697,60.193-5.487,80.856-25.49l1.343,1.387c-21.152,20.477-52.098,23.298-82.024,26.026
					c-2.902,0.264-5.787,0.527-8.644,0.806c-45.827,4.459-127.977,21.621-163.281,86.456c-2.275,4.177-4.35,8.571-6.357,12.82
					c-3.224,6.826-6.558,13.883-10.829,20.294c-10.338,15.519-25.71,26.716-40.577,37.544c-12.087,8.804-24.586,17.908-34.33,29.291
					c-23.194,27.099-28.786,63.864-34.192,99.419C3774.215,3535.588,3769.221,3568.429,3751.906,3595.205z"/>
			</g>
		</g>
		<g>
			<defs>
				<polygon id="SVGID_23_" points="4089.038,3527.431 3938.93,3367.793 4067.594,3075.918 3886.512,3055.666 3720.917,3422.594 
					3892.468,3682.303 4071.167,3799.054 4209.361,3695.408 4118.82,3542.918 				"/>
			</defs>
			<clipPath id="SVGID_24_">
				<use xlink:href="#SVGID_23_"  style="overflow:visible;"/>
			</clipPath>
			<g class="st12">
				<path class="st2" d="M3888.978,3698.555c-6.723-24.7-7.736-51.492-2.929-77.478c4.806-25.987,15.335-50.643,30.448-71.305
					c1.918-2.622,3.968-5.3,5.95-7.889c11.004-14.372,22.383-29.233,21.214-46.589c-0.38-5.651-2.16-11.23-3.881-16.626
					c-1.817-5.698-3.697-11.59-4-17.692c-0.982-19.804,14.613-36.152,29.535-44.848c9.101-5.303,19.087-9.103,28.745-12.779
					c7.377-2.808,15.004-5.711,22.159-9.256c29.661-14.703,53.251-42.349,63.104-73.954l1.844,0.575
					c-4.94,15.846-13.396,31.073-24.454,44.032c-11.058,12.959-24.764,23.706-39.636,31.077c-7.238,3.587-14.91,6.508-22.33,9.331
					c-9.585,3.648-19.496,7.42-28.459,12.643c-14.432,8.41-29.518,24.144-28.578,43.083c0.29,5.85,2.13,11.62,3.91,17.201
					c1.756,5.506,3.572,11.199,3.968,17.083c1.218,18.082-10.385,33.237-21.607,47.893c-1.976,2.582-4.02,5.25-5.926,7.856
					c-30.235,41.338-40.663,97.717-27.213,147.135L3888.978,3698.555z"/>
			</g>
		</g>
		<g>
			<defs>
				<polygon id="SVGID_25_" points="4089.038,3527.431 3938.93,3367.793 4067.594,3075.918 3886.512,3055.666 3720.917,3422.594 
					3892.468,3682.303 4071.167,3799.054 4209.361,3695.408 4118.82,3542.918 				"/>
			</defs>
			<clipPath id="SVGID_26_">
				<use xlink:href="#SVGID_25_"  style="overflow:visible;"/>
			</clipPath>
			<g class="st13">
				<path class="st2" d="M3983.445,3732.576l-1.929-0.107c1.901-34.373,6.029-68.967,12.27-102.822
					c3.196-17.34,7.472-37.214,17.806-53.633c6.462-10.268,15.14-19.01,23.532-27.465c4.15-4.181,8.441-8.504,12.402-12.951
					c35.031-39.327,49.138-93.053,61.584-140.455l1.868,0.49c-12.501,47.611-26.67,101.576-62.009,141.25
					c-3.995,4.486-8.305,8.828-12.473,13.027c-8.318,8.38-16.919,17.046-23.268,27.133c-10.153,16.129-14.377,35.791-17.542,52.955
					C3989.46,3663.772,3985.342,3698.284,3983.445,3732.576z"/>
			</g>
		</g>
		<g>
			<defs>
				<polygon id="SVGID_27_" points="4089.038,3527.431 3938.93,3367.793 4067.594,3075.918 3886.512,3055.666 3720.917,3422.594 
					3892.468,3682.303 4071.167,3799.054 4209.361,3695.408 4118.82,3542.918 				"/>
			</defs>
			<clipPath id="SVGID_28_">
				<use xlink:href="#SVGID_27_"  style="overflow:visible;"/>
			</clipPath>
			<g class="st14">
				<path class="st2" d="M3992.746,3853.073l-0.374-1.895c36.588-7.222,60.536-39.946,71.555-58.809
					c8.684-14.865,15.688-30.957,22.463-46.52c5.835-13.406,11.869-27.269,18.967-40.337c20.625-37.975,46.292-85.236,50.891-125.06
					l1.918,0.222c-4.641,40.195-30.408,87.638-51.112,125.76c-7.058,12.995-13.075,26.819-18.894,40.187
					c-6.796,15.613-13.824,31.759-22.566,46.723C4054.412,3812.488,4030.078,3845.704,3992.746,3853.073z"/>
			</g>
		</g>
	</g>
	<g class="st3">
		<polygon class="st5" points="4137.882,4000.388 3984.201,4000.388 4018.75,3849.685 4154.561,3916.995 		"/>
	</g>
	<g class="st3">
		<polygon class="st15" points="3676.838,4142.156 3676.838,4206.339 3900.808,4237.016 3974.67,4189.585 3979.435,4142.156 		"/>
	</g>
	<g class="st3">
		<polygon class="st15" points="4350.771,5175.491 4321.032,5363.045 4095.022,5358.269 4029.499,5299.857 4043.893,5206.442 		"/>
	</g>
	<g class="st3">
		<g>
			<path class="st5" d="M4029.646,5273.613l-24.185,190.831l-4.432,35.031l101.626,22.375c5.369-11.068,17.664-17.479,30.068-14.749
				c12.404,2.731,20.833,13.706,21.095,26.013l397.338,87.479l5.638-25.606c0.641-2.912,1.217-5.877,1.703-8.784
				c4.233-24.663,3.33-49.127-1.933-72.203c-4.875-21.503-13.593-41.856-25.532-60.022c-8.193-12.567-17.971-24.073-29.087-34.231
				c-22.498-20.686-50.504-35.814-82.379-42.832l-23.051-8.011c-1.754-0.621-3.5-1.279-5.177-2.079
				c-16.327-7.352-28.699-21.621-33.705-39.2l-7.468-26.026c-0.962-3.343-2.754-6.242-5.146-8.53
				c-2.436-2.258-5.432-3.896-8.783-4.634c-1.73-0.38-3.494,0.444-4.379,2.011l-13.191,23.982
				c-8.605,15.6-26.04,23.972-43.368,20.822l-182.442-33.396c-11.869-2.182-22.137-9.531-28.111-20.083l-1.475-2.594
				c-4.365-7.693-11.759-13.196-20.336-15.083C4036.639,5262.707,4030.454,5267.138,4029.646,5273.613z"/>
		</g>
		<g>
			<path class="st16" d="M4005.461,5464.443l-4.432,35.031l101.626,22.375c5.369-11.068,17.664-17.479,30.068-14.749
				c12.404,2.731,20.832,13.706,21.094,26.013l397.338,87.479l5.638-25.606c0.641-2.912,1.217-5.877,1.702-8.784L4005.461,5464.443z
				"/>
		</g>
		<g>
			<path class="st4" d="M4426.081,5483.863c21.167-22.344,41.241-52.875,75.863-64.116c-22.498-20.686-50.504-35.814-82.379-42.832
				l-23.051-8.011c-1.754-0.621-3.5-1.279-5.177-2.079c-23.853,8.251-56.066,24.68-75.884,56.675
				C4280.929,5479.341,4397.879,5513.621,4426.081,5483.863z"/>
			<path class="st16" d="M4391.466,5498.71c-3.691,0-7.543-0.21-11.532-0.638c-20.697-2.221-41.398-9.971-55.375-20.731
				c-9.416-7.25-15.469-15.465-17.992-24.418c-2.877-10.209-0.993-20.792,5.599-31.455c20.423-32.972,53.639-49.899,77.907-58.294
				c0.959-0.331,2.01-0.273,2.927,0.165c1.603,0.765,3.328,1.402,4.802,1.924l22.816,7.93c31.369,6.948,60.391,22.06,83.94,43.711
				c1.01,0.93,1.453,2.326,1.16,3.667c-0.293,1.341-1.276,2.427-2.582,2.851c-26.41,8.576-43.968,28.738-60.949,48.236
				c-4.551,5.225-8.85,10.161-13.303,14.862c0,0,0,0,0,0C4421.37,5494.45,4408.061,5498.71,4391.466,5498.71z M4391.157,5370.982
				c-22.94,8.149-53.592,24.156-72.42,54.553c-13.006,21.038-1.45,36.456,10.536,45.684c12.897,9.93,32.144,17.097,51.485,19.171
				c19.219,2.061,35.114-1.372,42.518-9.184c4.342-4.584,8.589-9.46,13.084-14.623c15.591-17.903,33.105-38.017,58.176-48.237
				c-21.698-18.513-47.775-31.487-75.803-37.658c-0.149-0.033-0.295-0.074-0.438-0.124l-23.052-8.011
				C4393.992,5372.109,4392.587,5371.595,4391.157,5370.982z M4426.081,5483.863h0.005H4426.081z"/>
		</g>
		<g>
			<path class="st4" d="M4476.685,5505.375c-2.789,23.534,22.079,35.036,38.695,40.024c7.634,2.308,15.897-0.688,20.146-7.541
				c4.486-7.231,11.544-16.675,21.037-23.86c-4.875-21.503-13.593-41.856-25.532-60.022
				C4516.283,5459.967,4479.932,5477.481,4476.685,5505.375z"/>
			<path class="st16" d="M4520.522,5550.025c-2.082,0-4.188-0.301-6.26-0.926c-29.045-8.722-43.755-24.411-41.414-44.177
				c3.477-29.831,40.83-48.067,56.73-54.523c1.706-0.694,3.668-0.084,4.681,1.457c12.334,18.767,21.105,39.387,26.07,61.29
				c0.336,1.48-0.226,3.019-1.436,3.935c-9.24,6.993-16.023,16.268-20.086,22.816
				C4534.832,5546.31,4527.834,5550.024,4520.522,5550.025z M4529.538,5458.791c-7.042,3.039-17.942,8.367-27.655,15.747
				c-12.898,9.8-20.084,20.325-21.36,31.284c0,0.003,0,0.006,0,0.008c-2.496,21.063,21.464,31.515,35.969,35.87
				c6.006,1.815,12.481-0.602,15.751-5.876c4.116-6.635,10.835-15.87,19.999-23.341
				C4547.645,5493.406,4540.019,5475.37,4529.538,5458.791z M4476.685,5505.375h0.005H4476.685z"/>
		</g>
		<g>
			<path class="st4" d="M4240.334,5364.496c-2.315,0-4.686-0.03-7.121-0.096c-24.141-0.649-49.089-4.607-74.153-11.765
				c-31.268-8.929-62.807-22.89-93.741-41.496c-1.797-1.08-2.377-3.413-1.296-5.208c1.08-1.796,3.412-2.376,5.209-1.296
				c68.503,41.202,126.854,51.109,163.743,52.165c39.953,1.143,64.05-7.559,64.288-7.647c1.964-0.725,4.147,0.278,4.875,2.243
				c0.727,1.965-0.273,4.146-2.237,4.875C4298.942,5356.626,4277.292,5364.496,4240.334,5364.496z"/>
		</g>
	</g>
	<g class="st3">
		<polyline class="st5" points="4306.198,3715.661 4340.692,3903.891 4396.715,3875.887 		"/>
	</g>
	<g class="st3">
		<path class="st4" d="M4382.104,3880.064c0,0-486.685-260.839-550.394-216.822c-131.046,90.541-154.873,478.913-154.873,478.913
			s231.117,45.271,334.763,0l28.592-240.648l81.01,97.689l71.987,248.987l-158.888,1019.819l315.702-86.712l192.929-838.993
			l-79.819-394.329L4382.104,3880.064z"/>
	</g>
	<g class="st3">
		<g>
			<polygon id="SVGID_5_" class="st4" points="4415.461,3527.431 4561.995,3825.263 4436.905,4171.939 4285.606,4163.6 
				4371.718,3840.75 4300.434,3704.657 			"/>
		</g>
		<g>
			<defs>
				<polygon id="SVGID_29_" points="4415.461,3527.431 4561.995,3825.263 4436.905,4171.939 4285.606,4163.6 4371.718,3840.75 
					4300.434,3704.657 				"/>
			</defs>
			<clipPath id="SVGID_30_">
				<use xlink:href="#SVGID_29_"  style="overflow:visible;"/>
			</clipPath>
			<g class="st17">
				<path class="st2" d="M4254.076,4010.451c-8.011,0-15.748-0.778-23.203-2.336l0.395-1.89
					c30.979,6.475,67.028-0.767,107.147-21.524c64.479-33.36,105.601-85.071,110-138.328c2.875-34.785-9.23-68.744-20.936-101.585
					c-10.46-29.344-21.275-59.688-21.691-90.936c-0.302-22.667,5.259-45.698,16.083-66.604
					c10.822-20.906,26.419-38.741,45.103-51.578l1.094,1.592c-37.262,25.603-60.951,71.357-60.348,116.564
					c0.412,30.928,11.173,61.117,21.58,90.313c11.774,33.034,23.95,67.192,21.042,102.392c-2.401,29.059-14.78,56.837-36.795,82.561
					c-19,22.202-44.673,42.025-74.243,57.323C4308.394,4002.408,4279.833,4010.451,4254.076,4010.451z"/>
			</g>
		</g>
		<g>
			<defs>
				<polygon id="SVGID_31_" points="4415.461,3527.431 4561.995,3825.263 4436.905,4171.939 4285.606,4163.6 4371.718,3840.75 
					4300.434,3704.657 				"/>
			</defs>
			<clipPath id="SVGID_32_">
				<use xlink:href="#SVGID_31_"  style="overflow:visible;"/>
			</clipPath>
			<g class="st18">
				<path class="st2" d="M4185.554,4194.395l-1.596-1.089c25.079-36.738,70.696-51.85,112.011-61.786
					c4.47-1.076,9.051-2.146,13.481-3.183c37.835-8.849,76.958-17.999,106.634-42.684c30.487-25.36,50.261-66.764,60.451-126.578
					c2.202-12.928,4.004-26.204,5.747-39.043c4.639-34.179,9.436-69.522,22.278-102.071c9.185-23.278,23.596-44.718,40.576-60.369
					c19.082-17.587,41.078-27.749,63.611-29.388l0.14,1.927c-51.366,3.735-87.336,50.03-102.53,88.539
					c-12.757,32.331-17.538,67.556-22.161,101.622c-1.744,12.855-3.548,26.147-5.756,39.108
					c-4.682,27.483-11.107,50.392-19.643,70.035c-10.476,24.109-24.43,43.523-41.477,57.703
					c-30.027,24.977-69.376,34.18-107.429,43.08c-4.427,1.035-9.005,2.106-13.471,3.179
					C4255.464,4143.248,4210.263,4158.198,4185.554,4194.395z"/>
			</g>
		</g>
	</g>
	<g class="st3">
		<path class="st2" d="M4436.907,4173.871c-0.035,0-0.072-0.001-0.107-0.002l-153.671-8.471l86.53-324.418l-70.934-135.427
			c-0.495-0.945-0.13-2.112,0.815-2.607c0.944-0.495,2.112-0.13,2.607,0.815l71.633,136.76l-0.195,0.727l-85.498,320.554
			l148.925,8.209c1.066,0.059,1.881,0.97,1.823,2.035C4438.777,4173.074,4437.925,4173.871,4436.907,4173.871z"/>
	</g>
	<g class="st3">
		<polygon class="st15" points="4282.032,4177.598 4259.397,4204.403 4259.397,4235.08 		"/>
	</g>
	<g class="st3">
		<g>
			<path class="st4" d="M4241.233,4997.172h211.454c101.683,0,178.411-92.294,159.839-192.266l-41.598-223.935
				c0-50.995-119.037-262.808-170.032-262.808h-107.873c-50.995,0-170.032,211.813-170.032,262.808l-41.598,223.935
				C4062.823,4904.878,4139.55,4997.172,4241.233,4997.172z"/>
			<path class="st2" d="M4452.687,4998.138h-211.453c-48.754,0-94.59-21.502-125.759-58.992
				c-31.167-37.49-43.935-86.483-35.031-134.416l41.583-223.848c0.067-24.754,27.817-88.193,66.033-150.939
				c19.364-31.795,38.784-58.948,56.161-78.527c20.151-22.705,36.571-34.217,48.804-34.217h107.873
				c12.233,0,28.652,11.512,48.803,34.217c17.376,19.579,36.796,46.732,56.161,78.527c38.215,62.746,65.965,126.186,66.033,150.939
				l41.583,223.848c8.904,47.933-3.864,96.926-35.031,134.416C4547.278,4976.636,4501.44,4998.138,4452.687,4998.138z
				 M4293.023,4319.129c-11.492,0-27.869,11.607-47.359,33.568c-17.301,19.494-36.65,46.552-55.955,78.249
				c-17.864,29.332-34.356,60.526-46.438,87.838c-12.455,28.155-19.314,50.24-19.314,62.186l-0.016,0.177l-41.598,223.934
				c-8.799,47.368,3.819,95.782,34.618,132.829c30.8,37.047,76.095,58.295,124.272,58.295h211.453
				c48.178,0,93.474-21.248,124.272-58.295c30.799-37.047,43.417-85.461,34.618-132.829l-41.614-224.021v-0.088
				c0-11.947-6.86-34.032-19.314-62.187c-12.082-27.312-28.574-58.507-46.438-87.838c-19.306-31.697-38.654-58.755-55.955-78.25
				c-19.49-21.961-35.867-33.568-47.359-33.568L4293.023,4319.129L4293.023,4319.129z"/>
		</g>
		<g>
			<path class="st5" d="M4255.847,4950.246h182.226c87.628,0,153.751-79.537,137.747-165.691l-35.849-192.982
				c0-43.947-102.583-226.483-146.53-226.483h-92.963c-43.947,0-146.531,182.537-146.531,226.483l-35.849,192.982
				C4102.096,4870.709,4168.218,4950.246,4255.847,4950.246z"/>
		</g>
		<g>
			<rect x="4257.854" y="4449.76" class="st4" width="183.028" height="7.727"/>
		</g>
		<g>
			<path class="st4" d="M4495.319,4859.62h-7.727v-5.969c0-48.995-39.86-88.854-88.854-88.854h-96.331
				c-48.995,0-88.854,39.86-88.854,88.854v5.969h-7.727v-5.969c0-25.695,10.074-49.921,28.368-68.213
				c18.292-18.293,42.518-28.368,68.214-28.368h96.331c25.695,0,49.92,10.075,68.213,28.368
				c18.293,18.292,28.368,42.518,28.368,68.213V4859.62L4495.319,4859.62z"/>
		</g>
	</g>
	<g class="st3">
		<path class="st16" d="M4448.684,4408.702c-3.983,0-7.963-1.529-10.986-4.584c-6.003-6.067-5.951-15.851,0.117-21.854
			c18.254-18.061,28.308-40.826,28.308-64.102c0-55.945-56.269-101.459-125.43-101.459c-69.162,0-125.43,45.515-125.43,101.459
			c0,22.984,9.326,44.685,26.968,62.754c5.962,6.106,5.845,15.89-0.261,21.852c-6.105,5.961-15.89,5.846-21.852-0.261
			c-23.061-23.619-35.761-53.572-35.761-84.346c0-18.245,4.292-35.917,12.756-52.525c8.056-15.806,19.526-29.949,34.093-42.036
			c29.377-24.379,68.26-37.804,109.488-37.804s80.111,13.426,109.488,37.804c14.566,12.087,26.036,26.23,34.092,42.036
			c8.464,16.607,12.756,34.28,12.756,52.525c0,31.593-13.31,62.161-37.477,86.071
			C4456.54,4407.214,4452.61,4408.702,4448.684,4408.702z"/>
	</g>
	<g class="st3">
		<path class="st2" d="M4481.577,4424.318c-1.092,0-2.177-0.461-2.941-1.356l-57.774-67.732c-1.385-1.624-1.191-4.062,0.432-5.447
			c1.624-1.385,4.062-1.191,5.447,0.432l57.774,67.732c1.385,1.624,1.191,4.062-0.432,5.447
			C4483.354,4424.015,4482.463,4424.318,4481.577,4424.318z"/>
	</g>
	<g class="st3">
		<path class="st2" d="M4209.688,4424.318c-0.887,0-1.778-0.303-2.505-0.924c-1.624-1.385-1.816-3.824-0.432-5.447l57.774-67.732
			c1.385-1.624,3.823-1.817,5.447-0.432c1.624,1.385,1.816,3.824,0.432,5.447l-57.774,67.732
			C4211.864,4423.857,4210.779,4424.318,4209.688,4424.318z"/>
	</g>
	<g class="st3">
		<g>
			<path id="SVGID_7_" class="st15" d="M4285.606,4163.6l-28.592,73.862l37.824,72.969l30.975-18.466l7.446,8.042l25.315-19.657
				l10.425,11.317l20.848-19.061l11.913,10.424l14.579-15.338c11.664-12.273,13.853-30.762,5.376-45.419l0,0l15.189-50.333
				L4285.606,4163.6z"/>
		</g>
		<g>
			<defs>
				<path id="SVGID_33_" d="M4285.606,4163.6l-28.592,73.862l37.824,72.969l30.975-18.466l7.446,8.042l25.315-19.657l10.425,11.317
					l20.848-19.061l11.913,10.424l14.579-15.338c11.664-12.273,13.853-30.762,5.376-45.419l0,0l15.189-50.333L4285.606,4163.6z"/>
			</defs>
			<clipPath id="SVGID_34_">
				<use xlink:href="#SVGID_33_"  style="overflow:visible;"/>
			</clipPath>
			<g class="st19">
				<polyline class="st15" points="4301.689,4226.145 4294.244,4238.653 4333.26,4300.007 				"/>
				<path class="st2" d="M4333.262,4301.918c-0.632,0-1.25-0.313-1.615-0.886L4292,4238.687l8.048-13.52
					c0.539-0.908,1.714-1.204,2.619-0.665c0.907,0.54,1.205,1.713,0.665,2.619l-6.844,11.498l38.385,60.362
					c0.566,0.89,0.303,2.072-0.587,2.638C4333.967,4301.822,4333.613,4301.918,4333.262,4301.918z"/>
			</g>
		</g>
		<g>
			<defs>
				<path id="SVGID_35_" d="M4285.606,4163.6l-28.592,73.862l37.824,72.969l30.975-18.466l7.446,8.042l25.315-19.657l10.425,11.317
					l20.848-19.061l11.913,10.424l14.579-15.338c11.664-12.273,13.853-30.762,5.376-45.419l0,0l15.189-50.333L4285.606,4163.6z"/>
			</defs>
			<clipPath id="SVGID_36_">
				<use xlink:href="#SVGID_35_"  style="overflow:visible;"/>
			</clipPath>
			<g class="st20">
				<line class="st21" x1="4330.282" y1="4230.612" x2="4369.894" y2="4294.646"/>
				<path class="st2" d="M4369.895,4296.557c-0.64,0-1.266-0.321-1.626-0.905l-39.612-64.034c-0.556-0.898-0.277-2.075,0.62-2.631
					c0.898-0.555,2.076-0.278,2.63,0.62l39.612,64.034c0.556,0.898,0.278,2.075-0.619,2.63
					C4370.585,4296.465,4370.238,4296.557,4369.895,4296.557z"/>
			</g>
		</g>
		<g>
			<defs>
				<path id="SVGID_37_" d="M4285.606,4163.6l-28.592,73.862l37.824,72.969l30.975-18.466l7.446,8.042l25.315-19.657l10.425,11.317
					l20.848-19.061l11.913,10.424l14.579-15.338c11.664-12.273,13.853-30.762,5.376-45.419l0,0l15.189-50.333L4285.606,4163.6z"/>
			</defs>
			<clipPath id="SVGID_38_">
				<use xlink:href="#SVGID_37_"  style="overflow:visible;"/>
			</clipPath>
			<g class="st22">
				<line class="st21" x1="4357.384" y1="4228.23" x2="4405.037" y2="4289.285"/>
				<path class="st2" d="M4405.038,4291.196c-0.568,0-1.13-0.252-1.507-0.735l-47.654-61.056c-0.649-0.833-0.501-2.033,0.331-2.683
					c0.833-0.649,2.032-0.501,2.683,0.331l47.653,61.056c0.65,0.833,0.501,2.033-0.331,2.683
					C4405.864,4291.064,4405.45,4291.196,4405.038,4291.196z"/>
			</g>
		</g>
		<g>
			<defs>
				<path id="SVGID_39_" d="M4285.606,4163.6l-28.592,73.862l37.824,72.969l30.975-18.466l7.446,8.042l25.315-19.657l10.425,11.317
					l20.848-19.061l11.913,10.424l14.579-15.338c11.664-12.273,13.853-30.762,5.376-45.419l0,0l15.189-50.333L4285.606,4163.6z"/>
			</defs>
			<clipPath id="SVGID_40_">
				<use xlink:href="#SVGID_39_"  style="overflow:visible;"/>
			</clipPath>
			<g class="st23">
				<polyline class="st15" points="4389.34,4200.36 4411.888,4238.356 4423.801,4219.89 				"/>
				<path class="st2" d="M4411.819,4241.987l-24.123-40.651c-0.539-0.908-0.24-2.081,0.667-2.619c0.909-0.538,2.081-0.24,2.62,0.668
					l20.972,35.341l10.239-15.871c0.573-0.887,1.755-1.142,2.643-0.57c0.887,0.572,1.142,1.755,0.57,2.643L4411.819,4241.987z"/>
			</g>
		</g>
		<g>
			<defs>
				<path id="SVGID_41_" d="M4285.606,4163.6l-28.592,73.862l37.824,72.969l30.975-18.466l7.446,8.042l25.315-19.657l10.425,11.317
					l20.848-19.061l11.913,10.424l14.579-15.338c11.664-12.273,13.853-30.762,5.376-45.419l0,0l15.189-50.333L4285.606,4163.6z"/>
			</defs>
			<clipPath id="SVGID_42_">
				<use xlink:href="#SVGID_41_"  style="overflow:visible;"/>
			</clipPath>
			<g class="st24">
				<line class="st21" x1="4276.541" y1="4191.545" x2="4257.015" y2="4244.015"/>
				<path class="st2" d="M4257.015,4245.926c-0.222,0-0.447-0.039-0.667-0.121c-0.988-0.368-1.493-1.468-1.125-2.458l19.526-52.47
					c0.368-0.989,1.468-1.492,2.457-1.125c0.989,0.368,1.493,1.468,1.125,2.458l-19.526,52.47
					C4258.52,4245.451,4257.79,4245.926,4257.015,4245.926z"/>
			</g>
		</g>
	</g>
	<g class="st3">
		<path class="st15" d="M3886.512,3055.666l7.148-86.372l-10.703-84.014c-0.683-5.365,2.877-10.351,8.173-11.447l0,0
			c4.641-0.96,9.34,1.353,11.411,5.616l25.638,52.785c0.334,0.689,1.365,0.49,1.42-0.273l6.753-94.014
			c0.446-6.208,5.612-11.016,11.836-11.016l0,0c5.69,0,10.58,4.04,11.653,9.628l17.789,92.606c0.357,1.857,1.981,3.199,3.872,3.199
			l0,0c1.908,0,3.542-1.365,3.88-3.242l16.546-91.519c1.117-6.178,6.496-10.672,12.774-10.672l0,0
			c7.17,0,12.981,5.812,12.981,12.981v97.173c0,1.505,0.816,2.892,2.132,3.622l0,0c1.84,1.022,4.155,0.502,5.381-1.209
			l53.469-66.914c2.605-3.637,7.489-4.801,11.455-2.732l0,0c3.911,2.04,5.761,6.618,4.366,10.802l-43.446,130.336l2.978,1.191
			c0,0,43.519-36.605,65.358-28.483c7.433,2.764,9.398,12.477,3.747,18.038c-7.359,7.241-16.382,19.578-19.069,25.336
			c-8.339,17.87-46.461,48.844-46.461,48.844L3886.512,3055.666z"/>
	</g>
	<g class="st3">
		<path class="st15" d="M4239.724,3544.231l-0.31,0.155c-20.475,13.212-45.431,13.135-65.907-0.155l13.367-51.304h39.482
			l4.636,17.694L4239.724,3544.231z"/>
	</g>
	<g class="st3">
		<path class="st25" d="M4230.993,3510.622c-3.477,7.649-11.204,12.98-20.166,12.98c-12.131,0-22.021-9.89-22.021-22.021
			c0-3.091,0.618-6.027,1.777-8.654h35.773L4230.993,3510.622z"/>
	</g>
	<g class="st3">
		<path class="st15" d="M4229.602,3485.431v9.581c0,0.309,0,0.541-0.078,0.85c-0.386,12.285-10.585,22.175-22.948,22.175
			c-7.803,0-14.757-3.94-18.853-10.044c-2.549-3.709-4.095-8.19-4.095-12.98v-9.581c0-6.336,2.626-12.053,6.722-16.225
			c4.172-4.173,9.967-6.723,16.226-6.723C4219.248,3462.484,4229.602,3472.838,4229.602,3485.431z"/>
	</g>
	<g class="st3">
		<path class="st5" d="M3976.524,4184.084l-17.658,191.568l-3.249,35.164h-105.531c-2.904-11.963-13.683-20.869-26.564-20.869
			c-12.881,0-23.621,8.905-26.564,20.869h-412.604v-26.22c0-2.982,0.076-6.001,0.229-8.944c1.185-24.997,7.415-48.695,17.659-70.099
			c9.517-19.951,22.589-37.954,38.375-53.128c10.855-10.511,23.047-19.646,36.272-27.176c26.793-15.365,57.829-24.118,90.929-24.118
			l24.577-2.867c1.873-0.229,3.746-0.498,5.581-0.917c17.773-3.669,33.138-14.945,41.929-31.036l13.072-23.812
			c1.682-3.058,4.09-5.504,6.957-7.224c2.905-1.682,6.23-2.638,9.708-2.638c1.797,0,3.364,1.185,3.899,2.905l7.835,26.258
			c5.122,17.085,20.563,29.011,38.413,29.66l187.974,6.613c12.231,0.42,24.003-4.548,32.221-13.568l2.026-2.217
			c6-6.575,14.524-10.358,23.43-10.358C3971.975,4171.93,3977.136,4177.587,3976.524,4184.084z"/>
	</g>
	<g class="st3">
		<path class="st16" d="M3958.865,4375.652l-3.249,35.164h-105.531c-2.904-11.963-13.683-20.869-26.564-20.869
			c-12.881,0-23.621,8.905-26.564,20.869h-412.604v-26.22c0-2.982,0.076-6.001,0.229-8.944H3958.865z"/>
	</g>
	<g class="st3">
		<path class="st4" d="M3538.044,4304.178c-16.092-26.373-29.317-60.505-61.155-78.928c26.794-15.365,57.829-24.118,90.929-24.118
			l24.577-2.867c1.873-0.229,3.746-0.497,5.581-0.917c21.824,13.187,50.147,36.158,62.799,71.666
			C3682.79,4330.971,3559.486,4339.304,3538.044,4304.178z"/>
		<path class="st16" d="M3594.341,4328.711c-4.424,0-8.865-0.227-13.26-0.689c-22.416-2.358-39.304-10.315-46.334-21.832v0
			c-3.386-5.549-6.566-11.292-9.933-17.373c-12.567-22.696-25.562-46.164-49.859-60.223c-1.196-0.692-1.931-1.97-1.929-3.351
			c0.003-1.382,0.743-2.657,1.942-3.344c28.032-16.076,60.057-24.592,92.626-24.631l24.355-2.84c1.553-0.19,3.401-0.441,5.165-0.845
			c0.976-0.226,2.003-0.061,2.861,0.459c22.201,13.415,51.402,37.085,64.44,73.676c4.16,11.708,3.776,22.354-1.143,31.643
			c-4.317,8.153-11.914,14.864-22.581,19.948C3627.905,4325.401,3611.253,4328.711,3594.341,4328.711z M3541.342,4302.165
			c12.112,19.841,64.163,25.354,96.024,10.168c13.538-6.452,27.957-18.98,19.769-42.026c-12.023-33.747-38.914-55.977-59.866-68.867
			c-1.563,0.295-3.074,0.497-4.404,0.66l-24.598,2.869c-0.148,0.017-0.298,0.026-0.448,0.026c-29.117,0-57.781,7.063-83.317,20.48
			c22.58,15.369,35.537,38.769,47.071,59.599C3534.899,4291.082,3538.041,4296.756,3541.342,4302.165L3541.342,4302.165z"/>
	</g>
	<g class="st3">
		<path class="st4" d="M3483.234,4314.307c-2.37,23.583-29.507,29.469-47.051,30.769c-8.064,0.612-15.594-4.09-18.308-11.696
			c-2.867-8.026-7.798-18.767-15.633-27.826c9.517-19.952,22.59-37.954,38.375-53.129
			C3453.918,4261.445,3486.101,4286.366,3483.234,4314.307z"/>
		<path class="st16" d="M3434.788,4348.992c-9.176,0-17.479-5.701-20.552-14.315c-2.595-7.265-7.29-17.779-14.916-26.596
			c-1.004-1.16-1.225-2.806-0.565-4.19c9.694-20.322,22.877-38.575,39.184-54.25c1.315-1.265,3.335-1.438,4.846-0.413
			c14.338,9.723,47.356,35.566,44.292,65.467c-1.992,19.804-19.966,31.963-50.61,34.232
			C3435.906,4348.971,3435.344,4348.992,3434.788,4348.992z M3406.806,4304.998c7.441,9.264,12.077,19.721,14.707,27.082
			c2.093,5.868,8.003,9.621,14.377,9.143c15.339-1.136,41.378-6.193,43.5-27.302c0-0.002,0-0.005,0-0.008
			c1.125-10.964-3.697-22.78-14.329-35.119c-8.04-9.329-17.713-16.897-24.025-21.375
			C3427.024,4271.362,3415.525,4287.346,3406.806,4304.998z"/>
	</g>
	<g class="st3">
		<path class="st4" d="M3810.82,4234.081c-19.208,0-37.868-1.697-55.693-5.074c-41.124-7.79-63.33-21.683-64.255-22.27
			c-1.782-1.132-2.309-3.494-1.177-5.276c1.131-1.781,3.49-2.309,5.272-1.179v0c0.217,0.138,22.187,13.821,62.02,21.298
			c36.774,6.902,96.743,9.775,173.591-15.739c2.005-0.665,4.167,0.419,4.832,2.423s-0.42,4.167-2.423,4.832
			c-34.69,11.518-68.965,18.37-101.874,20.366C3824.291,4233.873,3817.521,4234.081,3810.82,4234.081z"/>
	</g>
	<g class="st3">
		<path class="st5" d="M4202.291,3473.023c3.038-2.039,6.989-2.049,10.618-1.579s7.284,1.345,10.905,0.814
			c3.62-0.53,7.303-2.945,7.875-6.559c0.39-2.461-0.728-4.929-2.204-6.935c-2.811-3.819-7.149-6.593-11.867-7.084
			c-4.717-0.491-9.721,1.475-12.502,5.317c-0.709,0.98-1.293,2.086-2.243,2.833c-1.716,1.35-4.117,1.195-6.29,1.411
			c-7.207,0.718-13.674,6.479-14.031,13.932c-0.125,2.607,0.809,5.195,3.106,6.607c2.993,1.839,6.749,1.525,9.368-0.78
			C4197.738,3478.613,4199.246,3475.068,4202.291,3473.023z"/>
	</g>
	<g class="st26">
		<g>
			<g>
				<path class="st5" d="M4392.636,3303.865l169.79-50.091l42.984-2.97l-178.776,51.73l-0.118,0.004L4392.636,3303.865z
					 M4562.664,3255.693l-154.61,45.635l18.267-0.715l161.167-46.635L4562.664,3255.693z"/>
			</g>
		</g>
		<g>
			<g>
				<path class="st5" d="M4561.614,3255.766l-0.084-0.943l-36.116-405.448l35.912-2.488l0.084,0.943l36.089,405.456
					L4561.614,3255.766z M4527.512,2851.165l35.857,402.542l32.029-2.213l-35.83-402.55L4527.512,2851.165z"/>
			</g>
		</g>
		<g>
			<g>
				<polygon id="SVGID_9_" class="st16" points="4562.492,3254.737 4392.521,3303.919 4356.491,2899.453 4526.462,2850.271 				"/>
			</g>
			<g>
				<defs>
					<polygon id="SVGID_43_" points="4562.492,3254.737 4392.521,3303.919 4356.491,2899.453 4526.462,2850.271 					"/>
				</defs>
				<clipPath id="SVGID_44_">
					<use xlink:href="#SVGID_43_"  style="overflow:visible;"/>
				</clipPath>
				<g class="st27">
					<path class="st2" d="M4466.273,3311.951c-15.89-3.611-26.063-18.278-30.286-30.8c-4.454-13.204-4.688-27.427-4.915-41.181
						l-0.048-2.81c-0.671-37.518-4.526-80.159-28.042-111.967c-5.611-7.591-12.346-14.542-18.857-21.266
						c-8.707-8.989-17.71-18.284-24.19-29.258c-14.411-24.404-15.044-54.184-14.458-82.595c0.652-31.606,2.396-64.962,15.621-94.815
						c4.826-10.894,11.172-21.211,17.309-31.187c6.71-10.909,13.649-22.189,18.558-34.182c9.055-22.124,10.082-51.887-8.036-68.51
						l1.306-1.423c8.667,7.952,13.807,19.4,14.861,33.103c0.921,11.976-1.331,25.316-6.343,37.562
						c-4.969,12.139-11.949,23.488-18.701,34.463c-6.104,9.922-12.414,20.182-17.188,30.957
						c-13.08,29.526-14.807,62.663-15.455,94.073c-0.58,28.133,0.037,57.604,14.19,81.573c6.363,10.777,15.285,19.989,23.914,28.896
						c6.556,6.768,13.334,13.767,19.022,21.461c23.839,32.245,27.745,75.257,28.42,113.08l0.047,2.813
						c0.225,13.606,0.457,27.675,4.814,40.595c4.056,12.025,13.773,26.098,28.884,29.533L4466.273,3311.951z"/>
				</g>
			</g>
			<g>
				<defs>
					<polygon id="SVGID_45_" points="4562.492,3254.737 4392.521,3303.919 4356.491,2899.453 4526.462,2850.271 					"/>
				</defs>
				<clipPath id="SVGID_46_">
					<use xlink:href="#SVGID_45_"  style="overflow:visible;"/>
				</clipPath>
				<g class="st28">
					<path class="st2" d="M4642.812,3345.696c-28.205-1.441-55.659-14.105-77.305-35.661
						c-21.645-21.555-34.424-48.956-35.983-77.155c-0.759-13.725,0.877-27.584,2.459-40.987c1.076-9.114,2.188-18.539,2.534-27.823
						c1.983-53.246-22.489-107.177-63.868-140.745c-4.824-3.914-9.995-7.681-14.996-11.324c-13.662-9.953-27.788-20.244-36.72-34.82
						c-7.233-11.804-11.156-26.678-11.66-44.208c-0.636-22.158,4.417-44.772,14.615-65.398
						c10.198-20.626,25.099-38.372,43.092-51.319l1.127,1.568c-36.387,26.183-58.191,70.284-56.903,115.094
						c0.493,17.188,4.321,31.741,11.375,43.254c8.732,14.25,22.701,24.427,36.209,34.268c5.021,3.658,10.213,7.441,15.076,11.386
						c41.841,33.943,66.587,88.477,64.581,142.317c-0.349,9.362-1.466,18.825-2.546,27.978c-1.572,13.322-3.198,27.096-2.449,40.653
						c3.164,57.239,54.205,108.068,111.458,110.993L4642.812,3345.696z"/>
				</g>
			</g>
		</g>
	</g>
	<g class="st26">
		<g>
			<g>
				<path class="st5" d="M3457.177,3632.015l78.16-158.835l26.93-33.633l-83.041,166.557l-0.076,0.09L3457.177,3632.015z
					 M3536.91,3474.305l-71.156,144.65l11.848-13.923l74.861-150.151L3536.91,3474.305z"/>
			</g>
		</g>
		<g>
			<g>
				<path class="st5" d="M3536.253,3475.127l-0.751-0.577l-322.732-248.065l22.495-28.104l0.751,0.577l322.719,248.091
					L3536.253,3475.127z M3215.509,3226.154l320.419,246.287l20.067-25.061l-320.406-246.313L3215.509,3226.154z"/>
			</g>
		</g>
		<g>
			<g>
				<polygon id="SVGID_11_" class="st16" points="3536.091,3473.784 3457.139,3632.138 3135.188,3384.674 3214.139,3226.32 				"/>
			</g>
			<g>
				<defs>
					<polygon id="SVGID_47_" points="3536.091,3473.784 3457.139,3632.138 3135.188,3384.674 3214.139,3226.32 					"/>
				</defs>
				<clipPath id="SVGID_48_">
					<use xlink:href="#SVGID_47_"  style="overflow:visible;"/>
				</clipPath>
				<g class="st29">
					<path class="st2" d="M3491.711,3589.52c-7.884,0-15.631-1.998-21.879-4.78c-12.73-5.668-23.352-15.129-33.624-24.279
						l-2.099-1.869c-28.053-24.92-62.035-50.967-101.363-55.212c-9.386-1.014-19.061-0.769-28.417-0.532
						c-12.51,0.317-25.448,0.643-37.91-2.023c-27.714-5.929-50.051-25.635-70.554-45.31c-22.81-21.889-46.167-45.766-59.171-75.716
						c-4.745-10.929-8.036-22.586-11.219-33.858c-3.48-12.326-7.078-25.071-12.576-36.807
						c-10.142-21.647-31.352-42.568-55.842-40.494l-0.163-1.925c11.72-0.988,23.623,2.984,34.418,11.491
						c9.435,7.434,17.721,18.127,23.335,30.109c5.566,11.878,9.185,24.7,12.686,37.101c3.165,11.21,6.438,22.803,11.131,33.613
						c12.861,29.621,36.068,53.338,58.737,75.092c20.302,19.483,42.402,38.992,69.621,44.815
						c12.239,2.619,25.059,2.295,37.457,1.981c9.42-0.238,19.16-0.485,28.673,0.543c39.869,4.304,74.156,30.566,102.438,55.689
						l2.101,1.87c10.161,9.052,20.669,18.411,33.125,23.957c11.594,5.162,28.529,7.546,41.292-1.244l1.095,1.591
						C3506.53,3587.782,3499.061,3589.52,3491.711,3589.52z"/>
				</g>
			</g>
			<g>
				<defs>
					<polygon id="SVGID_49_" points="3536.091,3473.784 3457.139,3632.138 3135.188,3384.674 3214.139,3226.32 					"/>
				</defs>
				<clipPath id="SVGID_50_">
					<use xlink:href="#SVGID_49_"  style="overflow:visible;"/>
				</clipPath>
				<g class="st30">
					<path class="st2" d="M3573.029,3509.147c-28.361,0-54.93-9.101-75.348-25.916c-10.61-8.738-19.698-19.329-28.487-29.572
						c-5.976-6.965-12.157-14.167-18.752-20.71c-37.827-37.526-94.078-56.052-146.801-48.352c-6.147,0.898-12.421,2.15-18.488,3.362
						c-16.575,3.309-33.717,6.731-50.49,3.427c-13.583-2.675-27.183-9.863-40.419-21.367c-16.732-14.541-29.945-33.576-38.21-55.05
						s-11.228-44.455-8.565-66.462l1.918,0.232c-5.385,44.503,12.289,90.417,46.125,119.822
						c12.979,11.279,26.277,18.321,39.525,20.93c16.397,3.228,33.347-0.154,49.738-3.427c6.092-1.216,12.39-2.473,18.587-3.378
						c53.311-7.788,110.191,10.946,148.441,48.891c6.65,6.598,12.856,13.83,18.857,20.823c8.735,10.18,17.768,20.707,28.248,29.338
						c44.252,36.444,116.217,33.325,157.149-6.811l1.352,1.379c-20.165,19.773-48.079,31.391-78.597,32.713
						C3576.878,3509.106,3574.949,3509.147,3573.029,3509.147z"/>
				</g>
			</g>
		</g>
	</g>
	<g class="st3">
		
			<rect x="4200.676" y="3602.476" transform="matrix(0.451 -0.8925 0.8925 0.451 -1074.078 5830.7324)" class="st2" width="3.863" height="371.96"/>
	</g>
	<g class="st3">
		<path class="st2" d="M4011.604,4144.087c-0.073,0-0.148-0.004-0.223-0.012c-1.06-0.122-1.821-1.079-1.698-2.14l32.166-280.072
			c0.122-1.06,1.084-1.822,2.139-1.699c1.06,0.122,1.821,1.079,1.698,2.139l-32.166,280.072
			C4013.407,4143.362,4012.572,4144.087,4011.604,4144.087z"/>
	</g>
	<g class="st3">
		<path class="st2" d="M3905.457,3379.484c-0.837,0-1.608-0.548-1.853-1.391c-0.299-1.024,0.289-2.096,1.314-2.395l33.473-9.759
			c1.022-0.298,2.096,0.29,2.395,1.314c0.299,1.024-0.29,2.096-1.314,2.395l-33.473,9.759
			C3905.817,3379.459,3905.635,3379.484,3905.457,3379.484z"/>
	</g>
	<g class="st3">
		<path class="st5" d="M3647.242,3999.357h-261.399l-0.34-1.506c-4.183-18.507-4.183-38.072,0-56.579l0.34-1.506h261.399
			l-0.533,2.357c-4.056,17.95-4.056,36.926,0,54.876L3647.242,3999.357z M3388.941,3995.493h253.49
			c-3.504-17.018-3.504-34.847,0-51.865h-253.49C3385.325,3960.63,3385.325,3978.492,3388.941,3995.493z"/>
	</g>
	<g class="st3">
		<path class="st5" d="M3636.944,3940.985h-261.399l-0.34-1.506c-4.182-18.508-4.182-38.072,0-56.579l0.34-1.506h261.399
			l-0.533,2.357c-4.056,17.95-4.056,36.926,0,54.876L3636.944,3940.985z M3378.643,3937.122h253.491
			c-3.504-17.018-3.504-34.847,0-51.865h-253.491C3375.027,3902.258,3375.027,3920.12,3378.643,3937.122z"/>
	</g>
	<g class="st3">
		<path class="st5" d="M3636.944,3824.241h-261.399l-0.34-1.506c-4.182-18.507-4.182-38.072,0-56.58l0.34-1.506h261.399
			l-0.533,2.358c-4.056,17.95-4.056,36.926,0,54.876L3636.944,3824.241z M3378.643,3820.377h253.491
			c-3.504-17.018-3.504-34.846,0-51.864h-253.491C3375.027,3785.514,3375.027,3803.376,3378.643,3820.377z"/>
	</g>
	<g class="st3">
		<path class="st5" d="M3660.481,3882.613h-261.399l-0.34-1.506c-4.183-18.507-4.183-38.072,0-56.579l0.34-1.506h261.399
			l-0.533,2.357c-4.057,17.95-4.057,36.926,0,54.876L3660.481,3882.613z M3402.181,3878.749h253.49
			c-3.504-17.018-3.504-34.846,0-51.865h-253.49C3398.564,3843.886,3398.564,3861.748,3402.181,3878.749z"/>
	</g>
	<g class="st3">
		<g>
			<path class="st4" d="M5196.217,3401.991c-18.176,9.515-35.725,20.229-52.493,32.049c-17.403,12.267-35.426,28.436-36.342,49.708
				c-0.791,18.322,11.488,34.391,23.739,48.038c12.25,13.647,25.765,27.974,28.38,46.125c2.373,16.465-5.062,33.179-16.276,45.466
				c-11.214,12.287-25.883,20.819-40.591,28.592c-17.564,9.283-37.639,20.402-41.337,39.921c-0.608,3.208-0.718,6.507-1.542,9.667
				c-1.647,6.32-6,11.568-10.623,16.181c-23.083,23.029-56.43,35.364-88.942,32.898c-32.512-2.465-63.618-19.687-82.964-45.933
				c-12.492-16.947-20.226-38.167-17.69-59.067c2.897-23.882,18.776-44.588,37.995-59.059c12.014-9.046,25.455-16.13,37.052-25.705
				c2.87-2.37,5.665-4.916,9.021-6.521c2.83-1.353,5.94-1.979,8.982-2.744c14.438-3.626,28.012-10.644,39.318-20.327
				c4.916-4.21,9.485-9.028,12.226-14.892c4.543-9.721,3.548-20.968,3.959-31.69c0.517-13.495,3.501-27.068,10.139-38.828
				c12.151-21.527,34.606-34.42,55.979-45.244c8.72-4.416,16.285-5.034,25.983-4.729c15.212,0.477,30.417,1.201,45.607,2.141
				c8.495,0.525,16.986,1.121,25.471,1.788c4.161,0.327,8.32,0.671,12.479,1.031c2.12,0.184,4.24,0.372,6.358,0.565
				C5191.393,3401.54,5195.119,3402.565,5196.217,3401.991z"/>
			<path class="st5" d="M4968.459,3751.743c-2.778,0-5.556-0.104-8.331-0.315c-32.797-2.487-64.028-19.778-83.543-46.254
				c-13.884-18.836-20.219-40.014-17.839-59.633c3.573-29.449,25.534-49.98,38.306-59.596c5.299-3.99,10.955-7.652,16.424-11.193
				c6.947-4.498,14.132-9.149,20.6-14.49c0.415-0.343,0.829-0.689,1.242-1.035c2.449-2.052,4.982-4.173,7.942-5.589
				c2.446-1.17,5.094-1.813,7.654-2.435c0.493-0.12,0.986-0.239,1.477-0.363c14.307-3.594,27.792-10.565,38.996-20.16
				c5.902-5.055,9.722-9.703,12.023-14.625c3.55-7.596,3.651-16.342,3.75-24.798c0.025-2.165,0.051-4.404,0.135-6.587
				c0.574-14.982,4.02-28.167,10.241-39.188c12.431-22.023,35.585-35.066,56.312-45.562c8.773-4.443,16.311-5.13,26.366-4.814
				c14.81,0.465,30.164,1.185,45.631,2.142c8.452,0.523,17.026,1.125,25.484,1.789c4.13,0.325,8.331,0.672,12.485,1.032
				c2.121,0.184,4.242,0.372,6.362,0.565c0.41,0.037,0.995,0.149,1.673,0.278c1.123,0.214,3.459,0.658,3.999,0.378l0,0l0,0
				l0.735,1.405c-18.085,9.468-35.717,20.232-52.404,31.995c-15.004,10.576-35.062,27.172-36.007,49.094
				c-0.769,17.824,10.858,33.351,23.537,47.474l1.604,1.784c12.013,13.351,24.436,27.157,26.972,44.758
				c2.219,15.403-3.786,32.21-16.476,46.114c-11.701,12.821-27.198,21.567-40.806,28.759c-15.697,8.297-37.194,19.66-40.929,39.368
				c-0.245,1.292-0.412,2.633-0.573,3.93c-0.237,1.906-0.482,3.876-0.981,5.789c-1.791,6.871-6.729,12.45-10.83,16.543
				C5028.377,3739.566,4998.516,3751.743,4968.459,3751.743z M5096.35,3396.625c-7.969,0-14.449,0.994-21.786,4.709
				c-20.52,10.391-43.434,23.29-55.647,44.927c-6.096,10.799-9.474,23.742-10.038,38.469c-0.083,2.162-0.109,4.39-0.134,6.544
				c-0.101,8.626-0.205,17.545-3.899,25.451c-2.399,5.135-6.348,9.952-12.428,15.158c-11.389,9.754-25.097,16.841-39.64,20.494
				c-0.495,0.125-0.992,0.245-1.489,0.366c-2.481,0.603-5.048,1.226-7.344,2.324c-2.78,1.329-5.234,3.385-7.608,5.374
				c-0.417,0.349-0.833,0.698-1.25,1.043c-6.54,5.399-13.762,10.075-20.748,14.598c-5.446,3.527-11.078,7.173-16.333,11.129
				c-12.571,9.465-34.183,29.655-37.685,58.521c-2.332,19.216,3.898,39.992,17.542,58.501
				c19.245,26.109,50.043,43.161,82.386,45.614c32.342,2.451,65.36-9.761,88.322-32.669c3.959-3.95,8.722-9.319,10.416-15.82
				c0.473-1.812,0.711-3.73,0.942-5.585c0.164-1.322,0.334-2.688,0.589-4.03c3.876-20.458,25.764-32.027,41.746-40.474
				c13.489-7.13,28.846-15.794,40.375-28.426c12.187-13.353,18.198-30.107,16.077-44.819c-2.467-17.124-14.726-30.748-26.581-43.923
				l-1.605-1.785c-12.903-14.374-24.734-30.21-23.941-48.602c0.976-22.62,21.399-39.553,36.678-50.322
				c15.894-11.203,32.642-21.505,49.823-30.647c-0.478-0.078-0.99-0.173-1.536-0.276c-0.611-0.116-1.188-0.226-1.52-0.256
				c-2.118-0.193-4.236-0.381-6.355-0.565c-4.15-0.36-8.347-0.707-12.473-1.031c-8.449-0.664-17.014-1.265-25.458-1.787
				c-15.453-0.956-30.789-1.675-45.583-2.14C5098.852,3396.648,5097.583,3396.625,5096.35,3396.625z"/>
		</g>
		<g>
			<path class="st4" d="M5098.827,3360.679c1.429,1.372,0.625,3.754-0.295,5.508c-9.312,17.747-21.82,33.64-31.524,51.176
				c-9.705,17.537-16.646,37.689-13.346,57.458c3.574,21.403,18.578,39.433,23,60.676c5.61,26.953-6.654,54.445-21.993,77.308
				c-10.632,15.847-22.893,30.601-36.528,43.952c-22.197,21.737-48.544,40.421-63.414,67.699
				c-21.682-60.394-72.733-104.729-122.323-145.452c-11.836-9.72-24.727-21.374-25.124-36.685c-0.2-7.686,2.911-15.067,6.552-21.839
				c11.457-21.307,28.455-38.994,44.417-57.174c13.732-15.639,26.831-31.835,39.256-48.531c7.389-9.928,14.661-21.722,26.14-27.403
				c11.445-5.665,25.687-6.284,38.092-8.198c21.494-3.316,43.019-6.44,64.569-9.371c21.469-2.92,42.964-5.649,64.483-8.186
				C5093.467,3361.302,5096.147,3360.989,5098.827,3360.679z"/>
			<path class="st5" d="M4954.577,3726.387l-0.597-1.663c-21.089-58.742-69.78-102.158-122.081-145.107
				c-12.085-9.924-25.012-21.807-25.413-37.277c-0.217-8.348,3.438-16.268,6.646-22.235c9.85-18.318,23.945-34.162,37.577-49.484
				c2.322-2.611,4.643-5.219,6.942-7.838c13.643-15.537,26.838-31.848,39.216-48.481c1.07-1.438,2.163-2.948,3.219-4.41
				c6.499-8.99,13.218-18.287,23.206-23.23c9.041-4.475,19.655-5.824,29.92-7.129c2.92-0.371,5.678-0.722,8.403-1.142
				c21.395-3.301,43.123-6.454,64.584-9.373c21.389-2.909,43.089-5.664,64.497-8.188c2.68-0.316,5.36-0.628,8.041-0.938l0.371-0.043
				l0.269,0.259c0.983,0.944,1.756,2.829-0.143,6.448c-4.972,9.476-10.94,18.559-16.711,27.343
				c-5.061,7.703-10.294,15.668-14.822,23.849c-11.604,20.968-16.064,40.127-13.257,56.944c1.833,10.982,6.817,21.294,11.637,31.267
				c4.527,9.366,9.208,19.051,11.357,29.379c4.738,22.766-2.701,48.98-22.111,77.911c-10.649,15.874-22.974,30.704-36.631,44.077
				c-5.873,5.75-12.132,11.376-18.185,16.815c-16.817,15.112-34.208,30.74-45.087,50.697L4954.577,3726.387z M5098.5,3361.515
				c-2.54,0.294-5.08,0.591-7.619,0.89c-21.398,2.523-43.089,5.276-64.469,8.183c-21.451,2.917-43.17,6.07-64.555,9.368
				c-2.746,0.424-5.514,0.775-8.445,1.148c-10.135,1.289-20.614,2.621-29.417,6.978c-9.636,4.769-16.238,13.904-22.624,22.738
				c-1.06,1.466-2.155,2.982-3.231,4.428c-12.404,16.667-25.625,33.011-39.297,48.581c-2.301,2.621-4.624,5.232-6.949,7.845
				c-13.57,15.254-27.604,31.027-37.364,49.181c-3.116,5.795-6.665,13.468-6.458,21.443c0.384,14.801,13.02,26.391,24.834,36.093
				c51.995,42.698,100.439,85.867,121.971,144.163c11.046-19.468,28.083-34.777,44.572-49.595
				c6.041-5.428,12.288-11.042,18.135-16.769c13.58-13.298,25.835-28.043,36.425-43.828c19.164-28.564,26.524-54.372,21.875-76.705
				c-2.11-10.136-6.748-19.732-11.232-29.011c-4.868-10.073-9.902-20.49-11.773-31.696c-2.867-17.179,1.652-36.683,13.434-57.973
				c4.557-8.234,9.807-16.225,14.884-23.952c5.75-8.752,11.696-17.802,16.632-27.209
				C5098.432,3364.671,5099.267,3362.667,5098.5,3361.515z"/>
		</g>
		<g>
			<g>
				<path id="SVGID_13_" class="st16" d="M4940.607,3322.792c0,0,5.931,110.713,47.448,187.816
					c41.517,77.104,15.816,173.977,15.816,173.977l-320.276,65.241c0,0-35.78-127.544-73.149-179.908
					c-34.088-47.765-37.563-112.689-37.563-112.689L4940.607,3322.792z"/>
			</g>
			<g>
				<defs>
					<path id="SVGID_51_" d="M4940.607,3322.792c0,0,5.931,110.713,47.448,187.816c41.517,77.104,15.816,173.977,15.816,173.977
						l-320.276,65.241c0,0-35.78-127.544-73.149-179.908c-34.088-47.765-37.563-112.689-37.563-112.689L4940.607,3322.792z"/>
				</defs>
				<clipPath id="SVGID_52_">
					<use xlink:href="#SVGID_51_"  style="overflow:visible;"/>
				</clipPath>
				<g class="st31">
					<path class="st2" d="M5039.162,3745.641c-57.586-33.069-122.856-70.551-193.459-79.921
						c-31.747-4.213-64.383-2.726-95.944-1.287c-27.686,1.262-56.315,2.568-84.334,0.038c-31.625-2.854-62.973-10.634-93.29-18.157
						c-11.69-2.901-23.574-5.85-35.556-8.537c-10.087,9.448-19.294,19.904-28.291,30.123c-8.339,9.471-16.962,19.266-26.184,28.15
						c-23.442,22.585-47.689,35.785-72.068,39.233c-13.856,1.96-28.561,0.242-41.403-4.837
						c-13.767-5.445-24.708-14.342-31.64-25.728c-1.533-2.519-3.12-5.552-3.266-8.945c-0.191-4.463,2.149-8.541,4.707-12.282
						c14.248-20.844,34.985-37.535,58.392-47.002c27.608-11.166,61.003-13.622,102.092-7.51c12.436,1.85,24.866,4.318,37.19,7.068
						c4.52-4.201,9.223-8.201,14.167-11.891c40.513-30.24,93.985-37.187,136.044-39.86c86.367-5.49,179.917,1.998,294.414,23.562
						l1.354,0.255c22.116,4.17,44.985,8.481,66.726,3.128c19.796-4.873,38.6-18.109,52.948-37.269
						c8.371-11.178,17.515-28.104,13.539-45.258c-2.887-12.459-12.986-23.835-27.013-30.432
						c-12.842-6.039-27.463-7.865-41.351-8.937c-24.209-1.871-49.056-1.858-73.095-1.851c-44.586,0.018-90.684,0.037-134.258-11.987
						c-24.281-6.7-47.676-17.137-70.301-27.231c-10.425-4.651-21.205-9.46-31.929-13.84c-26.775-10.935-66.97-24.84-106.73-19.377
						c-32.972,4.531-70.855,25.96-81.162,63.62l-1.529-0.418c4.636-16.941,15.422-32.133,31.191-43.933
						c14.561-10.895,32.773-18.297,51.284-20.841c40.137-5.515,80.602,8.476,107.546,19.481c10.746,4.389,21.539,9.204,31.975,13.86
						c22.571,10.07,45.911,20.482,70.077,27.151c43.366,11.967,89.36,11.947,133.835,11.93c24.057-0.012,48.947-0.02,73.218,1.855
						c14.038,1.084,28.831,2.936,41.903,9.083c14.463,6.802,24.887,18.581,27.883,31.509c4.114,17.747-5.242,35.118-13.814,46.566
						c-14.567,19.452-33.687,32.898-53.838,37.858c-22.076,5.435-45.117,1.091-67.398-3.109l-1.353-0.255
						c-114.366-21.54-207.794-29.018-294.02-23.538c-41.841,2.66-95.019,9.558-135.196,39.549
						c-4.603,3.436-8.998,7.146-13.236,11.042c11.637,2.626,23.173,5.489,34.528,8.307c30.258,7.51,61.547,15.274,93.05,18.117
						c27.913,2.52,56.488,1.217,84.12-0.043c31.632-1.442,64.339-2.933,96.225,1.299c70.913,9.412,136.327,46.976,194.041,80.118
						L5039.162,3745.641z M4457.914,3627.299c-22.898,0-42.895,3.54-60.494,10.658c-23.12,9.351-43.603,25.838-57.677,46.427
						c-2.403,3.515-4.604,7.32-4.432,11.32c0.13,3.034,1.608,5.842,3.036,8.189c13.386,21.989,42.108,33.974,71.466,29.82
						c24.042-3.401,47.993-16.457,71.19-38.805c9.174-8.839,17.776-18.608,26.094-28.056c8.791-9.983,17.781-20.195,27.61-29.492
						c-11.947-2.649-23.987-5.023-36.023-6.814C4484.148,3628.383,4470.587,3627.299,4457.914,3627.299z"/>
				</g>
			</g>
		</g>
		<g>
			<g>
				<path id="SVGID_15_" class="st16" d="M5270.768,3749.827c0,0-27.678-7.908-94.896-63.264s-164.135-3.091-164.135-3.091
					l-328.141,66.355c0,0,154.207-19.77,187.816,21.748c33.609,41.517,29.655,53.379,29.655,53.379L5270.768,3749.827z"/>
			</g>
			<g>
				<defs>
					<path id="SVGID_53_" d="M5270.768,3749.827c0,0-27.678-7.908-94.896-63.264s-164.135-3.091-164.135-3.091l-328.141,66.355
						c0,0,154.207-19.77,187.816,21.748c33.609,41.517,29.655,53.379,29.655,53.379L5270.768,3749.827z"/>
				</defs>
				<clipPath id="SVGID_54_">
					<use xlink:href="#SVGID_53_"  style="overflow:visible;"/>
				</clipPath>
				<g class="st32">
					<path class="st2" d="M5314.566,3825.111c-17.542,0-34.143-1.17-48.917-2.547c-59.435-5.54-119.205-17.905-177.007-29.863
						c-88.688-18.347-180.397-37.317-271.92-31.671c-17.467,1.078-35.537,3.44-49.37,13.343
						c-13.371,9.573-22.3,29.345-13.412,44.599l-1.37,0.798c-9.338-16.023-0.078-36.709,13.858-46.687
						c14.158-10.135,32.492-12.543,50.195-13.636c91.735-5.66,183.55,13.333,272.339,31.701
						c57.76,11.949,117.486,24.305,176.832,29.836c36.584,3.41,84.4,5.548,129.824-8.3c7.784-2.373,18.496-6.579,21.623-15.659
						c1.734-5.037,1.023-10.994-2.238-18.748c-9.649-22.939-30.156-42.439-57.745-54.906
						c-25.856-11.684-54.499-16.088-79.316-19.299c-47.273-6.115-102.624-10.403-154.734,4.167
						c-7.12,1.99-14.282,4.365-21.209,6.662c-13.514,4.48-27.487,9.113-41.833,11.129c-20.264,2.847-40.984,0.484-62.198-2.41
						c-6.429-0.877-12.971-1.801-19.297-2.694c-42.142-5.949-85.718-12.101-128.693-9.26
						c-55.917,3.697-103.398,23.48-133.694,55.707l-1.156-1.086c30.572-32.52,78.426-52.48,134.745-56.203
						c43.137-2.854,86.797,3.311,129.019,9.272c6.324,0.893,12.865,1.816,19.29,2.693c21.098,2.879,41.698,5.23,61.762,2.411
						c14.204-1.995,28.108-6.605,41.555-11.063c6.945-2.302,14.125-4.683,21.281-6.684c52.384-14.647,107.934-10.349,155.364-4.213
						c24.931,3.226,53.711,7.653,79.766,19.427c27.954,12.633,48.749,32.427,58.554,55.736c3.421,8.134,4.144,14.451,2.274,19.878
						c-3.363,9.766-14.542,14.186-22.66,16.66C5368.773,3822.527,5340.63,3825.111,5314.566,3825.111z"/>
				</g>
			</g>
		</g>
		<g>
			<polygon class="st5" points="5005.976,3675.103 5011.737,3683.471 4683.596,3757.61 4683.596,3749.827 			"/>
		</g>
	</g>
</g>
<path class="st33" d="M6380.542,2030.461c-167.328-364.09-500.051-648.169-885.871-756.355
	c-178.566-50.071-371.529-66.12-528.758-164.465c-141.808-88.699-236.823-233.458-346.109-360.083
	c-228.684-264.963-547.34-465.121-895.968-496.12s-721.734,129.884-892.441,435.435
	c-320.669,573.969,143.198,1371.777-213.622,1923.998c-115.845,179.286-301.18,299.324-459.178,442.852
	c-377.46,342.888-607.646,854.534-571.792,1363.22c35.853,508.687,353.29,997.929,820.694,1201.846
	c261.021,113.877,553.968,138.666,837.743,114.76c229.732-19.353,485.519-62.918,670.838,74.223
	c135.627,100.37,194.594,272.924,232.506,437.337c77.077,334.266,104.251,694.638,299.638,976.591
	c215.92,311.582,610.921,467.957,989.925,460.187c379.003-7.771,742.469-161.043,1061.812-365.308
	c144.488-92.419,286.47-200.616,367.931-351.554c93.83-173.857,95.552-381.65,82.567-578.784
	c-23.836-361.845-90.46-723.663-231.151-1057.886c-88.086-209.254-204.635-406.597-277.398-621.658
	c-124.914-369.202-113.018-766.204-74.002-1148.847c14.147-138.757,14.793-286.042,44.664-422.532
	c38.188-174.5,91.128-334.43,92.646-515.743C6506.915,2418.65,6465.365,2215.026,6380.542,2030.461z"/>
<g>
	<path class="st4" d="M5483.754,7675.059c-184.918,0-368.481-38.329-532.617-111.401c-89.02-39.63-170.877-88.953-243.301-146.597
		c-75.853-60.374-141.219-129.812-194.281-206.38c-67.981-98.101-121.779-214.826-164.471-356.849
		c-37.928-126.178-63.686-259.845-88.595-389.111c-14.86-77.118-30.227-156.862-47.961-233.771
		c-33.987-147.396-90.738-329.71-229.053-432.068c-161.937-119.839-378.127-99.355-587.197-79.542
		c-25.52,2.417-51.905,4.917-77.467,7.07c-66.017,5.561-130.45,8.337-193.204,8.337c-242.515,0.002-460.135-41.454-648.94-123.825
		c-115.261-50.286-223.821-118.827-322.666-203.719c-95.638-82.138-180.901-178.42-253.422-286.173
		c-71.654-106.467-129.497-222.062-171.926-343.578c-42.906-122.884-69.188-249.413-78.116-376.074
		c-8.847-125.506-1.694-253.906,21.258-381.634c22.283-124.004,59.412-247.267,110.357-366.367
		c100.71-235.438,253.943-450.727,443.135-622.591c44.892-40.782,92.683-80.249,138.901-118.419
		c116.256-96.011,236.47-195.293,318.753-322.637c180.604-279.506,148.216-630.728,116.893-970.388
		c-15.135-164.138-30.788-333.866-22.694-494.775c4.37-86.875,15.118-164.189,32.858-236.358
		c19.959-81.195,48.177-153.805,86.264-221.977c82.837-148.274,215.473-268.511,383.565-347.715
		c79.568-37.492,164.588-64.491,252.7-80.247c88.365-15.801,177.5-19.87,264.922-12.096
		c168.826,15.012,335.935,69.344,496.681,161.492c74.962,42.971,147.929,94.034,216.877,151.774
		c66.977,56.087,130.394,118.659,188.491,185.971c26.215,30.374,52.001,62.268,76.936,93.113
		c78.901,97.593,160.488,198.511,267.109,265.201c109.979,68.79,240.647,97.484,367.012,125.233
		c52.595,11.55,106.982,23.494,159.379,38.185c190.565,53.436,373.255,151.66,528.319,284.054
		c155.064,132.394,280.713,297.428,363.36,477.26c83.837,182.422,127.234,388.165,125.502,594.986
		c-1.155,138.073-31.312,261.421-63.239,392.012c-9.986,40.841-20.311,83.075-29.617,125.6
		c-20.175,92.19-27.024,190.77-33.647,286.105c-3.104,44.682-6.314,90.884-10.854,135.406
		c-35.937,352.455-55.301,764.116,73.569,1145.011c43.817,129.509,104.726,254.921,163.626,376.208
		c38.655,79.594,78.625,161.895,113.539,244.836c67.179,159.59,120.983,334.627,159.916,520.249
		c35.135,167.512,59.335,349.385,71.929,540.569c5.469,83.022,10.267,192.113-1.261,299.688
		c-11.819,110.303-38.766,203.205-82.377,284.013c-85.394,158.224-235.481,268.193-371.035,354.898
		c-369.616,236.417-728.447,359.807-1066.524,366.738C5502.018,7674.965,5492.873,7675.059,5483.754,7675.059z M3633.427,5686.089
		c25.478,0,50.763,0.795,75.737,2.649c116.713,8.661,209.982,39.907,285.133,95.52c63.555,47.034,114.484,111.813,155.691,198.042
		c31.471,65.852,56.977,143.564,80.266,244.563c17.808,77.23,33.206,157.139,48.099,234.415
		c49.608,257.453,100.907,523.67,250.153,739.041c196.204,283.129,560.147,456.556,954.639,456.556
		c9.216,0,18.376-0.093,27.623-0.283c334.685-6.862,690.342-129.288,1057.097-363.876
		c133.591-85.449,281.407-193.64,364.828-348.212c93.439-173.133,94.388-378.128,81.495-573.867
		c-26.667-404.832-102.05-749.91-230.458-1054.954c-34.725-82.491-74.586-164.57-113.136-243.948
		c-59.148-121.792-120.311-247.73-164.495-378.324c-129.985-384.192-110.569-798.286-74.435-1152.685
		c4.51-44.231,7.71-90.285,10.804-134.821c6.668-95.987,13.564-195.245,34.023-288.733c9.354-42.742,19.705-85.083,29.717-126.032
		c31.669-129.536,61.581-251.886,62.719-387.844c1.711-204.167-41.113-407.23-123.84-587.238
		c-166.699-362.721-495.695-643.615-880.063-751.394c-51.896-14.552-106.024-26.438-158.37-37.932
		c-127.878-28.081-260.108-57.119-372.756-127.578c-109.207-68.307-191.766-170.429-271.609-269.187
		c-24.846-30.733-50.538-62.51-76.562-92.664c-245.879-284.887-570.232-464.58-889.888-493.002
		c-366.407-32.577-721.531,140.551-883.697,430.811c-155.454,278.248-124.311,615.967-94.193,942.567
		c15.781,171.134,32.099,348.094,21.256,514.111c-5.853,89.616-18.928,169.012-39.97,242.727
		c-23.659,82.884-56.7,156.512-101.015,225.091c-83.809,129.707-205.127,229.898-322.449,326.791
		c-46.055,38.035-93.678,77.365-138.253,117.857c-390.991,355.181-603.64,862.038-568.834,1355.848
		c36.469,517.424,364.095,997.317,815.258,1194.149c234.861,102.463,515.239,140.833,833.341,114.033
		c25.467-2.144,51.805-4.64,77.279-7.054C3473.43,5693.756,3554.337,5686.089,3633.427,5686.089z"/>
</g>
<g>
	<rect x="2548.697" y="3734.853" class="st5" width="3185.558" height="18.19"/>
</g>
<g>
	<g>
		<polygon id="XMLID_16_" class="st4" points="4322.468,2644.461 5090.988,2630.437 5043.306,3516.759 4215.885,3328.836 		"/>
	</g>
	<g>
		<defs>
			<polygon id="SVGID_55_" points="4322.468,2644.461 5090.988,2630.437 5043.306,3516.759 4215.885,3328.836 			"/>
		</defs>
		<clipPath id="SVGID_56_">
			<use xlink:href="#SVGID_55_"  style="overflow:visible;"/>
		</clipPath>
		<path class="st34" d="M4543.952,2620.478c-51.574,36.347-41.335,114.76-65.682,172.968
			c-25.64,61.302-88.601,96.768-134.852,144.475c-59.411,61.281-91.345,143.44-138.201,214.783
			c-46.853,71.342-120.634,136.838-205.803,131.232"/>
	</g>
	<g>
		<defs>
			<polygon id="SVGID_57_" points="4322.468,2644.461 5090.988,2630.437 5043.306,3516.759 4215.885,3328.836 			"/>
		</defs>
		<clipPath id="SVGID_58_">
			<use xlink:href="#SVGID_57_"  style="overflow:visible;"/>
		</clipPath>
		<path class="st35" d="M4880.656,2547.708c-138.313,95.626-160.069,295.397-277.956,415.302
			c-43.316,44.058-97.941,75.431-142.965,117.741c-142.117,133.553-172.368,358.368-321.336,484.232
			c-40.734,34.416-94.966,60.584-146.46,46.731"/>
	</g>
	<g>
		<defs>
			<polygon id="SVGID_59_" points="4322.468,2644.461 5090.988,2630.437 5043.306,3516.759 4215.885,3328.836 			"/>
		</defs>
		<clipPath id="SVGID_60_">
			<use xlink:href="#SVGID_59_"  style="overflow:visible;"/>
		</clipPath>
		<path class="st36" d="M4988.612,2572.133c-70.706,75.362-83.168,186.47-122.055,282.213
			c-33.212,81.77-86.568,153.44-132.092,229.05c-130.283,216.38-198.21,468.392-348.106,671.676
			c-26.208,35.542-60.038,72.147-104.136,74.467"/>
	</g>
	<g>
		<defs>
			<polygon id="SVGID_61_" points="4322.468,2644.461 5090.988,2630.437 5043.306,3516.759 4215.885,3328.836 			"/>
		</defs>
		<clipPath id="SVGID_62_">
			<use xlink:href="#SVGID_61_"  style="overflow:visible;"/>
		</clipPath>
		<path class="st37" d="M4919.432,2999.789c-2.771,110.755-27.038,220.934-71.058,322.604
			c-44.14,101.949-108.045,195.902-137.461,303.031c-34.67,126.264-23.771,274.044-111.609,371.147"/>
	</g>
</g>
<g>
	<g>
		<polygon id="XMLID_15_" class="st4" points="4322.468,2630.437 3969.062,2254.592 4271.981,1567.412 3845.649,1519.73 
			3455.78,2383.612 3859.674,2995.062 4280.396,3269.935 4605.754,3025.916 4392.588,2666.899 		"/>
	</g>
	<g>
		<defs>
			<polygon id="SVGID_63_" points="4322.468,2630.437 3969.062,2254.592 4271.981,1567.412 3845.649,1519.73 3455.78,2383.612 
				3859.674,2995.062 4280.396,3269.935 4605.754,3025.916 4392.588,2666.899 			"/>
		</defs>
		<clipPath id="SVGID_64_">
			<use xlink:href="#SVGID_63_"  style="overflow:visible;"/>
		</clipPath>
		<path class="st38" d="M3472.747,2193.959c1.828-106.361,89.662-191.567,181.773-244.777
			c92.112-53.212,196.277-88.941,274.011-161.558c41.343-38.621,74.333-86.989,122.222-117.111
			c96.469-60.68,221.928-31.222,334.448-49.326c86.624-13.938,168.067-58.185,226.9-123.274"/>
	</g>
	<g>
		<defs>
			<polygon id="SVGID_65_" points="4322.468,2630.437 3969.062,2254.592 4271.981,1567.412 3845.649,1519.73 3455.78,2383.612 
				3859.674,2995.062 4280.396,3269.935 4605.754,3025.916 4392.588,2666.899 			"/>
		</defs>
		<clipPath id="SVGID_66_">
			<use xlink:href="#SVGID_65_"  style="overflow:visible;"/>
		</clipPath>
		<path class="st39" d="M3526.831,2788.767c86.454-133.696,41.052-328.49,144.581-449.447
			c51.396-60.049,132.37-91.354,176.191-157.136c16.207-24.33,26.378-52.115,40.358-77.79
			c72.581-133.294,235.137-190.023,386.198-204.724c74.92-7.291,158.021-10.185,212.105-62.541"/>
	</g>
	<g>
		<defs>
			<polygon id="SVGID_67_" points="4322.468,2630.437 3969.062,2254.592 4271.981,1567.412 3845.649,1519.73 3455.78,2383.612 
				3859.674,2995.062 4280.396,3269.935 4605.754,3025.916 4392.588,2666.899 			"/>
		</defs>
		<clipPath id="SVGID_68_">
			<use xlink:href="#SVGID_67_"  style="overflow:visible;"/>
		</clipPath>
		<path class="st40" d="M3853.65,3032.727c-32.077-117.855-7.679-249.763,64.427-348.349c29.183-39.899,67.71-80.434,64.389-129.756
			c-1.861-27.636-17.178-53.094-18.551-80.758c-2.156-43.467,30.807-81.598,68.409-103.51
			c37.603-21.912,80.718-32.481,119.711-51.808c70.805-35.096,126.212-100.029,149.732-175.473"/>
	</g>
	<g>
		<defs>
			<polygon id="SVGID_69_" points="4322.468,2630.437 3969.062,2254.592 4271.981,1567.412 3845.649,1519.73 3455.78,2383.612 
				3859.674,2995.062 4280.396,3269.935 4605.754,3025.916 4392.588,2666.899 			"/>
		</defs>
		<clipPath id="SVGID_70_">
			<use xlink:href="#SVGID_69_"  style="overflow:visible;"/>
		</clipPath>
		<path class="st41" d="M4071.595,3113.295c4.485-81.101,14.129-161.915,28.854-241.793c8.038-43.608,17.99-87.947,41.61-125.473
			c22.583-35.878,56.178-63.196,84.375-94.852c81.085-91.03,114.532-213.706,145.492-331.616"/>
	</g>
	<g>
		<defs>
			<polygon id="SVGID_71_" points="4322.468,2630.437 3969.062,2254.592 4271.981,1567.412 3845.649,1519.73 3455.78,2383.612 
				3859.674,2995.062 4280.396,3269.935 4605.754,3025.916 4392.588,2666.899 			"/>
		</defs>
		<clipPath id="SVGID_72_">
			<use xlink:href="#SVGID_71_"  style="overflow:visible;"/>
		</clipPath>
		<path class="st42" d="M4482.962,2755.528c-10.657,92.29-68.392,200.098-120.076,295.26
			c-36.073,66.419-59.451,139.29-97.575,204.554c-38.122,65.263-95.838,124.905-169.989,139.541"/>
	</g>
</g>
<polygon class="st5" points="4437.466,3743.948 4075.645,3743.948 4156.983,3389.139 4476.733,3547.611 "/>
<polygon class="st43" points="3352.001,4077.721 3352.001,4228.832 3879.308,4301.055 4053.206,4189.389 4064.425,4077.721 "/>
<polygon class="st43" points="4938.683,6510.564 4868.667,6952.135 4336.558,6940.888 4182.292,6803.365 4216.181,6583.436 "/>
<g>
	<path class="st5" d="M5427.74,7477.527c9.968-58.067,7.838-115.665-4.55-169.992c-11.477-50.626-32.002-98.543-60.11-141.313
		c-19.29-29.587-42.311-56.677-68.482-80.591c-52.97-48.705-118.905-84.321-193.95-100.844l-54.271-18.859
		c-4.13-1.461-8.242-3.012-12.188-4.894c-38.438-17.311-67.568-50.904-79.353-92.291l-17.583-61.277
		c-2.265-7.871-6.487-14.696-12.114-20.082c-5.735-5.316-12.79-9.174-20.677-10.91c-4.073-0.896-8.226,1.046-10.31,4.733
		l-31.058,56.464c-20.261,36.728-61.308,56.439-102.107,49.024l-429.534-78.627c-27.943-5.139-52.119-22.439-66.185-47.281
		l-3.471-6.109c-10.277-18.112-27.687-31.067-47.878-35.513c-14.814-3.263-29.377,7.168-31.281,22.413l-80.385,449.285"/>
	<path class="st5" d="M4457.396,7284.821c29.204,6.43,71.597,15.627,72.214,44.603"/>
	<path class="st4" d="M4102.253,7190.863l-17.255,82.474l269.529,52.678c12.642-26.059,41.588-41.153,70.792-34.724
		c29.204,6.43,49.046,32.267,49.663,61.243l935.478,205.96l13.272-60.288c1.509-6.855,2.865-13.836,4.008-20.679L4102.253,7190.863z
		"/>
	<g>
		<path class="st5" d="M4246.322,6911.175l422.105,32.998l745.685,438.303v93.91c-1.061,6.233-2.301,12.582-3.69,18.89
			l-10.342,46.978l-912.448-200.889c-4.974-31.201-28.168-56.511-59.382-63.383c-5.414-1.192-10.95-1.796-16.455-1.796
			c-25.742,0-49.93,13.289-64.197,34.589l-246.431-48.165l14.11-67.441L4246.322,6911.175 M4237.923,6896.848l-135.669,294.015
			l-17.255,82.474l269.529,52.678c10.679-22.012,32.993-36.202,57.268-36.202c4.462,0,8.99,0.479,13.524,1.478
			c29.204,6.43,49.046,32.267,49.663,61.243l935.478,205.96l13.272-60.288c1.509-6.855,2.865-13.836,4.009-20.679v-102.849
			l-755.118-443.848L4237.923,6896.848L4237.923,6896.848z"/>
	</g>
</g>
<polyline class="st5" points="4833.743,3073.598 4914.954,3516.759 5046.852,3450.827 "/>
<path class="st4" d="M5012.453,3460.662c0,0-1145.83-614.109-1295.825-510.476c-308.53,213.166-364.626,1127.536-364.626,1127.536
	s449.097,4.549,712.423,0l143.047-566.573l190.728,229.995l169.483,586.207l-363.5,2333.108l722.534-74.424l464.387-2037.103
	l-187.923-928.394L5012.453,3460.662z"/>
<g>
	<g>
		<polygon id="XMLID_14_" class="st4" points="5090.988,2630.437 5435.979,3331.64 5141.474,4147.842 4785.262,4128.208 
			4987.999,3368.103 4820.172,3047.689 		"/>
	</g>
	<g>
		<defs>
			<polygon id="SVGID_73_" points="5090.988,2630.437 5435.979,3331.64 5141.474,4147.842 4785.262,4128.208 4987.999,3368.103 
				4820.172,3047.689 			"/>
		</defs>
		<clipPath id="SVGID_74_">
			<use xlink:href="#SVGID_73_"  style="overflow:visible;"/>
		</clipPath>
		<path class="st44" d="M5213.558,2651.707c-89.026,61.168-144.508,168.333-143.069,276.337
			c2.075,155.851,113.187,298.146,100.354,453.48c-11.993,145.15-130.845,260.582-260.201,327.507
			c-78.169,40.442-167.626,68.887-253.775,50.882"/>
	</g>
	<g>
		<defs>
			<polygon id="SVGID_75_" points="5090.988,2630.437 5435.979,3331.64 5141.474,4147.842 4785.262,4128.208 4987.999,3368.103 
				4820.172,3047.689 			"/>
		</defs>
		<clipPath id="SVGID_76_">
			<use xlink:href="#SVGID_75_"  style="overflow:visible;"/>
		</clipPath>
		<path class="st45" d="M5546.215,3105.398c-112.721,8.196-201.862,104.757-243.343,209.887
			c-41.481,105.13-46.875,220.367-65.854,331.78c-18.98,111.413-56.222,227.101-143.109,299.376
			c-78.599,65.38-184.316,84.543-283.717,108.45c-99.402,23.907-204.727,60.099-262.366,144.537"/>
	</g>
</g>
<g>
	<path class="st2" d="M5141.478,4152.389c-0.084,0-0.169-0.002-0.253-0.007l-361.797-19.942l1.442-5.406l202.28-758.391
		l-167.005-318.844c-1.164-2.225-0.305-4.974,1.918-6.138c2.228-1.164,4.975-0.305,6.138,1.919l168.649,321.983L4791.1,4123.975
		l350.625,19.326c2.508,0.137,4.43,2.283,4.29,4.79C5145.882,4150.514,5143.875,4152.389,5141.478,4152.389z"/>
</g>
<polygon class="st43" points="4776.848,4161.164 4723.556,4224.273 4723.556,4296.497 "/>
<g>
	<path class="st46" d="M4680.792,6090.736h497.837c239.399,0,420.043-217.292,376.322-452.665l-97.938-527.222
		c0-120.061-280.256-618.746-400.316-618.746h-253.972c-120.061,0-400.316,498.685-400.316,618.746l-97.938,527.222
		C4260.748,5873.444,4441.393,6090.736,4680.792,6090.736z"/>
	<path class="st5" d="M4715.197,5980.256h429.027c206.31,0,361.986-187.259,324.306-390.098l-84.399-454.35
		c0-103.466-241.519-533.223-344.985-533.223h-218.868c-103.466,0-344.985,429.757-344.985,533.223l-84.399,454.35
		C4353.21,5792.997,4508.888,5980.256,4715.197,5980.256z"/>
	<g>
		<rect x="4719.922" y="4801.929" class="st4" width="430.915" height="18.192"/>
	</g>
	<g>
		<path class="st4" d="M5279.002,5766.89h-18.192v-14.054c0-115.351-93.846-209.196-209.197-209.196h-226.797
			c-115.352,0-209.196,93.845-209.196,209.196v14.054h-18.192v-14.054c0-60.496,23.718-117.532,66.789-160.6
			c43.068-43.069,100.104-66.788,160.599-66.788h226.797c60.495,0,117.532,23.719,160.601,66.788
			c43.069,43.068,66.789,100.104,66.789,160.6V5766.89z"/>
	</g>
</g>
<path id="XMLID_18_" class="st43" d="M5005.808,4408.884l24.876-24.037l4.608,4.033c13.099,11.462,32.907,10.55,44.897-2.066
	l12.866-13.537c27.461-28.895,32.615-72.424,12.658-106.933v1.293"/>
<g>
	<path class="st5" d="M5169.204,4705.267c-9.377,0-18.748-3.602-25.865-10.795c-14.132-14.284-14.009-37.318,0.275-51.45
		c42.977-42.519,66.645-96.117,66.645-150.917c0-131.715-132.475-238.871-295.308-238.871s-295.308,107.157-295.308,238.871
		c0,54.113,21.956,105.203,63.495,147.744c14.037,14.377,13.762,37.411-0.614,51.447c-14.375,14.04-37.411,13.763-51.447-0.614
		c-54.295-55.607-84.197-126.13-84.197-198.579c0-42.957,10.105-84.562,30.034-123.662c18.967-37.212,45.971-70.51,80.265-98.969
		c69.164-57.396,160.709-89.005,257.773-89.005c97.064,0,188.61,31.609,257.773,89.005c34.293,28.458,61.299,61.756,80.265,98.969
		c19.928,39.099,30.033,80.706,30.033,123.662c0,74.381-31.336,146.349-88.234,202.642
		C5187.699,4701.763,5178.449,4705.267,5169.204,4705.267z"/>
</g>
<g>
	<path class="st2" d="M5246.646,4742.033c-2.57,0-5.125-1.084-6.923-3.193l-136.021-159.466c-3.259-3.822-2.804-9.562,1.017-12.824
		c3.822-3.257,9.561-2.805,12.823,1.017l136.022,159.466c3.259,3.822,2.804,9.562-1.017,12.824
		C5250.833,4741.317,5248.735,4742.033,5246.646,4742.033z"/>
</g>
<g>
	<path class="st2" d="M4606.522,4742.033c-2.089,0-4.185-0.715-5.899-2.176c-3.821-3.26-4.277-9.001-1.017-12.824l136.022-159.466
		c3.26-3.822,9-4.277,12.823-1.017c3.821,3.26,4.277,9.001,1.017,12.824l-136.022,159.466
		C4611.646,4740.949,4609.092,4742.033,4606.522,4742.033z"/>
</g>
<g>
	<g>
		<path id="XMLID_17_" class="st43" d="M5105.712,4266.345l35.761-118.503l-356.211-19.634l-67.316,173.899l64.458,124.348
			c13.341,25.735,45.599,34.924,70.498,20.081l27.021-16.108l0,0c9.917,10.712,26.38,12.061,37.909,3.108l39.223-30.455l2.319,2.519
			c12.286,13.34,33.047,14.231,46.431,1.994l24.876-22.744l4.608,4.033"/>
	</g>
	<g>
		<defs>
			<path id="SVGID_77_" d="M5105.712,4266.345l35.761-118.503l-356.211-19.634l-67.316,173.899l64.458,124.348
				c13.341,25.735,45.599,34.924,70.498,20.081l27.021-16.108l0,0c9.917,10.712,26.38,12.061,37.909,3.108l39.223-30.455
				l2.319,2.519c12.286,13.34,33.047,14.231,46.431,1.994l24.876-22.744l4.608,4.033"/>
		</defs>
		<clipPath id="SVGID_78_">
			<use xlink:href="#SVGID_77_"  style="overflow:visible;"/>
		</clipPath>
		<polyline class="st47" points="4823.127,4275.46 4805.598,4304.911 4897.455,4449.36 		"/>
	</g>
	<g>
		<defs>
			<path id="SVGID_79_" d="M5105.712,4266.345l35.761-118.503l-356.211-19.634l-67.316,173.899l64.458,124.348
				c13.341,25.735,45.599,34.924,70.498,20.081l27.021-16.108l0,0c9.917,10.712,26.38,12.061,37.909,3.108l39.223-30.455
				l2.319,2.519c12.286,13.34,33.047,14.231,46.431,1.994l24.876-22.744l4.608,4.033"/>
		</defs>
		<clipPath id="SVGID_80_">
			<use xlink:href="#SVGID_79_"  style="overflow:visible;"/>
		</clipPath>
		<line class="st48" x1="4890.443" y1="4285.979" x2="4983.704" y2="4436.738"/>
	</g>
	<g>
		<defs>
			<path id="SVGID_81_" d="M5105.712,4266.345l35.761-118.503l-356.211-19.634l-67.316,173.899l64.458,124.348
				c13.341,25.735,45.599,34.924,70.498,20.081l27.021-16.108l0,0c9.917,10.712,26.38,12.061,37.909,3.108l39.223-30.455
				l2.319,2.519c12.286,13.34,33.047,14.231,46.431,1.994l24.876-22.744l4.608,4.033"/>
		</defs>
		<clipPath id="SVGID_82_">
			<use xlink:href="#SVGID_81_"  style="overflow:visible;"/>
		</clipPath>
		<line class="st49" x1="4954.253" y1="4280.369" x2="5066.445" y2="4424.116"/>
	</g>
	<g>
		<defs>
			<path id="SVGID_83_" d="M5105.712,4266.345l35.761-118.503l-356.211-19.634l-67.316,173.899l64.458,124.348
				c13.341,25.735,45.599,34.924,70.498,20.081l27.021-16.108l0,0c9.917,10.712,26.38,12.061,37.909,3.108l39.223-30.455
				l2.319,2.519c12.286,13.34,33.047,14.231,46.431,1.994l24.876-22.744l4.608,4.033"/>
		</defs>
		<clipPath id="SVGID_84_">
			<use xlink:href="#SVGID_83_"  style="overflow:visible;"/>
		</clipPath>
		<polyline class="st50" points="5033.001,4244.174 5101.067,4321.101 5123.621,4266.345 		"/>
	</g>
	<g>
		<defs>
			<path id="SVGID_85_" d="M5105.712,4266.345l35.761-118.503l-356.211-19.634l-67.316,173.899l64.458,124.348
				c13.341,25.735,45.599,34.924,70.498,20.081l27.021-16.108l0,0c9.917,10.712,26.38,12.061,37.909,3.108l39.223-30.455
				l2.319,2.519c12.286,13.34,33.047,14.231,46.431,1.994l24.876-22.744l4.608,4.033"/>
		</defs>
		<clipPath id="SVGID_86_">
			<use xlink:href="#SVGID_85_"  style="overflow:visible;"/>
		</clipPath>
		<line class="st51" x1="4763.918" y1="4193.999" x2="4717.947" y2="4317.533"/>
	</g>
</g>
<path class="st43" d="M3845.649,1519.73l16.828-203.349l-25.198-197.797c-1.609-12.63,6.774-24.371,19.242-26.95l0,0
	c10.926-2.261,21.99,3.184,26.865,13.22l60.362,124.274c0.788,1.622,3.214,1.155,3.343-0.644l15.898-221.343
	c1.049-14.615,13.213-25.935,27.865-25.935l0,0c13.397,0,24.908,9.51,27.436,22.668l41.881,218.027
	c0.84,4.371,4.665,7.532,9.118,7.532l0,0c4.49,0,8.337-3.214,9.136-7.631l73.123-206.852c2.63-14.546-4.093-33.742-4.093-33.742l0,0
	c16.879,0,30.563,13.683,30.563,30.563v228.78c0,3.543,1.921,6.807,5.017,8.529l0,0c4.334,2.407,9.783,1.184,12.669-2.847
	l125.886-157.539c6.134-8.562,17.633-11.305,26.971-6.434l0,0c9.207,4.803,13.563,15.581,10.278,25.432l-102.287,306.86l7.012,2.804
	c0,0,102.461-86.182,153.876-67.06c17.499,6.509,22.129,29.375,8.822,42.471c-17.326,17.049-38.57,46.093-44.896,59.649
	c-19.633,42.073-109.387,114.998-109.387,114.998L3845.649,1519.73z"/>
<path class="st43" d="M4677.238,2669.991l-0.729,0.365c-48.205,31.105-106.962,30.925-155.168-0.365l31.47-120.789h92.956
	l10.915,41.657L4677.238,2669.991z"/>
<path class="st25" d="M4656.681,2590.861c-8.186,18.009-26.377,30.56-47.479,30.56c-28.561,0-51.846-23.285-51.846-51.846
	c0-7.276,1.455-14.188,4.185-20.374h84.223L4656.681,2590.861z"/>
<path class="st43" d="M4653.407,2531.556v22.557c0,0.728,0,1.274-0.182,2c-0.91,28.924-24.921,52.208-54.028,52.208
	c-18.372,0-34.745-9.277-44.386-23.648c-6.002-8.731-9.641-19.282-9.641-30.56v-22.557c0-14.916,6.185-28.378,15.827-38.2
	c9.823-9.824,23.466-15.828,38.2-15.828C4629.03,2477.528,4653.407,2501.904,4653.407,2531.556z"/>
<g>
	<path class="st5" d="M2663.931,4627.456c2.79-58.852,17.457-114.645,41.574-165.038c22.406-46.974,53.183-89.358,90.348-125.083
		c25.555-24.747,54.263-46.254,85.398-63.982c63.081-36.175,136.153-56.782,214.08-56.782l57.862-6.749
		c4.409-0.54,8.819-1.169,13.138-2.159c41.844-8.64,78.019-35.185,98.716-73.07l30.776-56.063
		c3.959-7.198,9.628-12.958,16.377-17.007c6.838-3.959,14.668-6.209,22.856-6.209c4.229,0,7.918,2.79,9.18,6.838l18.447,61.821
		c12.059,40.225,48.413,68.3,90.438,69.831l442.56,15.568c28.797,0.99,56.513-10.708,75.86-31.946l4.77-5.221
		c14.129-15.478,34.195-24.387,55.162-24.387c15.391,0.002,27.539,13.32,26.099,28.619l-41.573,451.019"/>
	<path class="st5" d="M3694.902,4636.268c-30.327,0-63.16,4.416-70.09,32.582"/>
	<path class="st4" d="M4015.996,4627.455l-7.648,82.789h-248.457c-6.838-28.166-32.216-49.133-62.541-49.133
		c-30.327,0-55.612,20.967-62.542,49.133H2663.39v-61.731c0-7.019,0.18-14.129,0.539-21.058H4015.996z"/>
	<g>
		<path class="st5" d="M3524.841,4298.769l477.526,194.448v133.61l-6.448,69.788h-226.09c-11.635-29.401-40.065-49.133-72.48-49.133
			c-32.325,0-60.751,19.736-72.455,49.133h-947.876v-48.102c0-6.429,0.155-12.869,0.461-19.162l24.241-104.572L3524.841,4298.769
			 M3525.695,4284.401l-835.416,229.386l-26.349,113.668c-0.359,6.929-0.539,14.038-0.539,21.058v61.73h971.417
			c6.93-28.166,32.215-49.133,62.542-49.133c30.325,0,55.702,20.967,62.541,49.133h248.457l7.648-82.788v-143.403L3525.695,4284.401
			L3525.695,4284.401z"/>
	</g>
</g>
<path class="st5" d="M4589.106,2502.341c7.153-4.8,16.454-4.823,24.998-3.718s17.15,3.166,25.673,1.916
	c8.523-1.249,17.194-6.934,18.542-15.443c0.917-5.793-1.715-11.603-5.191-16.328c-6.618-8.994-16.832-15.522-27.938-16.677
	c-11.107-1.155-22.888,3.472-29.434,12.518c-1.669,2.308-3.043,4.91-5.282,6.672c-4.04,3.177-9.691,2.812-14.806,3.321
	c-16.969,1.69-32.194,15.253-33.034,32.801c-0.294,6.138,1.906,12.229,7.315,15.555c7.046,4.332,15.89,3.591,22.056-1.836
	C4578.39,2515.501,4581.937,2507.154,4589.106,2502.341z"/>
<g class="st52">
	<g>
		<g>
			<path class="st5" d="M5037.25,2104.08l399.746-117.931l82.572-1.148l-402.281,115.947L5037.25,2104.08z M5437.556,1990.668
				l-364.008,107.441l43.008-1.684l379.447-109.795L5437.556,1990.668z"/>
		</g>
	</g>
	<g>
		<g>
			<path class="st5" d="M5435.084,1990.838l-0.197-2.22l-85.033-954.57l84.55-5.859l0.197,2.222L5519.567,1985L5435.084,1990.838z
				 M5354.794,1038.265l84.423,947.729l75.407-5.21l-84.357-947.747L5354.794,1038.265z"/>
		</g>
	</g>
	<g>
		<g>
			<polygon id="SVGID_17_" class="st43" points="5437.15,1988.417 5036.976,2104.21 4952.15,1151.951 5349.854,1034.049 			"/>
		</g>
		<g>
			<defs>
				<polygon id="SVGID_87_" points="5437.15,1988.417 5036.976,2104.21 4952.15,1151.951 5352.324,1036.157 				"/>
			</defs>
			<clipPath id="SVGID_88_">
				<use xlink:href="#SVGID_87_"  style="overflow:visible;"/>
			</clipPath>
			<g class="st53">
				<path class="st2" d="M5210.617,2123.119c-37.41-8.503-61.362-43.032-71.306-72.513c-10.486-31.093-11.038-64.58-11.572-96.964
					l-0.112-6.608c-1.579-88.329-10.657-188.724-66.021-263.609c-13.213-17.871-29.065-34.238-44.396-50.066
					c-20.498-21.163-41.695-43.048-56.953-68.884c-33.929-57.458-35.42-127.571-34.04-194.457
					c1.535-74.412,5.639-152.944,36.777-223.232c11.361-25.649,26.301-49.937,40.75-73.425c15.8-25.684,32.135-52.241,43.692-80.479
					c21.318-52.087,23.736-122.16-18.919-161.295l3.074-3.352c20.408,18.724,32.505,45.674,34.989,77.936
					c2.17,28.195-3.134,59.602-14.935,88.434c-11.699,28.582-28.132,55.299-44.026,81.139
					c-14.369,23.36-29.228,47.515-40.466,72.885c-30.794,69.516-34.862,147.532-36.386,221.482
					c-1.369,66.233,0.085,135.62,33.408,192.051c14.983,25.372,35.989,47.059,56.302,68.033
					c15.434,15.935,31.394,32.412,44.786,50.527c56.125,75.917,65.319,177.183,66.911,266.232l0.111,6.615
					c0.529,32.036,1.074,65.164,11.334,95.585c9.551,28.312,32.429,61.446,68.004,69.532L5210.617,2123.119z"/>
			</g>
		</g>
		<g>
			<defs>
				<polygon id="SVGID_89_" points="5437.15,1988.417 5036.976,2104.21 4952.15,1151.951 5352.324,1036.157 				"/>
			</defs>
			<clipPath id="SVGID_90_">
				<use xlink:href="#SVGID_89_"  style="overflow:visible;"/>
			</clipPath>
			<g class="st54">
				<path class="st2" d="M5626.254,2202.567c-66.406-3.392-131.042-33.211-182.003-83.959
					c-50.96-50.748-81.048-115.26-84.718-181.651c-1.785-32.31,2.065-64.939,5.788-96.493c2.533-21.459,5.15-43.65,5.965-65.509
					c4.672-125.361-52.946-252.332-150.365-331.365c-11.358-9.214-23.534-18.086-35.308-26.662
					c-32.166-23.431-65.423-47.661-86.45-81.979c-17.03-27.791-26.267-62.81-27.452-104.081
					c-1.499-52.167,10.399-105.41,34.409-153.97c24.009-48.562,59.091-90.341,101.454-120.823l2.657,3.69
					c-85.668,61.644-137.002,165.475-133.974,270.972c1.163,40.466,10.173,74.73,26.783,101.835
					c20.558,33.549,53.445,57.509,85.252,80.679c11.821,8.613,24.045,17.517,35.496,26.807
					c98.508,79.916,156.768,208.306,152.046,335.066c-0.822,22.041-3.451,44.323-5.995,65.874
					c-3.701,31.363-7.529,63.793-5.765,95.709c7.451,134.763,127.622,254.432,262.412,261.319L5626.254,2202.567z"/>
			</g>
		</g>
	</g>
</g>
<g class="st52">
	<g>
		<g>
			<path class="st5" d="M2834.842,2876.666l184.015-373.955l55.087-61.522l-187.191,374.475l-0.18,0.212L2834.842,2876.666z
				 M3022.562,2505.359l-167.528,340.559l27.895-32.779l176.25-353.509L3022.562,2505.359z"/>
		</g>
	</g>
	<g>
		<g>
			<path class="st5" d="M3021.012,2507.293l-761.595-585.393l52.96-66.166l1.768,1.359l759.798,584.095L3021.012,2507.293z
				 M2265.867,1921.121l754.383,579.849l47.245-59.004l-754.352-579.91L2265.867,1921.121z"/>
		</g>
	</g>
	<g>
		<g>
			<polygon id="SVGID_19_" class="st43" points="3020.631,2504.133 2834.752,2876.956 2076.763,2294.335 2259.417,1921.901 			"/>
		</g>
		<g>
			<defs>
				<polygon id="SVGID_91_" points="3020.631,2504.133 2834.752,2876.956 2076.763,2294.335 2262.643,1921.512 				"/>
			</defs>
			<clipPath id="SVGID_92_">
				<use xlink:href="#SVGID_91_"  style="overflow:visible;"/>
			</clipPath>
			<g class="st55">
				<path class="st2" d="M2916.146,2776.617c-18.561,0-36.8-4.704-51.509-11.252c-29.975-13.347-54.983-35.623-79.169-57.167
					l-4.937-4.395c-66.049-58.669-146.054-119.993-238.645-129.991c-22.097-2.385-44.876-1.809-66.903-1.252
					c-29.456,0.745-59.913,1.514-89.253-4.763c-65.251-13.96-117.838-60.353-166.109-106.676
					c-53.702-51.534-108.695-107.748-139.31-178.262c-11.172-25.733-18.92-53.175-26.412-79.714
					c-8.192-29.019-16.664-59.026-29.608-86.655c-23.877-50.964-73.796-100.209-131.473-95.338l-0.382-4.531
					c27.596-2.331,55.617,7.026,81.033,27.052c22.212,17.503,41.724,42.677,54.94,70.887c13.103,27.966,21.625,58.153,29.867,87.349
					c7.452,26.394,15.156,53.687,26.207,79.139c30.28,69.741,84.917,125.578,138.287,176.792
					c47.8,45.869,99.828,91.8,163.912,105.51c28.813,6.165,58.995,5.402,88.186,4.664c22.177-0.562,45.108-1.142,67.507,1.276
					c93.864,10.134,174.59,71.965,241.177,131.112l4.943,4.398c23.925,21.312,48.666,43.349,77.993,56.408
					c27.296,12.154,67.167,17.766,97.214-2.93l2.579,3.745C2951.035,2772.524,2933.451,2776.617,2916.146,2776.617z"/>
			</g>
		</g>
		<g>
			<defs>
				<polygon id="SVGID_93_" points="3020.631,2504.133 2834.752,2876.956 2076.763,2294.335 2262.643,1921.512 				"/>
			</defs>
			<clipPath id="SVGID_94_">
				<use xlink:href="#SVGID_93_"  style="overflow:visible;"/>
			</clipPath>
			<g class="st56">
				<path class="st2" d="M3107.599,2587.39c-66.771,0-129.327-21.426-177.398-61.016c-24.979-20.572-46.375-45.507-67.065-69.621
					c-14.072-16.399-28.621-33.355-44.15-48.761c-89.057-88.351-221.493-131.967-345.622-113.837
					c-14.473,2.114-29.244,5.063-43.529,7.915c-39.024,7.789-79.377,15.845-118.867,8.069c-31.98-6.297-63.996-23.223-95.162-50.307
					c-39.391-34.234-70.5-79.051-89.961-129.607c-19.462-50.556-26.435-104.664-20.164-156.474l4.515,0.546
					c-12.679,104.775,28.931,212.871,108.594,282.102c30.558,26.555,61.866,43.135,93.058,49.276
					c38.608,7.604,78.51-0.361,117.1-8.067c14.342-2.862,29.173-5.822,43.762-7.954c125.512-18.337,259.43,25.77,349.483,115.107
					c15.659,15.534,30.268,32.562,44.398,49.028c20.565,23.966,41.83,48.751,66.505,69.072
					c104.183,85.802,273.617,78.458,369.987-16.035l3.184,3.248c-47.477,46.552-113.194,73.904-185.046,77.02
					C3116.659,2587.292,3112.119,2587.39,3107.599,2587.39z"/>
			</g>
		</g>
	</g>
</g>
<g>
	<polygon class="st2" points="4191.009,3057.551 4195.111,3049.433 4974.93,3433.675 4970.828,3441.793 	"/>
</g>
<g>
	<path class="st2" d="M3890.251,2282.116c-1.969,0-3.785-1.29-4.364-3.277c-0.703-2.412,0.682-4.936,3.094-5.639l78.808-22.975
		c2.41-0.701,4.936,0.682,5.639,3.094c0.703,2.411-0.682,4.936-3.094,5.639l-78.808,22.975
		C3891.101,2282.056,3890.674,2282.116,3890.251,2282.116z"/>
</g>
<path class="st57" d="M2670.53,3736.972h606.101l0,0c-9.76-43.19-9.76-88.014,0-131.204l0,0H2670.53l0,0
	C2660.769,3648.959,2660.769,3693.783,2670.53,3736.972L2670.53,3736.972z"/>
<path class="st57" d="M2646.286,3599.543h606.101l0,0c-9.76-43.19-9.76-88.014,0-131.205l0,0h-606.101l0,0
	C2636.525,3511.53,2636.525,3556.354,2646.286,3599.543L2646.286,3599.543z"/>
<path class="st57" d="M2646.286,3324.685h606.101l0,0c-9.76-43.189-9.76-88.012,0-131.203l0,0h-606.101l0,0
	C2636.525,3236.671,2636.525,3281.495,2646.286,3324.685L2646.286,3324.685z"/>
<path class="st57" d="M2701.7,3462.114h606.101l0,0c-9.761-43.189-9.761-88.012,0-131.203l0,0H2701.7l0,0
	C2691.941,3374.1,2691.941,3418.924,2701.7,3462.114L2701.7,3462.114z"/>
<g>
	<path class="st58" d="M6929.167,2335.104c-42.794,22.401-84.108,47.626-123.589,75.457
		c-40.973,28.882-83.402,66.949-85.562,117.031c-1.86,43.136,27.048,80.969,55.89,113.099c28.842,32.129,60.66,65.86,66.818,108.596
		c5.587,38.766-11.917,78.116-38.32,107.044c-26.403,28.929-60.938,49.016-95.564,67.317
		c-41.353,21.856-88.616,48.033-97.323,93.988c-1.431,7.553-1.692,15.32-3.63,22.759c-3.879,14.88-14.126,27.236-25.012,38.096
		c-54.344,54.219-132.855,83.259-209.401,77.454c-76.546-5.805-149.781-46.351-195.328-108.144
		c-29.41-39.899-47.621-89.861-41.651-139.066c6.823-56.228,44.208-104.975,89.456-139.045
		c28.286-21.297,59.931-37.978,87.234-60.52c6.755-5.577,13.336-11.573,21.239-15.351c6.662-3.186,13.984-4.661,21.147-6.461
		c33.991-8.536,65.95-25.06,92.569-47.857c11.573-9.912,22.332-21.257,28.783-35.061c10.695-22.887,8.355-49.367,9.322-74.612
		c1.218-31.77,8.244-63.728,23.873-91.417c28.608-50.681,81.473-81.037,131.795-106.522c20.528-10.397,38.342-11.851,61.173-11.134
		c35.814,1.124,71.613,2.827,107.377,5.039c20,1.237,39.991,2.64,59.967,4.208c9.797,0.771,19.59,1.579,29.38,2.428
		c4.991,0.433,9.981,0.876,14.97,1.329C6917.81,2334.043,6926.583,2336.458,6929.167,2335.104z"/>
	<path class="st58" d="M6699.877,2237.842c3.364,3.229,1.472,8.837-0.695,12.967c-21.926,41.784-51.372,79.201-74.222,120.488
		c-22.849,41.287-39.19,88.732-31.42,135.277c8.412,50.391,43.739,92.838,54.149,142.853
		c13.208,63.458-15.667,128.184-51.78,182.011c-25.031,37.311-53.897,72.045-85.999,103.48
		c-52.261,51.176-114.29,95.165-149.299,159.389c-51.047-142.191-171.24-246.569-287.994-342.448
		c-27.868-22.885-58.216-50.322-59.151-86.369c-0.468-18.096,6.855-35.473,15.427-51.418
		c26.974-50.164,66.994-91.806,104.572-134.608c32.333-36.819,63.17-74.951,92.424-114.258
		c17.396-23.374,34.516-51.141,61.542-64.517c26.944-13.335,60.476-14.796,89.683-19.302
		c50.605-7.807,101.281-15.161,152.018-22.063c50.547-6.874,101.155-13.299,151.815-19.272
		C6687.258,2239.309,6693.567,2238.572,6699.877,2237.842z"/>
	<g>
		<g>
			<path id="XMLID_6_" class="st43" d="M6327.37,2148.642c0,0,13.963,260.657,111.709,442.187
				c97.748,181.529,37.238,409.605,37.238,409.605l-754.045,153.602c0,0-84.238-300.285-172.221-423.569
				c-80.254-112.456-88.437-265.312-88.437-265.312L6327.37,2148.642z"/>
		</g>
		<g>
			<defs>
				<path id="SVGID_95_" d="M6327.37,2148.642c0,0,13.963,260.657,111.709,442.187c97.748,181.529,37.238,409.605,37.238,409.605
					l-754.045,153.602c0,0-84.238-300.285-172.221-423.569c-80.254-112.456-88.437-265.312-88.437-265.312L6327.37,2148.642z"/>
			</defs>
			<clipPath id="SVGID_96_">
				<use xlink:href="#SVGID_95_"  style="overflow:visible;"/>
			</clipPath>
			<path class="st59" d="M5404.675,2515.166c22.823-83.397,106.972-139.371,192.629-151.143
				c85.659-11.772,172.196,13.051,252.242,45.741c80.044,32.69,157.128,73.627,240.476,96.625
				c157.521,43.466,324.909,19.929,487.83,32.517c33.515,2.589,67.585,6.908,98.004,21.213
				c30.419,14.304,57.033,40.167,64.624,72.913c8.768,37.831-8.923,77.01-32.2,108.094c-31.324,41.83-74.964,75.946-125.707,88.439
				c-52.629,12.955-107.811,2.088-161.075-7.943c-228.234-42.988-460.914-70.18-692.693-55.447
				c-112.283,7.137-229.14,26.18-319.3,93.48c-62.303,46.506-106.923,112.48-162.911,166.423
				c-46.869,45.157-104.198,82.751-168.639,91.866c-64.442,9.115-136.271-15.492-170.115-71.085
				c-3.766-6.186-7.108-12.933-7.42-20.168c-0.433-10.102,5.053-19.436,10.759-27.783c33.473-48.967,81.647-87.744,136.634-109.982
				c75.072-30.362,159.292-29.48,239.388-17.564c132.154,19.661,259.39,67.85,392.458,79.86
				c141.101,12.733,284.077-15.691,424.519,2.949c164.183,21.791,312.532,105.917,456.157,188.395"/>
		</g>
	</g>
	<g>
		<g>
			<path id="XMLID_5_" class="st43" d="M7104.688,3154.035c0,0-65.164-18.618-223.42-148.948
				c-158.257-130.328-386.433-7.276-386.433-7.276l-772.562,156.224c0,0,363.059-46.546,442.187,51.201
				c79.128,97.747,69.819,125.674,69.819,125.674L7104.688,3154.035z"/>
		</g>
		<g>
			<defs>
				<path id="SVGID_97_" d="M7104.688,3154.035c0,0-65.164-18.618-223.42-148.948c-158.257-130.328-386.433-7.276-386.433-7.276
					l-772.562,156.224c0,0,363.059-46.546,442.187,51.201c79.128,97.747,69.819,125.674,69.819,125.674L7104.688,3154.035z"/>
			</defs>
			<clipPath id="SVGID_98_">
				<use xlink:href="#SVGID_97_"  style="overflow:visible;"/>
			</clipPath>
			<path class="st60" d="M5886.275,3317.766c-20.662-35.453-1.263-83.571,32.102-107.459c33.366-23.886,76.25-29.232,117.206-31.76
				c355.896-21.961,702.19,111.782,1057.224,144.877c102.55,9.56,207.851,10.422,306.37-19.614
				c21.397-6.523,44.845-16.895,52.128-38.045c5.084-14.763,0.741-31.077-5.312-45.47
				c-25.004-59.445-78.136-103.689-136.905-130.244c-58.767-26.557-123.311-37.312-187.269-45.587
				c-121.557-15.726-247-23.141-365.042,9.864c-49.488,13.837-97.293,34.684-148.18,41.833
				c-48.365,6.794-97.533,0.927-145.924-5.677c-115.793-15.802-232.185-35.866-348.797-28.157
				c-116.61,7.709-235.953,46.592-316.001,131.74"/>
		</g>
	</g>
	<polygon class="st5" points="6481.273,2978.108 6494.834,2997.812 5722.272,3172.359 5722.272,3154.035 	"/>
</g>
<path class="st5" d="M5117.791,4231.84c0,0-46.687,14.197-28.806,68.317l42.693,4.028"/>
<path class="st43" d="M3965.099,1279.285l-102.621,37.096l-43.355-214.687c-2.018-9.992,3.585-19.954,13.172-23.419l33.845-12.234
	c10.685-3.862,22.478,1.668,26.341,12.354L3965.099,1279.285z"/>
<path class="st43" d="M4071.901,1236.902l-129.25,6.882l7.276-259.585c0.339-12.081,8.101-21.751,18.247-22.732l35.822-3.462
	c11.309-1.093,21.531,8.926,22.831,22.378L4071.901,1236.902z"/>
<path class="st43" d="M4193.177,1262.65l-127.08-29.661l65.205-262.037c3.035-12.195,12.77-20.288,22.884-19.024l35.711,4.462
	c11.274,1.409,19,13.861,17.257,27.814L4193.177,1262.65z"/>
<path class="st43" d="M4293.171,1304.32l-108.701-45.117l128.515-197.213c5.752-8.672,16.191-12.076,24.539-8.001l29.472,14.385
	c9.304,4.541,12.713,16.692,7.614,27.139L4293.171,1304.32z"/>
<path class="st43" d="M4431.121,1362.508l6.144,12.041c5.663,13.152,5.562,24.684-4.112,34.193l-65.924,65.791l9.75-79.398
	L4431.121,1362.508z"/>
<line class="st61" x1="4064.425" y1="4077.721" x2="4215.885" y2="3478.379"/>
</svg>
