<svg width="250" height="122" viewBox="0 0 250 122" fill="none" xmlns="http://www.w3.org/2000/svg">
<g clip-path="url(#clip0_80_204)">
<path d="M250 49.2871C247.494 49.2871 245.016 49.2871 242.51 49.4496C240.004 49.6122 237.553 49.4496 235.075 49.4496H233.223C232.609 49.4548 231.997 49.3911 231.398 49.26C230.199 48.989 229.001 48.8264 227.803 48.6368L220.612 47.4716L216.99 46.9026L213.449 46.4149C211.107 46.1169 208.765 45.9001 206.368 45.7646C201.639 45.4981 196.896 45.5706 192.178 45.9814C182.771 46.7776 173.521 48.8751 164.697 52.2134C162.49 53.0534 160.366 53.9475 158.133 54.923L151.514 57.6325L138.25 63.3497L136.97 63.8916L135.282 63.1329C133.929 62.3887 132.675 61.4784 131.55 60.4234C130.45 59.4929 129.265 58.6674 128.01 57.9577C127.413 57.578 126.795 57.2342 126.158 56.928C126.854 56.5681 127.573 56.2514 128.309 55.9797C129.045 55.7087 129.78 55.492 130.543 55.2752C131.843 55.6505 133.117 56.1122 134.356 56.6571C135.282 57.0906 136.262 57.4158 137.079 57.8764L148.791 52.8908L155.409 50.0457C157.588 49.0974 159.903 48.1219 162.218 47.3362C171.643 43.7517 181.526 41.4989 191.579 40.6435C196.605 40.2055 201.657 40.133 206.695 40.4268C209.228 40.5622 211.733 40.8061 214.239 41.1042L217.943 41.619L221.566 42.188L228.783 43.3531C229.981 43.5428 231.18 43.7595 232.405 43.8679C233.017 43.9291 233.619 44.0563 234.203 44.2473L235.946 44.7892L242.973 46.9839C245.343 47.6613 247.685 48.4471 250 49.2871Z" fill="#ffffff"/>
<path d="M130.57 55.2752C129.807 55.492 129.072 55.7087 128.336 55.9797C127.6 56.2514 126.882 56.5681 126.185 56.928C125.477 56.5758 124.741 56.2777 124.006 55.9797C123.271 55.6816 122.535 55.492 121.773 55.2752L122.889 54.9771C123.976 54.7375 125.077 54.5656 126.185 54.4623C127.284 54.5679 128.375 54.7398 129.453 54.9771L130.57 55.2752Z" fill="#193256"/>
<path d="M130.57 55.2752C129.807 55.492 129.072 55.7087 128.336 55.9797C127.6 56.2514 126.882 56.5681 126.185 56.928C125.535 57.2282 124.908 57.5722 124.305 57.9577C123.072 58.6953 121.906 59.5385 120.819 60.4776C119.705 61.545 118.45 62.4565 117.088 63.1871L115.427 63.9458L114.146 63.4039L100.773 57.7409L94.1279 55.0313C91.8945 54.083 89.7701 53.1888 87.5912 52.3218C78.8018 48.9867 69.59 46.8803 60.219 46.0627C55.4912 45.6519 50.7399 45.5794 46.0017 45.8459C43.6322 45.9814 41.2899 46.1981 38.9476 46.4962L35.4069 46.9839L31.7845 47.5529L24.5125 48.5826C23.3141 48.7722 22.0884 48.9348 20.9173 49.2058C20.3179 49.3358 19.7059 49.3994 19.0925 49.3954H17.2404C14.7892 49.3954 12.2835 49.3954 9.80497 49.3954C7.32649 49.3954 4.84801 49.3954 2.34229 49.2329C4.65735 48.3929 6.99966 47.6071 9.34196 46.8484C11.6843 46.0898 13.9993 45.4124 16.3416 44.7079L18.0847 44.166C18.6683 43.975 19.2711 43.8478 19.8823 43.7866C21.1079 43.7866 22.3063 43.4615 23.5047 43.2718L30.7495 42.1609L34.3719 41.5919L38.1305 41.0771C40.6362 40.779 43.1419 40.5351 45.6749 40.3997C50.7122 40.1061 55.7642 40.1786 60.7909 40.6164C70.7499 41.4737 80.5402 43.708 89.8791 47.2549C92.2214 48.1219 94.5092 49.0974 96.6881 49.9644L103.497 52.8908L115.181 57.8764C116.107 57.4158 117.088 57.0906 117.905 56.6571C119.136 56.1165 120.401 55.6549 121.691 55.2752L122.807 54.9771C123.894 54.7376 124.995 54.5656 126.103 54.4623C127.202 54.5679 128.293 54.7398 129.371 54.9771L130.57 55.2752Z" fill="#ffffff"/>
<path d="M99.3572 52.9179C99.559 49.8922 100.033 46.8906 100.774 43.9492C100.937 43.2447 101.155 42.4047 101.209 41.9983C101.251 41.5205 101.251 41.04 101.209 40.5622C101.03 39.6667 100.648 38.8234 100.093 38.0965C99.8173 37.7328 99.497 37.4051 99.1393 37.1211C98.9601 36.9704 98.7688 36.8345 98.5674 36.7146L98.0499 36.5521L97.7775 36.4166L93.6649 34.7096L85.3306 31.4581L87.5912 30.3201L85.603 35.2244L83.5875 40.1558V39.3158C85.031 42.3776 86.4473 45.4394 87.8636 48.5284L87.3734 48.7993C85.4668 46.0897 83.5875 43.1905 81.7082 40.3455L81.4904 40.0203L81.6265 39.5055L82.9339 34.3302L84.2684 29.182L84.677 27.5292L86.529 28.044L95.1356 30.4013L99.4662 31.4852H99.7385H100.093L100.828 31.729C101.3 31.9165 101.756 32.1431 102.19 32.4064C103.077 32.9418 103.86 33.6299 104.505 34.4386C105.799 36.0548 106.501 38.0621 106.493 40.1287C106.495 41.2311 106.292 42.3244 105.894 43.3531C105.598 44.1286 105.243 44.8804 104.832 45.602C103.415 48.2842 101.756 50.8326 99.8747 53.2159L99.3572 52.9179Z" fill="#ffffff"/>
<path d="M0 43.3531C2.72361 42.1338 5.44722 40.9416 8.17082 39.7765L16.3416 36.2269L24.5125 32.7587C25.8743 32.1897 27.2361 31.6749 28.6251 31.0517C30.0481 30.4421 31.5028 29.9084 32.9829 29.453C38.9533 27.4847 45.2643 26.7471 51.5307 27.2854C57.7952 27.9698 63.8115 30.1042 69.0979 33.5174L66.102 34.7096C67.028 32.4064 67.9813 30.1033 68.989 27.8273C69.4792 26.6892 70.024 25.5512 70.5414 24.4132C71.0589 23.2752 71.6309 22.1643 72.2029 21.0533H72.7203C72.5842 22.3268 72.3935 23.5461 72.2301 24.7925C72.0667 26.0389 71.8215 27.2583 71.5764 28.4776C71.1406 30.9433 70.6232 33.3819 70.1057 35.7934L69.5882 38.0965L67.1097 37.0127C64.5196 35.9172 61.8524 35.0116 59.1295 34.3031C56.4469 33.5994 53.7159 33.0922 50.9587 32.7858C48.1649 32.4759 45.3509 32.3853 42.5428 32.5148C39.7219 32.6061 36.9188 32.9967 34.1813 33.6799C32.8079 34.0256 31.4534 34.4417 30.1231 34.9263L29.0609 35.3057L27.9987 35.6308L25.8743 36.3082C23.1507 37.2024 20.1819 38.0423 17.3221 39.0178L8.77002 41.5377L0.190653 44.0034L0 43.3531Z" fill="#ffffff"/>
<path d="M78.2654 25.9419L73.371 28.1292L75.5696 32.9983L80.464 30.811L78.2654 25.9419Z" fill="#ffffff"/>
<path d="M237.924 36.4293L234.13 40.2037L237.924 43.9781L241.718 40.2037L237.924 36.4293Z" fill="#ffffff"/>
<path d="M245.136 38.7328L241.342 42.5072L245.136 46.2817L248.93 42.5072L245.136 38.7328Z" fill="#ffffff"/>
<path d="M76.8271 32.9837L71.9327 35.171L74.1313 40.0401L79.0257 37.8529L76.8271 32.9837Z" fill="#ffffff"/>
<path d="M126.186 40.2356L121.699 44.6998L126.186 49.1639L130.673 44.6998L126.186 40.2356Z" fill="#ffffff"/>
<path d="M229.219 33.3819C222.9 32.569 216.581 31.729 210.154 30.9704C200.731 29.8805 191.189 30.4492 181.964 32.6503C180.439 33.0025 178.914 33.3819 177.416 33.8154C176.653 34.0051 175.891 34.2489 175.155 34.4657L172.895 35.1431C169.899 36.0644 166.984 37.2024 164.016 38.3675C161.047 39.5326 158.242 40.6435 155.246 41.7544V41.5648C157.969 39.9932 160.693 38.503 163.662 37.0669C166.517 35.6055 169.465 34.3293 172.486 33.2464C175.527 32.1742 178.64 31.3141 181.801 30.6723C184.96 30.1033 188.147 29.6698 191.361 29.3988C197.717 28.8779 204.112 29.0688 210.426 29.9678C216.718 30.9975 222.955 32.1084 229.246 33.1922L229.219 33.3819Z" fill="#ffffff"/>
<path d="M189.972 12.3285L177.961 14.8213C174.01 15.6933 170.172 17.0115 166.521 18.7502C162.935 20.5577 159.501 22.6509 156.253 25.0093C154.592 26.1473 153.04 27.4208 151.433 28.6672C149.826 29.9136 148.219 31.2142 146.53 32.3793C147.837 30.7807 149.254 29.2633 150.616 27.7731C152.025 26.2541 153.545 24.8413 155.164 23.5462C156.796 22.2454 158.536 21.0852 160.366 20.0779C162.191 19.1025 164.07 18.2083 165.977 17.3683C169.812 15.7887 173.813 14.6434 177.906 13.9543C181.964 13.3311 186.077 12.7892 190.081 12.2473L189.972 12.3285Z" fill="#ffffff"/>
<path d="M69.1252 13.0601C73.2106 13.4124 77.296 13.8188 81.3542 14.2523C85.4666 14.7648 89.506 15.7467 93.3925 17.1787C95.3535 17.9102 97.2601 18.7231 99.1393 19.6173C101.051 20.5326 102.875 21.621 104.587 22.8688C106.226 24.1008 107.774 25.4502 109.217 26.906C110.66 28.315 112.104 29.7782 113.466 31.3226V31.4852C111.695 30.3743 110.034 29.182 108.4 27.9627C106.765 26.7434 105.131 25.5783 103.443 24.5216C100.099 22.2822 96.5734 20.3245 92.9023 18.6689C89.186 17.0991 85.3028 15.9538 81.327 15.2549L69.2069 13.2498L69.1252 13.0601Z" fill="#ffffff"/>
<path d="M89.6884 0C93.3653 1.81541 97.0149 3.63082 100.583 5.41914C104.231 7.3837 107.647 9.74657 110.769 12.464C112.322 13.8459 113.792 15.1736 115.236 16.7993C116.628 18.3402 117.894 19.9893 119.022 21.7307C120.136 23.4666 121.128 25.2773 121.99 27.1499C122.835 29.0195 123.652 30.8891 124.36 32.8129H124.169C122.944 31.1329 121.827 29.453 120.71 27.7189C119.594 25.9848 118.559 24.3319 117.36 22.7062C115.05 19.4297 112.472 16.3484 109.652 13.4937C106.755 10.6869 103.548 8.21458 100.093 6.12362L89.5795 0.18967L89.6884 0Z" fill="#ffffff"/>
<path d="M162.736 0.18967L152.168 6.36748C148.713 8.45844 145.506 10.9308 142.608 13.7375C139.789 16.5923 137.211 19.6736 134.9 22.95C133.702 24.5758 132.64 26.2557 131.523 27.9627C130.406 29.6698 129.29 31.3768 128.01 33.0567H127.846C128.554 31.1329 129.371 29.2633 130.216 27.3937C131.069 25.5217 132.052 23.7109 133.157 21.9746C134.295 20.2327 135.57 18.5837 136.97 17.0432C138.387 15.5258 139.885 14.0898 141.437 12.7079C144.563 9.90191 147.999 7.45679 151.678 5.41914C155.327 3.54953 158.977 1.73412 162.572 0L162.736 0.18967Z" fill="#ffffff"/>
</g>
<g clip-path="url(#clip1_80_204)">
<path d="M39.64 97.2258C39.834 97.4194 39.834 97.6129 39.834 98C39.834 98.5806 39.64 99.1613 39.446 99.3548C39.252 99.7419 38.864 99.9355 38.282 99.9355C37.506 99.9355 36.924 99.7419 36.342 99.5484C35.954 100.323 35.566 100.903 34.984 101.677C34.402 102.258 33.432 102.839 32.656 103.226C31.686 103.613 30.716 104 29.552 104.194L28 101.871L28.194 101.677C29.358 101.484 30.328 101.097 31.298 100.903C32.268 100.516 32.85 100.129 33.432 99.7419C34.014 99.3548 34.402 98.7742 34.596 98.3871C34.014 96.6452 33.432 95.4839 32.85 94.5161L34.984 92.1936H35.178L36.148 94.9032C36.342 95.4839 36.536 95.871 36.73 96.2581C37.118 96.6452 37.312 96.8387 37.7 96.8387C38.088 96.8387 38.476 97.0323 39.058 97.0323C39.252 97.0323 39.446 97.0323 39.64 97.2258Z" fill="#ffffff"/>
<path d="M45.46 103.226L43.908 105.355L41.58 103.806L40.61 105.355L38.282 103.613L39.64 101.484L41.968 103.032L42.938 101.484L45.46 103.226ZM39.058 97.0323H39.64C40.028 97.0323 40.61 97.0323 40.998 97.0323C41.386 97.0323 41.774 97.0323 41.774 96.8387V96.6452C41.774 96.2581 41.58 95.6774 41.386 95.0968C41.386 94.5161 40.998 93.7419 40.61 92.9677L42.938 91.2258H43.132C43.52 91.8065 43.714 92.7742 44.102 93.5484C44.296 94.5161 44.49 95.0968 44.49 95.6774C44.49 96.2581 44.296 96.8387 44.102 97.4194C43.908 98 43.52 98.3871 43.132 98.7742C42.744 99.1613 42.162 99.3548 41.58 99.5484C40.998 99.7419 40.028 99.7419 39.058 99.7419H38.282L39.058 97.0323Z" fill="#ffffff"/>
<path d="M57.682 98C57.682 98.5806 57.488 99.1613 57.294 99.3548C57.1 99.7419 56.712 99.9355 56.13 99.9355H54.772C54.384 100.71 53.996 101.484 53.414 102.065C52.832 102.645 52.056 103.226 51.086 103.613C50.116 104 48.952 104.194 47.788 104.194L46.43 102.065L46.624 101.871C47.982 101.871 49.146 101.677 50.116 101.484C51.086 101.29 51.862 100.903 52.25 100.323C50.698 100.323 49.534 99.9355 48.758 99.3548C47.982 98.7742 47.594 98 47.594 96.8387C47.594 96.0645 47.788 95.2903 48.176 94.7097C48.37 93.5484 48.758 92.9677 49.34 92.3871C49.922 92 50.504 91.6129 51.28 91.6129C52.056 91.6129 52.638 91.8064 53.22 92.3871C53.802 92.7742 54.19 93.5484 54.578 94.3226C54.966 95.0968 55.16 96.0645 55.16 97.0323H56.712C57.488 97.0323 57.682 97.2258 57.682 98ZM50.31 96.8387C50.698 97.0323 51.28 97.0323 52.056 97.0323H52.832C52.832 96.6452 52.638 96.0645 52.444 95.6774C52.25 95.2903 52.056 94.9032 51.862 94.7097C51.668 94.5161 51.28 94.3226 51.086 94.3226C50.892 94.3226 50.698 94.3226 50.31 94.5161C50.116 94.7097 49.922 94.9032 49.728 95.0968C49.534 95.2903 49.534 95.6774 49.534 95.871C49.728 96.4516 49.922 96.6452 50.31 96.8387Z" fill="#ffffff"/>
<path d="M65.248 97.2258C65.442 97.4194 65.442 97.6129 65.442 97.8064C65.442 98.3871 65.248 98.9677 65.054 99.1613C64.86 99.5484 64.472 99.7419 63.89 99.7419C63.308 99.7419 62.726 99.5484 61.95 99.3548C61.368 99.1613 60.786 98.9677 60.204 98.5806C59.234 99.3548 58.07 99.7419 56.518 99.7419H56.13L56.712 96.8387H57.1C58.07 96.8387 58.652 96.6452 58.846 96.4516C59.04 95.871 59.428 94.7097 59.622 93.1613L62.532 92.3871L62.726 92.5806C62.532 93.3548 62.338 94.129 62.144 94.7097C61.95 95.2903 61.756 95.871 61.562 96.2581C62.338 96.6452 63.114 96.6452 64.084 96.6452C64.86 97.0323 65.054 97.0323 65.248 97.2258ZM61.562 90.8387L59.04 89.0968L60.592 86.7742L63.114 88.5161L61.562 90.8387Z" fill="#ffffff"/>
<path d="M64.472 82.7097V80.9677L70.292 80V81.7419L64.472 82.7097Z" fill="#ffffff"/>
<path d="M64.472 97.0323H65.248C65.636 97.0323 66.218 97.0323 66.606 97.0323C66.994 97.0323 67.382 97.0323 67.382 96.8387V96.6452C67.382 96.2581 67.188 95.6774 66.994 95.0968C66.8 94.5161 66.412 93.7419 66.024 92.9677L68.352 91.2258H68.74C69.128 92 69.322 92.7742 69.71 93.7419C69.904 94.7097 70.098 95.2903 70.098 95.871C70.098 96.4516 69.904 97.0323 69.71 97.6129C69.516 98.1936 69.128 98.5806 68.74 98.9677C68.352 99.3548 67.77 99.5484 67.188 99.7419C66.606 99.9355 65.636 99.9355 64.666 99.9355H63.89L64.472 97.0323ZM71.068 86.9677L69.516 89.0968L67.188 87.5484L66.218 89.0968L63.89 87.3548L65.442 85.2258L67.77 86.7742L68.74 85.4194L71.068 86.9677Z" fill="#ffffff"/>
<path d="M80.574 103.613C79.604 103.226 79.022 102.645 78.44 102.065C78.052 101.29 77.664 100.516 77.664 99.7419C77.664 99.3548 77.664 98.7742 77.858 98.3871C77.858 98 78.052 97.6129 78.052 97.2258L79.41 96.6452H79.604C79.41 97.4194 79.41 98 79.41 98.7742C79.41 99.9355 79.798 100.903 80.574 101.484C81.35 102.065 82.514 102.452 84.26 102.452C85.424 102.452 86.394 102.452 87.364 102.258C88.334 102.065 89.11 101.871 89.692 101.484C90.274 101.097 90.662 100.903 90.856 100.516C90.856 100.323 90.662 100.129 90.468 99.9355C90.468 99.3548 90.08 99.1613 89.498 98.9677C88.916 98.7742 88.14 98.5806 87.364 98.3871L87.946 96.6452L89.692 97.2258C90.662 97.6129 91.438 97.8064 92.214 98C92.796 98.1935 93.572 98.1935 94.154 98.1935C94.542 98.1935 94.736 98.1935 94.93 98.3871C95.124 98.5806 95.124 98.5806 95.124 98.7742C95.124 99.1613 94.93 99.3548 94.736 99.5484C94.542 99.7419 94.154 99.9355 93.572 99.9355H92.602C92.408 100.903 92.02 101.677 91.244 102.258C90.468 102.839 89.498 103.419 88.14 103.806C86.782 104.194 85.424 104.387 83.678 104.387C82.514 104.194 81.544 104 80.574 103.613ZM82.514 109.032L80.574 107.677L81.738 105.935L83.678 107.29L82.514 109.032ZM85.812 109.032L83.872 107.677L85.036 105.935L86.976 107.29L85.812 109.032Z" fill="#ffffff"/>
<path d="M107.152 98.1936C107.346 98.3871 107.346 98.3871 107.346 98.5806C107.346 98.9677 107.152 99.1613 106.958 99.3548C106.764 99.5484 106.376 99.7419 105.988 99.7419C105.406 99.7419 105.018 99.7419 104.63 99.5484C104.242 99.3548 103.854 99.1613 103.66 98.9677C103.466 99.3548 103.272 99.5484 102.884 99.7419C102.496 99.9355 102.302 99.9355 101.72 99.9355C101.138 99.9355 100.362 99.7419 99.392 99.5484C98.616 99.3548 97.84 98.9677 97.258 98.3871C96.87 98.7742 96.676 99.1613 96.288 99.3548C95.9 99.5484 95.706 99.7419 95.318 99.7419C94.93 99.7419 94.348 99.9355 93.766 99.9355L94.154 98.1936C94.542 98.1936 94.736 98.1936 94.93 98C95.124 98 95.318 97.8065 95.512 97.6129C95.706 97.4194 95.9 97.0323 96.094 96.6452C96.288 96.4516 96.482 96.0645 96.482 95.871C96.87 95.0968 97.258 94.7097 97.452 94.129C97.646 93.5484 98.034 93.3548 98.616 92.9677C99.004 92.5806 99.586 92.3871 100.168 92.3871C100.75 92.3871 101.138 92.5806 101.526 92.7742C101.914 93.1613 102.302 93.5484 102.496 93.9355C102.69 94.3226 103.078 95.0968 103.466 95.871C103.854 96.4516 104.048 96.8387 104.242 97.2258C104.436 97.4194 104.63 97.6129 105.018 97.8065C105.406 98 105.6 98 106.182 98C106.57 98 106.958 98.1936 107.152 98.1936ZM102.108 98.1936C102.302 98.1936 102.496 98 102.496 97.8065L102.302 97.4194C101.914 96.2581 101.332 95.4839 101.138 95.0968C100.75 94.7097 100.556 94.3226 100.168 94.3226C99.78 94.3226 99.392 94.5161 99.004 95.0968C98.616 95.4839 98.228 96.2581 97.84 97.0323C98.616 97.4194 99.198 97.8065 99.78 98C100.362 98.1936 100.944 98.3871 101.332 98.3871C101.526 98.3871 101.914 98.3871 102.108 98.1936Z" fill="#ffffff"/>
<path d="M114.912 98.1935C115.106 98.3871 115.106 98.3871 115.106 98.5806C115.106 98.9677 114.912 99.1613 114.718 99.3548C114.524 99.5484 114.136 99.7419 113.554 99.7419C111.808 99.7419 110.644 99.3548 109.868 98.5806C109.48 98.9677 109.092 99.1613 108.51 99.3548C107.928 99.5484 107.346 99.5484 106.57 99.5484H105.794L106.182 97.8064H106.958C107.346 97.8064 107.734 97.8064 107.928 97.6129C108.316 97.6129 108.51 97.4194 108.704 97.2258C108.898 97.0323 109.092 96.6452 109.286 96.0645C109.48 95.4839 109.674 94.7097 109.868 93.7419L111.614 93.3548L111.808 93.5484C111.614 94.3226 111.42 95.0968 111.226 95.4839C111.032 96.0645 110.838 96.4516 110.644 97.0323C111.032 97.2258 111.42 97.4194 112.002 97.6129C112.584 97.8064 113.166 97.8064 113.942 97.8064C114.524 98 114.718 98.1935 114.912 98.1935ZM108.704 104.581L106.764 103.226L107.928 101.484L109.868 102.839L108.704 104.581ZM112.002 104.581L110.062 103.226L111.226 101.484L113.166 102.839L112.002 104.581Z" fill="#ffffff"/>
<path d="M121.508 98.1935C121.702 98.3871 121.702 98.3871 121.702 98.5806C121.702 98.9677 121.508 99.1613 121.314 99.3548C121.12 99.5484 120.732 99.7419 120.15 99.7419C119.568 99.7419 118.986 99.5484 118.404 99.3548C117.822 99.1613 117.434 98.7742 117.24 98.3871C116.852 98.9677 116.464 99.1613 115.688 99.3548C115.106 99.5484 114.33 99.7419 113.36 99.7419L113.748 98C114.33 98 114.718 98 114.912 98C115.3 98 115.494 97.8065 115.882 97.6129C116.076 97.0323 116.076 96.4516 116.076 95.871V84.6452L117.628 84.2581H117.822V95.4839C117.822 96.2581 118.016 96.8387 118.21 97.2258C118.404 97.6129 118.792 97.8065 118.986 98C119.374 98.1935 119.762 98.1935 120.344 98.1935C121.12 98 121.508 98.1935 121.508 98.1935Z" fill="#ffffff"/>
<path d="M134.118 98.1935C134.312 98.3871 134.312 98.3871 134.312 98.5806C134.312 98.9677 134.118 99.1613 133.924 99.3548C133.73 99.5484 133.342 99.7419 132.76 99.7419C131.596 99.7419 130.626 99.5484 129.656 99.3548C128.686 98.9677 127.716 98.5806 126.94 98C125.97 98.5806 125 98.9677 124.03 99.3548C122.866 99.7419 121.702 99.7419 120.344 99.7419L120.732 98C122.672 98 124.224 97.6129 125.776 96.8387C125.388 96.2581 125 95.871 124.418 95.4839C123.836 95.0968 123.254 94.7097 122.672 94.3226V94.129L123.448 92.1936C124.03 92 124.612 91.6129 125.388 91.6129C126.164 91.4194 126.94 91.4194 127.716 91.4194C128.492 91.4194 129.268 91.4194 130.044 91.6129C130.82 91.8065 131.402 92.1936 131.984 92.5806V92.7742L131.596 94.5161C131.208 94.7097 130.626 95.2903 130.044 95.871C129.462 96.4516 129.074 96.8387 128.686 97.2258C129.268 97.4194 129.85 97.6129 130.82 97.8065C131.596 98 132.566 98 133.536 98C133.73 98 134.118 98.1935 134.118 98.1935ZM125.582 94.3226C125.97 94.7097 126.552 95.2903 127.328 95.871C128.298 95.2903 129.074 94.3226 130.044 93.3548C129.074 93.1613 128.298 92.9677 127.328 92.9677C126.358 92.9677 125.388 93.1613 124.418 93.5484C124.806 93.7419 125.194 94.129 125.582 94.3226Z" fill="#ffffff"/>
<path d="M141.878 98.1935C142.072 98.3871 142.072 98.3871 142.072 98.5806C142.072 98.9677 141.878 99.1613 141.684 99.3548C141.49 99.5484 141.102 99.7419 140.52 99.7419C138.774 99.7419 137.61 99.3548 136.834 98.5806C136.446 98.9677 136.058 99.1613 135.476 99.3548C134.894 99.5484 134.312 99.5484 133.536 99.5484H132.76L133.148 97.8065H133.924C134.312 97.8065 134.7 97.8065 134.894 97.6129C135.282 97.6129 135.476 97.4194 135.67 97.2258C135.864 97.0323 136.058 96.6452 136.252 96.0645C136.446 95.4839 136.64 94.7097 136.834 93.7419L138.58 93.3548L138.774 93.5484C138.58 94.3226 138.386 95.0968 138.192 95.4839C137.998 96.0645 137.804 96.4516 137.61 97.0323C137.998 97.2258 138.386 97.4194 138.968 97.6129C139.55 97.8065 140.132 97.8065 140.908 97.8065C141.49 98 141.878 98.1935 141.878 98.1935ZM136.64 91.0323L134.7 89.6774L135.864 87.9355L137.804 89.2903L136.64 91.0323ZM139.938 91.0323L137.998 89.6774L139.162 87.9355L141.102 89.2903L139.938 91.0323Z" fill="#ffffff"/>
<path d="M141.296 98C141.878 98 142.266 98 142.46 98C142.848 98 143.042 97.8065 143.43 97.6129C143.624 97.0323 143.624 96.4516 143.624 95.871V84.6452L145.176 84.2581H145.37V95.6774C145.37 96.8387 145.176 97.6129 144.788 98.1935C144.4 98.7742 144.012 99.1613 143.236 99.5484C142.654 99.7419 141.684 99.9355 140.714 99.9355L141.296 98Z" fill="#ffffff"/>
<path d="M148.474 99.9355L148.28 84.6452L150.026 84.2581H150.22V99.5484L148.474 99.9355Z" fill="#ffffff"/>
<path d="M174.664 98.1935C174.858 98.3871 174.858 98.3871 174.858 98.5806C174.858 98.9677 174.664 99.1613 174.47 99.3548C174.276 99.5484 173.888 99.7419 173.306 99.7419H171.754C170.978 102.645 168.456 104 164.188 104C162.83 104 161.666 103.806 160.696 103.419C159.726 103.032 159.144 102.452 158.562 101.871C157.98 101.29 157.786 100.323 157.786 99.5484C157.786 99.1613 157.786 98.5806 157.98 98.1935C157.98 97.8064 158.174 97.4194 158.174 97.0323L159.92 96.6452H160.114C160.114 97.4194 159.92 98.1935 159.92 98.7742C159.92 99.9355 160.308 100.903 161.084 101.484C161.86 102.065 163.024 102.452 164.77 102.452C165.74 102.452 166.516 102.452 167.292 102.258C168.068 102.065 168.65 101.871 169.232 101.484C169.814 101.097 170.202 100.903 170.396 100.516L170.59 100.129H169.62C168.262 100.129 167.098 99.9355 166.516 99.3548C165.74 98.7742 165.546 98.1935 165.546 97.2258C165.546 96.4516 165.74 95.6774 165.934 95.0968C166.322 94.3226 166.71 93.7419 167.098 93.3548C167.68 92.9677 168.262 92.5806 168.844 92.5806C169.62 92.5806 170.202 92.7742 170.59 93.3548C171.172 93.9355 171.56 94.5161 171.754 95.4839C171.948 96.2581 172.142 97.2258 172.142 98.1935V98.3871H173.888C174.47 98 174.664 98.1935 174.664 98.1935ZM167.292 89.871L165.352 88.5161L166.516 86.7742L168.456 88.129L167.292 89.871ZM170.784 98C170.784 97.2258 170.784 96.6452 170.59 96.0645C170.396 95.4839 170.202 95.0968 169.814 94.7097C169.426 94.3226 169.232 94.129 168.844 94.129C168.65 94.129 168.262 94.3226 168.068 94.5161C167.874 94.7097 167.486 95.0968 167.292 95.4839C167.098 95.871 167.098 96.2581 167.098 96.6452C167.098 97.0323 167.292 97.4194 167.874 97.6129C168.262 97.8065 169.038 98 170.202 98H170.784ZM170.396 89.871L168.456 88.5161L169.62 86.7742L171.56 88.129L170.396 89.871Z" fill="#ffffff"/>
<path d="M182.424 98.1935C182.618 98.3871 182.618 98.3871 182.618 98.5806C182.618 98.9677 182.424 99.1613 182.23 99.3548C182.036 99.5484 181.648 99.7419 181.066 99.7419C179.32 99.7419 178.156 99.3548 177.38 98.5806C176.992 98.9677 176.604 99.1613 176.022 99.3548C175.44 99.5484 174.858 99.5484 174.082 99.5484H173.5L173.888 97.8065H174.664C175.052 97.8065 175.44 97.8065 175.634 97.6129C176.022 97.6129 176.216 97.4194 176.41 97.2258C176.604 97.0323 176.798 96.6452 176.992 96.0645C177.186 95.4839 177.38 94.7097 177.574 93.7419H179.32L179.514 93.9355C179.32 94.7097 179.126 95.4839 178.932 95.871C178.738 96.4516 178.544 96.8387 178.35 97.4194C178.738 97.6129 179.126 97.8065 179.708 98C180.29 98.1935 180.872 98.1935 181.648 98.1935C182.23 98 182.424 98.1935 182.424 98.1935ZM176.216 104.581L174.276 103.226L175.44 101.484L177.38 102.839L176.216 104.581ZM179.514 104.581L177.574 103.226L178.738 101.484L180.678 102.839L179.514 104.581Z" fill="#ffffff"/>
<path d="M189.796 98.1935C189.99 98.3871 189.99 98.3871 189.99 98.5806C189.99 98.9677 189.796 99.1613 189.602 99.3548C189.408 99.5484 189.02 99.7419 188.438 99.7419C187.856 99.7419 187.274 99.7419 186.692 99.5484C186.11 99.3548 185.528 99.1613 185.14 98.7742C184.752 99.1613 184.364 99.3548 183.782 99.5484C183.2 99.7419 182.618 99.7419 181.842 99.7419H181.26L181.648 98H182.23C183.2 98 183.782 97.8065 184.17 97.6129C184.364 97.4194 184.558 97.0323 184.752 96.4516C184.946 95.871 185.14 95.0968 185.334 94.129L187.08 93.7419L187.274 93.9355C187.08 95.4839 186.692 96.6452 186.304 97.4194C186.692 97.6129 187.08 97.8065 187.468 98C187.856 98.1935 188.438 98.1935 189.214 98.1935C189.408 98 189.602 98.1935 189.796 98.1935ZM185.722 104.581L183.782 103.226L184.946 101.484L186.886 102.839L185.722 104.581Z" fill="#ffffff"/>
<path d="M204.54 98.1935C204.734 98.3871 204.734 98.3871 204.734 98.5806C204.734 98.9677 204.54 99.1613 204.346 99.3548C204.152 99.5484 203.764 99.7419 203.182 99.7419C202.6 99.7419 202.018 99.7419 201.63 99.5484C201.048 99.3548 200.66 99.1613 200.078 98.7742C199.496 99.1613 198.914 99.3548 197.944 99.5484C196.974 99.7419 195.81 99.7419 194.258 99.7419H188.438L189.02 98H189.99L191.154 96.8387V84.6452L192.9 84.2581H193.094V95.2903C194.258 94.3226 195.228 93.3548 196.198 92.9677C196.974 92.3871 197.944 92.1935 198.526 92.1935C199.108 92.1935 199.69 92.3871 200.272 92.7742C200.854 93.1613 201.242 93.5484 201.436 94.129C201.824 94.7097 201.824 95.2903 201.824 95.871C201.824 96.4516 201.63 97.0323 201.436 97.6129C202.018 98 202.988 98.1935 203.958 98.1935C204.152 98 204.54 98.1935 204.54 98.1935ZM197.944 98C198.72 98 199.302 97.8065 199.69 97.6129C199.884 97.4194 199.884 97.2258 200.078 97.0323C200.272 96.8387 200.272 96.4516 200.272 96.2581C200.272 95.871 200.272 95.6774 200.078 95.2903C199.884 94.9032 199.69 94.7097 199.302 94.5161C198.914 94.3226 198.72 94.129 198.332 94.129C197.75 94.129 196.974 94.5161 196.004 95.0968C195.034 95.871 193.87 96.8387 192.512 98.1935H194.452C196.004 98 197.168 98 197.944 98Z" fill="#ffffff"/>
<path d="M205.51 85.6129V84.4516L210.942 83.4839V84.6452L205.51 85.6129Z" fill="#ffffff"/>
<path d="M212.3 98.1935C212.494 98.3871 212.494 98.3871 212.494 98.5806C212.494 98.9677 212.3 99.1613 212.106 99.3548C211.912 99.5484 211.524 99.7419 210.942 99.7419C209.196 99.7419 208.032 99.3548 207.256 98.5806C206.868 98.9677 206.48 99.1613 205.898 99.3548C205.316 99.5484 204.734 99.5484 203.958 99.5484H203.182L203.57 97.8065H204.54C204.928 97.8065 205.316 97.8065 205.51 97.6129C205.898 97.6129 206.092 97.4194 206.286 97.2258C206.48 97.4194 206.674 97.0323 206.868 96.4516C207.062 95.871 207.256 95.0968 207.45 94.129L209.196 93.7419L209.39 93.9355C209.196 94.7097 209.002 95.4839 208.808 95.871C208.614 96.4516 208.42 96.8387 208.226 97.4194C208.614 97.6129 209.002 97.8065 209.584 98C210.166 98.1936 210.748 98.1935 211.524 98.1935C211.912 98 212.3 98.1935 212.3 98.1935ZM207.062 91.0323L205.122 89.6774L206.286 87.9355L208.226 89.2903L207.062 91.0323ZM210.36 91.0323L208.42 89.6774L209.584 87.9355L211.524 89.2903L210.36 91.0323Z" fill="#ffffff"/>
<path d="M211.524 98C212.106 98 212.494 98 212.688 98C213.076 98 213.27 97.8065 213.658 97.6129C213.852 97.0323 213.852 96.4516 213.852 95.871V84.6452L215.404 84.2581H215.598V95.6774C215.598 96.8387 215.404 97.6129 215.016 98.1935C214.628 98.7742 214.24 99.1613 213.464 99.5484C212.882 99.7419 211.912 99.9355 210.942 99.9355L211.524 98Z" fill="#ffffff"/>
<path d="M218.896 99.9355L218.702 84.6452L220.448 84.2581H220.642V99.5484L218.896 99.9355Z" fill="#ffffff"/>
<path d="M28 118.903V108.839H29.358V118.903H28Z" fill="#ffffff"/>
<path d="M37.7 114.065V118.903H36.342V114.452C36.342 114.065 36.342 113.677 36.148 113.484C36.148 113.29 35.954 113.097 35.76 113.097C35.566 113.097 35.372 112.903 34.984 112.903C34.596 112.903 34.402 112.903 34.014 113.097C33.626 113.097 33.238 113.29 33.044 113.484V118.903H31.88V112.129L33.238 111.935V112.516C34.208 112.129 34.984 111.742 35.76 111.742C37.118 111.935 37.7 112.516 37.7 114.065Z" fill="#ffffff"/>
<path d="M40.416 118.903C39.834 118.71 39.446 118.516 39.058 118.129L39.64 117.161C40.416 117.742 41.192 117.935 41.968 117.935C42.356 117.935 42.744 117.935 43.132 117.742C43.326 117.548 43.52 117.355 43.52 117.161C43.52 116.774 43.52 116.581 43.132 116.387C42.938 116.194 42.55 116 41.968 115.806H41.58C40.804 115.613 40.222 115.419 40.028 115.032C39.64 114.839 39.446 114.258 39.446 113.871C39.446 113.484 39.64 113.097 39.834 112.903C40.028 112.516 40.416 112.323 40.804 112.129C41.192 111.935 41.58 111.935 42.162 111.935C42.55 111.935 43.132 111.935 43.52 112.129C43.908 112.323 44.49 112.516 44.878 112.71L44.296 113.677C43.908 113.484 43.52 113.29 43.132 113.29C42.744 112.903 42.356 112.903 41.968 112.903C41.58 112.903 41.386 112.903 40.998 113.097C40.804 113.29 40.61 113.484 40.61 113.677C40.61 113.871 40.61 114.065 40.804 114.258C40.998 114.452 41.192 114.452 41.774 114.645L42.356 114.839C43.132 114.839 43.52 115.032 43.908 115.226C44.296 115.419 44.49 115.613 44.684 116C44.878 116.194 44.878 116.581 44.878 116.968C44.878 117.355 44.684 117.742 44.49 118.129C44.296 118.516 43.908 118.71 43.52 118.903C43.132 119.097 42.55 119.097 41.968 119.097C41.58 119.097 40.998 119.097 40.416 118.903Z" fill="#ffffff"/>
<path d="M50.698 118.71C50.116 119.097 49.534 119.097 48.952 119.097C48.37 119.097 47.788 118.903 47.4 118.516C47.012 118.129 46.818 117.548 46.818 116.774V113.097H45.46V112.129H46.818V110.581L48.176 110.387V112.129H50.504L50.31 113.097H48.176V116.581C48.176 117.548 48.564 117.935 49.146 117.935C49.34 117.935 49.534 117.935 49.728 117.935C49.922 117.935 50.116 117.742 50.31 117.742L50.698 118.71Z" fill="#ffffff"/>
<path d="M55.742 111.935C55.936 111.935 56.13 111.935 56.13 111.935L55.936 113.29C55.548 113.097 55.354 113.097 54.966 113.097C54.578 113.097 54.384 113.097 53.996 113.29C53.802 113.484 53.414 113.677 53.22 114.065V118.71H51.862V111.935L53.22 111.742V112.903C53.414 112.516 53.802 112.323 54.19 112.129C54.578 111.935 54.966 111.935 55.354 111.935C55.548 111.935 55.742 111.935 55.742 111.935Z" fill="#ffffff"/>
<path d="M63.502 111.935V118.903H62.338V118.323C61.562 118.71 60.786 119.097 59.816 119.097C59.234 119.097 58.652 118.903 58.264 118.516C57.876 118.129 57.682 117.548 57.682 116.968V112.129L59.04 111.935V116.581C59.04 116.968 59.04 117.161 59.234 117.355C59.234 117.548 59.428 117.742 59.622 117.742C59.816 117.742 60.01 117.935 60.398 117.935C60.98 117.935 61.562 117.742 62.338 117.355V112.129L63.502 111.935Z" fill="#ffffff"/>
<path d="M66.024 118.323C65.442 117.742 65.054 116.968 65.054 115.613C65.054 114.839 65.248 114.065 65.636 113.484C66.024 112.903 66.412 112.516 66.994 112.323C67.576 112.129 68.158 111.935 68.74 111.935C69.516 111.935 70.098 112.129 70.874 112.516L70.292 113.484C69.904 113.29 69.516 113.097 69.322 113.097C69.128 113.097 68.74 112.903 68.546 112.903C67.964 112.903 67.382 113.097 67.188 113.677C66.8 114.065 66.606 114.839 66.606 115.613C66.606 116.387 66.8 116.968 67.188 117.355C67.576 117.742 67.964 117.935 68.546 117.935C68.934 117.935 69.128 117.935 69.516 117.742C69.71 117.548 70.098 117.548 70.486 117.355L71.068 118.323C70.68 118.516 70.292 118.71 69.904 118.903C69.516 119.097 69.128 119.097 68.546 119.097C67.382 119.097 66.606 118.903 66.024 118.323Z" fill="#ffffff"/>
<path d="M76.5 118.71C75.918 119.097 75.336 119.097 74.754 119.097C74.172 119.097 73.59 118.903 73.202 118.516C72.814 118.129 72.62 117.548 72.62 116.774V113.097H71.262V112.129H72.62V110.581L73.978 110.387V112.129H76.306L76.112 113.097H73.978V116.581C73.978 117.548 74.366 117.935 74.948 117.935C75.142 117.935 75.336 117.935 75.53 117.935C75.724 117.935 75.918 117.742 76.112 117.742L76.5 118.71Z" fill="#ffffff"/>
<path d="M78.052 110.581C77.858 110.581 77.858 110.387 77.664 110.194C77.664 110 77.47 109.806 77.47 109.806C77.47 109.613 77.47 109.419 77.664 109.226C77.664 109.032 77.858 109.032 78.052 108.839C78.246 108.839 78.44 108.645 78.44 108.645C78.634 108.645 78.828 108.645 79.022 108.839C79.216 108.839 79.216 109.032 79.41 109.226C79.41 109.419 79.604 109.613 79.604 109.806C79.604 110 79.604 110.194 79.41 110.194C79.41 110.387 79.216 110.387 79.022 110.581C78.828 110.581 78.634 110.774 78.44 110.774C78.44 110.581 78.246 110.581 78.052 110.581ZM77.858 118.903V112.129L79.216 111.935V118.903H77.858Z" fill="#ffffff"/>
<path d="M82.32 118.71C81.738 118.323 81.544 117.935 81.156 117.355C80.768 116.774 80.768 116.194 80.768 115.419C80.768 114.645 80.962 113.871 81.156 113.29C81.544 112.71 81.932 112.323 82.514 112.129C83.096 111.935 83.678 111.742 84.26 111.742C85.036 111.742 85.618 111.935 86.006 112.129C86.588 112.516 86.782 112.903 87.17 113.484C87.364 114.065 87.558 114.645 87.558 115.419C87.558 116.194 87.364 116.968 87.17 117.548C86.782 118.129 86.394 118.516 85.812 118.71C85.23 118.903 84.648 119.097 84.066 119.097C83.484 119.097 82.902 118.903 82.32 118.71ZM86.394 115.419C86.394 114.645 86.2 114.065 85.812 113.677C85.424 113.097 85.036 112.903 84.26 112.903C83.484 112.903 83.096 113.097 82.708 113.484C82.32 113.871 82.32 114.452 82.32 115.226C82.32 116 82.514 116.581 82.902 117.161C83.29 117.548 83.678 117.935 84.454 117.935C85.618 117.935 86.394 117.161 86.394 115.419Z" fill="#ffffff"/>
<path d="M95.318 114.065V118.903H93.96V114.452C93.96 114.065 93.96 113.677 93.766 113.484C93.766 113.29 93.572 113.097 93.378 113.097C93.184 113.097 92.99 112.903 92.602 112.903C92.214 112.903 92.02 112.903 91.632 113.097C91.244 113.097 90.856 113.29 90.662 113.484V118.903H89.304V112.129L90.662 111.935V112.516C91.632 112.129 92.408 111.742 93.184 111.742C94.542 111.935 95.318 112.516 95.318 114.065Z" fill="#ffffff"/>
<path d="M102.108 112.323C102.496 112.71 102.69 113.29 102.69 114.065V118.903H101.526V118.323C100.75 118.903 99.974 119.097 99.004 119.097C98.616 119.097 98.228 119.097 98.034 118.903C97.646 118.71 97.452 118.516 97.258 118.323C97.064 118.129 97.064 117.742 97.064 117.355C97.064 116.774 97.258 116.387 97.646 116C98.034 115.613 98.616 115.419 99.198 115.226C99.78 115.032 100.556 115.032 101.526 114.839V114.452C101.526 114.065 101.526 113.677 101.332 113.484C101.138 113.29 100.75 113.097 100.362 113.097C99.586 113.097 98.81 113.29 98.034 113.871L97.064 112.903C98.034 112.129 99.198 111.935 100.168 111.935C100.944 111.935 101.72 112.129 102.108 112.323ZM98.422 117.742C98.616 117.935 98.81 117.935 99.198 117.935C99.974 117.935 100.556 117.742 101.332 117.355V115.806C100.362 115.806 99.78 116 99.198 116.194C98.616 116.387 98.422 116.774 98.422 117.161C98.228 117.355 98.422 117.548 98.422 117.742Z" fill="#ffffff"/>
<path d="M104.824 118.903V108.065L106.182 107.871V118.71H104.824V118.903Z" fill="#ffffff"/>
<path d="M117.628 109.226C118.21 109.419 118.598 109.806 118.986 110.387C119.18 110.774 119.374 111.355 119.374 111.935C119.374 112.516 119.18 113.097 118.986 113.677C118.792 114.258 118.21 114.645 117.628 114.839C117.046 115.226 116.27 115.226 115.494 115.226H113.748V118.903H112.39V108.839H115.688C116.464 108.839 117.046 108.839 117.628 109.226ZM117.24 113.484C117.628 113.097 117.822 112.71 117.822 111.935C117.822 111.355 117.628 110.774 117.24 110.581C116.852 110.194 116.27 110 115.494 110H113.554V113.871H115.3C116.27 113.871 116.852 113.677 117.24 113.484Z" fill="#ffffff"/>
<path d="M124.806 111.935C125 111.935 125.194 111.935 125.194 111.935L125 113.29C124.612 113.097 124.224 113.097 124.03 113.097C123.642 113.097 123.448 113.097 123.06 113.29C122.866 113.484 122.478 113.677 122.284 114.065V118.71H120.926V111.935L122.284 111.742V112.903C122.478 112.516 122.866 112.323 123.254 112.129C123.642 111.935 124.03 111.935 124.418 111.935C124.418 111.935 124.612 111.935 124.806 111.935Z" fill="#ffffff"/>
<path d="M127.134 118.71C126.552 118.323 126.358 117.935 125.97 117.355C125.776 116.774 125.582 116.194 125.582 115.419C125.582 114.645 125.776 113.871 125.97 113.29C126.358 112.71 126.746 112.323 127.328 112.129C127.91 111.935 128.492 111.742 129.074 111.742C129.85 111.742 130.432 111.935 130.82 112.129C131.402 112.516 131.596 112.903 131.984 113.484C132.178 114.065 132.372 114.645 132.372 115.419C132.372 116.194 132.178 116.968 131.984 117.548C131.596 118.129 131.208 118.516 130.626 118.71C130.044 118.903 129.462 119.097 128.88 119.097C128.298 119.097 127.716 118.903 127.134 118.71ZM131.014 115.419C131.014 114.645 130.82 114.065 130.432 113.677C130.044 113.29 129.656 112.903 128.88 112.903C128.104 112.903 127.716 113.097 127.328 113.484C126.94 113.871 126.94 114.452 126.94 115.226C126.94 116 127.134 116.581 127.522 117.161C127.91 117.548 128.298 117.935 129.074 117.935C130.432 117.935 131.014 117.161 131.014 115.419Z" fill="#ffffff"/>
<path d="M139.356 118.129C139.744 118.323 140.132 118.516 140.326 118.71C140.52 118.903 140.714 119.29 140.714 119.677C140.714 120.065 140.52 120.645 140.326 121.032C139.938 121.419 139.55 121.613 138.968 121.806C138.386 122 137.804 122 136.834 122C135.864 122 135.088 121.806 134.312 121.419C133.73 121.032 133.342 120.645 133.342 119.871C133.342 119.484 133.342 119.097 133.536 118.903C133.73 118.71 133.924 118.323 134.312 118.129C133.924 117.935 133.924 117.548 133.924 117.355C133.924 117.161 133.924 116.968 134.118 116.774C134.312 116.581 134.506 116.387 134.7 116.194C134.312 116 134.118 115.613 133.924 115.419C133.73 115.032 133.73 114.645 133.73 114.258C133.73 113.677 133.924 113.29 134.118 112.903C134.312 112.516 134.7 112.323 135.282 112.129C135.67 111.935 136.252 111.935 136.834 111.935C137.222 111.935 137.416 111.935 137.804 111.935L140.132 110.968L140.52 112.129L138.968 112.516C139.356 112.71 139.55 113.097 139.55 113.29C139.744 113.677 139.744 113.871 139.744 114.258C139.744 115.032 139.356 115.806 138.774 116.194C138.192 116.581 137.61 116.774 136.64 116.774C136.252 116.774 135.864 116.774 135.67 116.581C135.476 116.774 135.476 116.968 135.476 117.161C135.476 117.355 135.476 117.355 135.67 117.355C135.67 117.355 135.864 117.548 136.058 117.548C136.252 117.548 136.446 117.548 136.834 117.742H137.998C138.386 117.935 138.968 117.935 139.356 118.129ZM138.386 120.645C138.774 120.452 139.162 120.258 139.162 119.677C139.162 119.484 139.162 119.29 138.968 119.29C138.774 119.097 138.58 119.097 138.386 119.097C138.192 119.097 137.804 118.903 137.416 118.903H136.252C135.864 118.903 135.67 118.903 135.282 118.71C135.088 118.903 134.894 119.097 134.894 119.29C134.7 119.484 134.7 119.677 134.7 119.871C134.7 120.258 134.894 120.452 135.282 120.645C135.67 120.839 136.058 120.839 136.834 120.839C137.416 121.032 137.998 120.839 138.386 120.645ZM135.476 113.29C135.282 113.484 135.088 113.871 135.088 114.258C135.088 114.645 135.282 115.032 135.476 115.226C135.67 115.419 136.252 115.613 136.834 115.613C137.998 115.613 138.58 115.226 138.58 114.258C138.58 113.871 138.386 113.484 138.192 113.097C137.804 113.097 137.222 112.903 136.64 112.903C136.058 112.903 135.67 113.097 135.476 113.29Z" fill="#ffffff"/>
<path d="M145.564 111.935C145.758 111.935 145.952 111.935 145.952 111.935L145.758 113.29C145.37 113.097 144.982 113.097 144.788 113.097C144.4 113.097 144.206 113.097 143.818 113.29C143.624 113.484 143.236 113.677 143.042 114.065V118.71H141.684V111.935L143.042 111.742V112.903C143.236 112.516 143.624 112.323 144.012 112.129C144.4 111.935 144.788 111.935 145.176 111.935C145.37 111.935 145.564 111.935 145.564 111.935Z" fill="#ffffff"/>
<path d="M151.772 112.323C152.16 112.71 152.354 113.29 152.354 114.065V118.903H151.19V118.323C150.414 118.903 149.638 119.097 148.668 119.097C148.28 119.097 147.892 119.097 147.698 118.903C147.31 118.71 147.116 118.516 146.922 118.323C146.728 118.129 146.728 117.742 146.728 117.355C146.728 116.774 146.922 116.387 147.31 116C147.698 115.613 148.28 115.419 148.862 115.226C149.638 115.032 150.22 115.032 151.19 114.839V114.452C151.19 114.065 151.19 113.677 150.996 113.484C150.802 113.29 150.414 113.097 150.026 113.097C149.25 113.097 148.474 113.29 147.698 113.871L146.922 112.903C147.892 112.129 149.056 111.935 150.026 111.935C150.802 111.935 151.384 112.129 151.772 112.323ZM148.28 117.742C148.474 117.935 148.668 117.935 149.056 117.935C149.832 117.935 150.414 117.742 151.19 117.355V115.806C150.22 115.806 149.638 116 149.056 116.194C148.474 116.387 148.28 116.774 148.28 117.161C148.086 117.355 148.086 117.548 148.28 117.742Z" fill="#ffffff"/>
<path d="M163.994 112.323C164.382 112.71 164.576 113.29 164.576 113.871V118.71H163.218V114.258C163.218 113.871 163.218 113.484 163.024 113.29C163.024 113.097 162.83 112.903 162.636 112.903C162.442 112.903 162.248 112.71 162.054 112.71C161.666 112.71 161.472 112.71 161.084 112.903C160.696 112.903 160.502 113.097 160.114 113.29C160.114 113.484 160.114 113.677 160.114 113.677V118.516H158.756V114.065C158.756 113.677 158.756 113.29 158.562 113.097C158.562 112.903 158.368 112.71 158.174 112.71C157.98 112.71 157.786 112.516 157.592 112.516C157.204 112.516 157.01 112.516 156.622 112.71C156.234 112.71 156.04 112.903 155.652 113.097V118.516H154.294V111.742L155.652 111.548V112.129C156.428 111.742 157.204 111.355 157.98 111.355C158.756 111.355 159.338 111.548 159.532 112.129C159.92 111.935 160.308 111.742 160.89 111.548C161.278 111.355 161.86 111.355 162.248 111.355C163.218 111.935 163.606 112.129 163.994 112.323Z" fill="#ffffff"/>
<path d="M175.44 108.839V110.774H172.142V119.097H170.008V110.774H166.71V108.839H175.44Z" fill="#ffffff"/>
<path d="M180.29 112.129C180.678 112.516 181.066 113.097 181.066 113.871V118.903H179.32L179.126 118.323C178.738 118.516 178.35 118.71 177.962 118.903C177.574 119.097 177.186 119.097 176.798 119.097C176.41 119.097 176.022 119.097 175.634 118.903C175.246 118.71 175.052 118.516 174.858 118.129C174.664 117.742 174.664 117.548 174.664 117.161C174.664 116.387 175.052 115.806 175.828 115.226C176.604 114.839 177.768 114.645 179.126 114.452V114.258C179.126 113.871 179.126 113.677 179.126 113.484C179.126 113.29 178.932 113.29 178.738 113.097C178.544 113.097 178.35 112.903 178.156 112.903C177.574 112.903 176.798 113.097 175.828 113.677L175.052 112.323C175.634 111.935 176.216 111.742 176.798 111.548C177.38 111.355 177.962 111.355 178.544 111.355C179.126 111.548 179.902 111.742 180.29 112.129ZM176.798 117.355C176.992 117.548 177.186 117.548 177.38 117.548C177.768 117.548 178.35 117.355 178.738 117.161V115.806C177.962 115.806 177.38 116 176.992 116.194C176.604 116.387 176.41 116.581 176.41 116.968C176.604 117.161 176.798 117.355 176.798 117.355Z" fill="#ffffff"/>
<path d="M189.02 112.129C189.408 112.516 189.602 113.097 189.602 113.677V118.903H187.468V114.452C187.468 114.065 187.468 113.871 187.468 113.677C187.468 113.484 187.274 113.484 187.08 113.29C186.886 113.29 186.692 113.097 186.498 113.097C186.11 113.097 185.528 113.29 184.946 113.677V118.903H182.812V111.935L184.946 111.742V112.516C185.334 112.323 185.722 112.129 186.11 111.935C186.498 111.742 186.886 111.742 187.274 111.742C188.05 111.548 188.632 111.742 189.02 112.129Z" fill="#ffffff"/>
<path d="M200.854 111.935L198.914 118.903H196.974L196.004 115.419C195.81 114.839 195.81 114.452 195.616 114.065C195.616 114.452 195.422 114.839 195.422 115.419L194.452 118.903H192.512L190.378 111.935V111.742H192.706L193.482 115.032C193.482 115.419 193.676 115.806 193.676 116.387C193.676 116 193.87 115.419 193.87 115.032L194.646 111.742H196.586L197.556 115.032C197.75 115.613 197.75 116 197.75 116.387C197.75 116 197.944 115.419 197.944 115.032L198.526 111.742H200.854V111.935Z" fill="#ffffff"/>
<path d="M207.838 115.806H203.376C203.376 116.387 203.57 116.774 203.958 117.161C204.346 117.355 204.734 117.548 205.122 117.548C205.51 117.548 205.704 117.548 206.092 117.355C206.48 117.355 206.674 117.161 207.062 116.968L207.838 118.323C207.45 118.516 207.062 118.903 206.48 118.903C205.898 118.903 205.51 119.097 204.928 119.097C204.152 119.097 203.57 118.903 202.988 118.71C202.406 118.516 202.018 118.129 201.63 117.548C201.242 116.968 201.048 116.387 201.048 115.419C201.048 114.645 201.242 113.871 201.436 113.29C201.63 112.71 202.018 112.323 202.6 111.935C203.182 111.548 203.764 111.548 204.54 111.548C205.316 111.548 205.898 111.742 206.286 111.935C206.868 112.129 207.062 112.516 207.45 113.097C207.644 113.484 207.838 114.065 207.838 114.645C208.032 115.032 207.838 115.226 207.838 115.806ZM203.958 113.484C203.764 113.677 203.57 114.065 203.57 114.452H205.898C205.898 114.065 205.704 113.677 205.51 113.484C205.316 113.29 205.122 113.097 204.734 113.097C204.346 113.097 204.152 113.097 203.958 113.484Z" fill="#ffffff"/>
<path d="M215.598 115.806H211.136C211.136 116.387 211.33 116.774 211.718 117.161C212.106 117.355 212.494 117.548 212.882 117.548C213.27 117.548 213.464 117.548 213.852 117.355C214.24 117.355 214.434 117.161 214.822 116.968L215.598 118.323C215.21 118.516 214.822 118.903 214.24 118.903C213.658 119.097 213.27 119.097 212.688 119.097C211.912 119.097 211.33 118.903 210.748 118.71C210.166 118.516 209.778 118.129 209.39 117.548C209.002 116.968 208.808 116.387 208.808 115.419C208.808 114.645 209.002 113.871 209.196 113.29C209.39 112.71 209.778 112.323 210.36 111.935C210.942 111.548 211.524 111.548 212.3 111.548C213.076 111.548 213.658 111.742 214.046 111.935C214.628 112.129 214.822 112.516 215.21 113.097C215.404 113.484 215.598 114.065 215.598 114.645C215.598 115.032 215.598 115.226 215.598 115.806ZM211.524 113.484C211.33 113.677 211.136 114.065 211.136 114.452H213.464C213.464 114.065 213.27 113.677 213.076 113.484C212.882 113.29 212.688 113.097 212.3 113.097C212.106 113.097 211.718 113.097 211.524 113.484Z" fill="#ffffff"/>
<path d="M222 111.742L221.612 113.871C221.418 113.871 221.224 113.677 221.224 113.677C221.03 113.677 220.836 113.677 220.836 113.677C220.642 113.677 220.254 113.677 220.06 113.871C219.866 114.065 219.478 114.258 219.284 114.645V118.903H217.15V111.935L219.284 111.742V112.71C219.866 111.935 220.448 111.742 221.224 111.742C221.418 111.548 221.806 111.742 222 111.742Z" fill="#ffffff"/>
</g>
<defs>
<clipPath id="clip0_80_204">
<rect width="250" height="64" fill="white"/>
</clipPath>
<clipPath id="clip1_80_204">
<rect width="194" height="42" fill="white" transform="translate(28 80)"/>
</clipPath>
</defs>
</svg>
